<?xml version="1.0" encoding="utf-8"?>
<!-- Generator: Adobe Illustrator 27.0.0, SVG Export Plug-In . SVG Version: 6.00 Build 0)  -->
<svg version="1.1" xmlns="http://www.w3.org/2000/svg" xmlns:xlink="http://www.w3.org/1999/xlink" x="0px" y="0px"
	 viewBox="0 0 750 500" style="enable-background:new 0 0 750 500;" xml:space="preserve">
<style type="text/css">
	.st0{fill:#CCE6ED;}
	.st1{opacity:0.27;fill:#48CFEF;}
	.st2{opacity:0.58;fill:#5FDDFF;}
	.st3{fill:#FFFFFF;}
	.st4{fill:#FFFFFB;}
	.st5{fill:#9EC700;}
	.st6{opacity:0.26;fill:#33C7CA;}
	.st7{opacity:0.58;fill:#FFFFFB;}
	.st8{fill:#0F3552;}
	.st9{fill:#FF8B65;}
	.st10{fill:#FA3900;}
	.st11{fill:#84BDF1;}
	.st12{fill:#28B28A;}
	.st13{fill:#CCCBCA;}
	.st14{fill:#0A5487;}
	.st15{opacity:0.1;fill:#CCCBCA;}
	.st16{opacity:0.58;fill:#00325B;}
	.st17{opacity:0.2;fill:#9EC700;}
	.st18{fill:#33C7CA;}
	.st19{fill:#FF8C62;}
	.st20{opacity:0.15;fill:#0A5487;}
	.st21{opacity:0.27;fill:#FF8C62;}
	.st22{opacity:0.4;fill:#9EC700;}
	.st23{fill:#FECD29;}
	.st24{opacity:0.46;fill:#FECD29;}
	.st25{opacity:0.3;}
	.st26{opacity:0.41;fill:#FCB29A;}
	.st27{fill:#050D0F;}
</style>
<g id="BACKGROUND">
	<rect class="st0" width="750" height="500"/>
</g>
<g id="OBJECTS">
	<g>
		<path class="st1" d="M686.2,385.7c0-13.8-139.3-25-311.2-25s-311.2,11.2-311.2,25c0,7,35.7,13.3,93.2,17.8
			c-30.8,4.2-49.1,9.4-49.1,15.1c0,13.8,108,25,241.2,25c133.2,0,241.2-11.2,241.2-25c0-4.6-12.1-9-33.3-12.7
			C635.2,401.4,686.2,394,686.2,385.7z"/>
		<path class="st2" d="M299,357.7h220.1c53.4,0,100.4-23.6,112.3-57.2c6-17,2.7-35.5-21.8-51.9c-69.3-46.3,6-52.3-21.1-108.3
			c-27.8-57.5-154.6-99.3-298.4-66C74.8,124.2,92,364.4,299,357.7z"/>
		<path class="st3" d="M655.8,179.4c0,0,5.3-28.3-5.8-29c-11.1-0.7-9.7,18.8-14.5,14.6c-4.8-4.2,2.4-42.3-16-45.2
			c-18.4-2.9-7.7,48-14,45.2c-6.3-2.7-3.9-19.1-15-17.5s-6.3,20.3-11.8,25.6c-5,4.8-12.4,3.8-14.3-3.1c-4.1-15.5-18.1-14-20.3,0
			c-1.2,8-1.9,10.6-1.9,10.6L655.8,179.4"/>
		<g>
			
				<rect x="382.7" y="82.1" transform="matrix(0.8634 0.5045 -0.5045 0.8634 136.4739 -207.5946)" class="st4" width="137.8" height="132.2"/>
			
				<rect x="397.3" y="92.5" transform="matrix(0.8634 0.5045 -0.5045 0.8634 133.0588 -210.5103)" class="st5" width="116" height="95.9"/>
			<polygon class="st6" points="431,75 527.7,131.5 529.6,128.4 429.4,69.8 381,152.6 384.5,154.6 			"/>
			<g>
				<polygon class="st7" points="381,152.6 432.3,130.9 433.5,163.4 486.7,131.8 485.4,172.2 512.4,157.7 481.2,211.1 				"/>
				
					<ellipse transform="matrix(0.8343 -0.5513 0.5513 0.8343 13.5262 259.222)" class="st7" cx="438" cy="107.1" rx="13.9" ry="13.9"/>
				<path class="st7" d="M490.1,125.7c0.3-2.3-0.7-4.6-2.8-5.9c-0.8-0.4-1.6-0.7-2.4-0.8c0.6-3.5-1-7.2-4.3-9.1
					c-2.8-1.6-6.1-1.6-8.7-0.1c-0.6-0.8-1.3-1.6-2.3-2.1c-2.8-1.6-6.3-1.1-8.5,1L490.1,125.7z"/>
				<path class="st7" d="M511.9,148.5c0.2-1.3-0.4-2.7-1.6-3.4c-0.4-0.3-0.9-0.4-1.4-0.4c0.3-2-0.6-4.1-2.5-5.2
					c-1.6-0.9-3.5-0.9-5-0.1c-0.3-0.5-0.8-0.9-1.3-1.2c-1.6-0.9-3.6-0.6-4.9,0.6L511.9,148.5z"/>
				<path class="st7" d="M457,140.2c0.2-1.3-0.4-2.7-1.6-3.4c-0.4-0.3-0.9-0.4-1.4-0.4c0.3-2-0.6-4.1-2.5-5.2
					c-1.6-0.9-3.5-0.9-5-0.1c-0.3-0.5-0.8-0.9-1.3-1.2c-1.6-0.9-3.6-0.6-4.9,0.6L457,140.2z"/>
			</g>
		</g>
		<path class="st8" d="M553.8,193.5l6.3-12.7c0,0,1.1,3.5,0.3,9.9c-0.8,6.4,20.4,21.6,14.9,37.5c-5.4,15.9-47.6-4.7-47.6-4.7
			l-2.8-11.3c0,0-0.2-14.1,6.9-21.8C538.9,182.7,553.8,193.5,553.8,193.5z"/>
		<path class="st9" d="M549.8,182.8c0,0-1.5,25.2,3.3,27.2c4.7,1.9-12,4.7-12,4.7l-8.4-6.7c0,0,3.6-11.2,2.4-16
			C533.6,187.2,549.8,182.8,549.8,182.8z"/>
		<path class="st10" d="M565.3,269.1c0,0,0-35.9-3.8-51.5c-2.8-11.7-10.6-11.6-10.6-11.6c-8.3,4-20.5,0-20.5,0
			c-1.1,0-2.2,0.3-3.4,0.8l0,0c0,0-7.1,2-11.3,10.6c-8,16.5-17.5,20.2-17.5,20.2l12,20.5l4.9-3.9l-0.8,13L565.3,269.1z M517.7,251.7
			c-0.1,0-0.2,0-0.3-0.1c-0.2,0-0.3-0.1-0.5-0.1c-0.1,0-0.1,0-0.2,0c-0.2,0-0.4-0.1-0.5-0.1c-0.1,0-0.1,0-0.2,0
			c-0.2,0-0.4-0.1-0.6-0.1c0,0-0.1,0-0.1,0l0.3-4.9c5.1-4.8,8.6-11.3,8.6-11.3l-0.5,12.1l0.3-0.2l-0.1,5.9
			C524,252.8,520.9,252.3,517.7,251.7z M511.5,249.5C511.5,249.5,511.5,249.5,511.5,249.5C511.5,249.5,511.5,249.5,511.5,249.5z
			 M511.5,249.6C511.5,249.6,511.4,249.7,511.5,249.6C511.4,249.7,511.5,249.6,511.5,249.6z M511.5,249.8
			C511.5,249.8,511.5,249.8,511.5,249.8C511.5,249.8,511.5,249.8,511.5,249.8z M511.6,249.9C511.6,249.9,511.7,250,511.6,249.9
			C511.7,250,511.6,249.9,511.6,249.9z M515.4,251.2c-0.1,0-0.2,0-0.3-0.1C515.2,251.1,515.3,251.2,515.4,251.2z M514.8,251.1
			c-0.1,0-0.2,0-0.3-0.1C514.6,251,514.7,251,514.8,251.1z M514.2,250.9c-0.1,0-0.2,0-0.2-0.1C514.1,250.9,514.2,250.9,514.2,250.9z
			 M513.6,250.7c-0.1,0-0.1,0-0.2-0.1C513.4,250.7,513.5,250.7,513.6,250.7z M513.1,250.6c-0.1,0-0.1,0-0.2-0.1
			C513,250.5,513,250.6,513.1,250.6z M512.7,250.4c0,0-0.1,0-0.1-0.1C512.6,250.4,512.6,250.4,512.7,250.4z M512.2,250.3
			C512.2,250.2,512.1,250.2,512.2,250.3C512.1,250.2,512.2,250.2,512.2,250.3z M511.9,250.1C511.9,250.1,511.9,250.1,511.9,250.1
			C511.9,250.1,511.9,250.1,511.9,250.1z"/>
		<g>
			<path class="st5" d="M525.3,259.2l-5.2,4.2c2.7,0.5,5.4,0.9,5.4,0.9L525.3,259.2z"/>
		</g>
		<g>
			
				<rect x="469.3" y="250.6" transform="matrix(0.9449 0.3274 -0.3274 0.9449 133.3162 -158.7238)" class="st4" width="137.8" height="132.2"/>
			
				<rect x="482.2" y="260.4" transform="matrix(0.9449 0.3274 -0.3274 0.9449 130.7048 -159.8703)" class="st11" width="116" height="95.9"/>
			<polygon class="st6" points="503.8,248.8 609.6,285.5 610.8,282 501.1,244.1 469.7,334.6 473.6,336 			"/>
			<g>
				<polygon class="st7" points="469.7,334.6 515.8,303.5 523.4,335 569.4,293.7 575.9,333.6 599.6,314.2 579.4,372.6 				"/>
				
					<ellipse transform="matrix(0.9023 -0.431 0.431 0.9023 -69.7698 250.0051)" class="st7" cx="516.8" cy="279" rx="13.9" ry="13.9"/>
				<path class="st7" d="M571.6,287.1c-0.1-2.3-1.6-4.4-3.9-5.2c-0.8-0.3-1.7-0.4-2.5-0.3c-0.1-3.6-2.4-6.9-6-8.1
					c-3.1-1.1-6.3-0.4-8.6,1.6c-0.7-0.7-1.6-1.3-2.6-1.6c-3.1-1.1-6.4,0.1-8.2,2.7L571.6,287.1z"/>
				<path class="st7" d="M597.4,305.2c-0.1-1.3-0.9-2.5-2.2-3c-0.5-0.2-1-0.2-1.4-0.2c-0.1-2-1.4-3.9-3.4-4.6
					c-1.7-0.6-3.6-0.2-4.9,0.9c-0.4-0.4-0.9-0.7-1.5-0.9c-1.8-0.6-3.7,0.1-4.7,1.5L597.4,305.2z"/>
				<path class="st7" d="M541.9,307.7c-0.1-1.3-0.9-2.5-2.2-3c-0.5-0.2-1-0.2-1.4-0.2c-0.1-2-1.4-3.9-3.4-4.6
					c-1.7-0.6-3.6-0.2-4.9,0.9c-0.4-0.4-0.9-0.7-1.5-0.9c-1.8-0.6-3.7,0.1-4.7,1.5L541.9,307.7z"/>
			</g>
		</g>
		<g>
			
				<rect x="70.5" y="246.3" transform="matrix(0.9971 -7.545100e-02 7.545100e-02 0.9971 -23.1773 11.4071)" class="st4" width="137.8" height="132.2"/>
			
				<rect x="80" y="256" transform="matrix(0.9971 -7.545094e-02 7.545094e-02 0.9971 -22.5416 11.2784)" class="st12" width="116" height="95.9"/>
			<polygon class="st6" points="80.9,263.9 192.5,255.5 192.2,251.8 76.5,260.6 83.8,356.1 87.8,355.8 			"/>
			<g>
				<polygon class="st7" points="83.8,356.1 113.6,309.2 133.1,335.2 158.9,279 180.8,313 194.8,285.7 199.5,347.4 				"/>
				
					<ellipse transform="matrix(0.8669 -0.4986 0.4986 0.8669 -128.8105 90.3714)" class="st7" cx="104.8" cy="286.4" rx="13.9" ry="13.9"/>
				<path class="st7" d="M158.3,272.1c-1-2.1-3.2-3.4-5.7-3.2c-0.9,0.1-1.7,0.3-2.4,0.7c-1.5-3.2-4.9-5.4-8.7-5.1
					c-3.2,0.2-5.9,2.2-7.3,4.9c-0.9-0.4-2-0.5-3.1-0.4c-3.3,0.2-5.8,2.6-6.4,5.7L158.3,272.1z"/>
				<path class="st7" d="M189.2,278.4c-0.6-1.2-1.8-2-3.2-1.9c-0.5,0-1,0.2-1.4,0.4c-0.9-1.8-2.8-3.1-5-2.9
					c-1.8,0.1-3.4,1.2-4.2,2.8c-0.5-0.2-1.1-0.3-1.7-0.3c-1.9,0.1-3.3,1.5-3.7,3.3L189.2,278.4z"/>
				<path class="st7" d="M139.3,302.8c-0.6-1.2-1.8-2-3.2-1.9c-0.5,0-1,0.2-1.4,0.4c-0.9-1.8-2.8-3.1-5-2.9
					c-1.8,0.1-3.4,1.2-4.2,2.8c-0.5-0.2-1.1-0.3-1.7-0.3c-1.9,0.1-3.3,1.5-3.7,3.3L139.3,302.8z"/>
			</g>
		</g>
		<g>
			<path class="st13" d="M490.5,371.6h-247c-4,0-7.2-3.2-7.2-7.2v-166c0-4,3.2-7.2,7.2-7.2h247c4,0,7.2,3.2,7.2,7.2v166
				C497.7,368.4,494.5,371.6,490.5,371.6z"/>
			<polygon class="st14" points="244.3,352.6 244.3,201.6 489.8,199.2 489.8,352.6 			"/>
			<polygon class="st4" points="566.9,411.5 164.9,411.5 236.4,364.5 497.7,364.5 			"/>
			<polygon class="st15" points="566.9,411.5 164.9,411.5 236.4,364.5 497.7,364.5 			"/>
			<path class="st13" d="M557.4,421.1H174.5c-5.3,0-9.7-4.3-9.7-9.7l0,0h402.2l0,0C567.1,416.8,562.8,421.1,557.4,421.1z"/>
			<g>
				<g>
					<path class="st13" d="M292,376.8c-14.8,0-29.6,0-44.4-0.1c-1.9,0-2.6-0.5-1.7-1.2c2-1.5,3-2.3,5.3-3.8c0.9-0.6,2.9-1.2,4.6-1.2
						c14.3,0,28.5,0,42.8,0c3.1,0,5.1,0.5,4.4,1.2c-1.6,1.5-2.4,2.3-4,3.9C298.3,376.3,295.2,376.8,292,376.8z"/>
					<path class="st13" d="M325.8,384.7c-16.8,0-33.6-0.1-50.5-0.1c-3.1,0-5.1-0.6-4.4-1.2c1.6-1.6,2.4-2.4,4-3.9
						c0.7-0.7,3.7-1.2,6.8-1.2c16.5,0,33.1,0.1,49.6,0.1c2.6,0,4.2,0.5,3.6,1.2c-1.3,1.6-2,2.4-3.3,3.9
						C331.1,384.2,328.5,384.7,325.8,384.7z"/>
					<path class="st13" d="M255.4,384.6c-8.3,0-12.2,0-18.4,0c-1.5,0-2.1-0.4-1.5-0.9c2.4-1.9,3.5-2.8,5.8-4.6
						c0.6-0.5,2-0.8,3.4-0.8c5.6,0,9.3,0,17.4,0c1.9,0,3.1,0.4,2.7,0.9c-1.9,1.8-2.9,2.8-4.9,4.6
						C259.5,384.2,257.4,384.6,255.4,384.6z"/>
					<path class="st13" d="M497.1,384.8c-5.7,0-8.7,0-14.7,0c-1.4,0-3.1-0.4-3.7-0.8c-2.4-1.8-3.5-2.8-5.8-4.6
						c-0.6-0.5,0-0.9,1.3-0.8c5.6,0,8.3,0,13.5,0c1.2,0,2.8,0.4,3.5,0.9c2.8,1.8,4.1,2.8,7,4.6C499,384.4,498.5,384.8,497.1,384.8z"
						/>
					<path class="st13" d="M375.9,384.8c-10.6,0-21.2,0-31.8,0c-1.9,0-3.3-0.6-2.8-1.2c1.2-1.6,1.7-2.4,2.9-3.9
						c0.5-0.7,2.5-1.2,4.2-1.2c9.4,0,18.8,0,28.2,0c1.7,0,3.1,0.5,3.1,1.2c-0.1,1.6-0.1,2.4-0.2,3.9
						C379.4,384.2,377.8,384.8,375.9,384.8z"/>
					<path class="st13" d="M422.7,384.8c-10.6,0-21.2,0-31.8,0c-1.9,0-3.6-0.5-3.6-1.2c-0.1-1.6-0.2-2.4-0.4-3.9
						c-0.1-0.7,1.3-1.2,3-1.2c9.4,0,18.8,0,28.2,0c1.7,0,3.6,0.5,4.1,1.2c1.2,1.6,1.8,2.3,3,3.9
						C425.8,384.2,424.6,384.8,422.7,384.8z"/>
					<path class="st13" d="M470.5,384.8c-11.1,0-22.2,0-33.3,0c-2,0-4.1-0.5-4.7-1.2c-1.4-1.6-2-2.3-3.4-3.9
						c-0.6-0.7,0.5-1.2,2.3-1.2c10.5,0,21,0,31.5,0c1.9,0,4.1,0.5,4.9,1.2c1.9,1.6,2.8,2.3,4.7,3.9
						C473.5,384.3,472.5,384.8,470.5,384.8z"/>
					<path class="st13" d="M318.7,392.6c-17.4,0-34.8,0-52.2,0c-3.2,0-5.1-0.6-4.3-1.2c1.9-1.6,2.9-2.4,4.6-4c0.7-0.7,3.8-1.2,7-1.2
						c16.9,0,33.8,0,50.7,0.1c2.8,0,4.4,0.6,3.8,1.2c-1.3,1.6-2,2.4-3.4,3.9C324.3,392.1,321.6,392.6,318.7,392.6z"/>
					<path class="st13" d="M245.7,392.6c-8.8,0-12.9,0-19.9,0c-1.7,0-2.3-0.4-1.5-0.9c3-1.9,4.4-2.9,6.9-4.8
						c0.7-0.5,2.3-0.9,3.8-0.9c6.3,0,10.2,0,18.7,0c2,0,3.3,0.4,2.7,0.9c-2.1,1.9-3.2,2.8-5.7,4.7
						C250.1,392.2,247.8,392.6,245.7,392.6z"/>
					<path class="st13" d="M510.8,392.6c-6.6,0-9.9,0-16.5,0c-1.6,0-3.5-0.4-4.3-0.9c-3-1.8-4.4-2.8-6.9-4.6c-0.7-0.5,0-0.8,1.4-0.8
						c6.1,0,9.1,0,15,0c1.4,0,3.2,0.4,3.9,0.8c3.1,1.8,4.7,2.7,8.4,4.6C512.8,392.2,512.3,392.6,510.8,392.6z"/>
					<path class="st13" d="M374.9,392.6c-12.1,0-24.2,0-36.3,0c-2.2,0-3.8-0.5-3.3-1.2c1.2-1.6,1.8-2.4,3-3.9
						c0.5-0.7,2.7-1.2,4.7-1.2c10.9,0,21.8,0,32.7,0c2,0,3.6,0.5,3.6,1.2c-0.1,1.6-0.1,2.4-0.2,3.9
						C379,392.1,377.2,392.6,374.9,392.6z"/>
					<path class="st13" d="M428.4,392.6c-12.1,0-24.2,0-36.3,0c-2.2,0-4.1-0.5-4.1-1.2c-0.1-1.6-0.2-2.4-0.4-3.9
						c-0.1-0.7,1.5-1.2,3.5-1.2c10.9,0,21.8,0,32.7,0c2,0,4,0.5,4.5,1.2c1.2,1.6,1.9,2.3,3.1,3.9C432,392.1,430.6,392.6,428.4,392.6
						z"/>
					<path class="st13" d="M481.1,392.6c-12.1,0-24.2,0-36.3,0c-2.2,0-4.5-0.5-5.2-1.2c-1.5-1.6-2.2-2.3-3.6-3.9
						c-0.6-0.7,0.6-1.2,2.6-1.2c11.2,0,22.5,0,33.7,0c2.1,0,4.4,0.5,5.3,1.2c2.1,1.6,3.2,2.3,5.6,3.9
						C484.3,392.1,483.4,392.6,481.1,392.6z"/>
					<path class="st13" d="M355,376.9c-12.4,0-24.9,0-37.3-0.1c-3,0-5-0.5-4.3-1.2c1.5-1.6,2.3-2.3,3.8-3.9c0.7-0.7,3.7-1.2,6.6-1.2
						c11.6,0,23.3,0,34.9,0c1.4,0,2.3,0.5,2,1.2c-0.8,1.6-1.2,2.4-2,3.9C358.3,376.4,356.6,376.9,355,376.9z"/>
					<path class="st13" d="M396,376.9c-10.9,0-16.4,0-27.3,0c-1.7,0-2.8-0.5-2.6-1.2c0.5-1.6,0.8-2.4,1.4-3.9c0.2-0.7,1.6-1.2,3-1.2
						c9.5,0,14.2,0,23.7,0c1.4,0,2.8,0.5,3,1.2c0.5,1.6,0.8,2.4,1.4,3.9C398.8,376.4,397.7,376.9,396,376.9z"/>
					<path class="st13" d="M438.7,376.9c-9.7,0-19.3,0-29,0c-1.7,0-3.3-0.5-3.6-1.2c-0.8-1.6-1.2-2.4-2-3.9c-0.3-0.7,0.6-1.2,2-1.2
						c9.5,0,14.6,0,26.1,0c1.8,0,3.8,0.5,4.6,1.2c1.7,1.6,2.5,2.4,4.2,3.9C441.6,376.4,440.6,376.9,438.7,376.9z"/>
					<path class="st13" d="M484.7,377c-10.1,0-20.1,0-30.2,0c-1.9,0-4.1-0.5-4.8-1.2c-1.7-1.6-2.6-2.4-4.5-3.9
						c-0.8-0.7,0-1.2,1.8-1.2c11.8,0,17.9,0,27.8,0c1.5,0,3.6,0.6,4.8,1.2c2.7,1.6,3.9,2.4,6.3,4C486.9,376.5,486.4,377,484.7,377z"
						/>
				</g>
			</g>
		</g>
		<path class="st16" d="M236.4,364.5v-166c0-4,3.2-7.2,7.2-7.2h247C494.5,191.3,236.4,368.4,236.4,364.5z"/>
		<g>
			<path class="st5" d="M140.5,210.4c13.1,4.9,34.2,5.5,34.2,5.5l17.4-18.7l11.3,9.1c0,0-10.5,19.2-19.1,25.9
				c-5.7,4.4-29.5,8.1-40.7,5.5C134.3,235.4,130.8,206.8,140.5,210.4z"/>
			<path class="st17" d="M140.5,210.4c13.1,4.9,34.2,5.5,34.2,5.5l17.4-18.7l11.3,9.1c0,0-10.5,19.2-19.1,25.9
				c-5.7,4.4-29.5,8.1-40.7,5.5C134.3,235.4,130.8,206.8,140.5,210.4z"/>
		</g>
		<g>
			
				<rect x="206.1" y="127.6" transform="matrix(0.9449 -0.3275 0.3275 0.9449 -48.2697 100.7256)" class="st4" width="137.8" height="132.2"/>
			
				<rect x="213.4" y="137.9" transform="matrix(0.9449 -0.3275 0.3275 0.9449 -45.8942 99.1455)" class="st18" width="116" height="95.9"/>
			<polygon class="st6" points="206,161.7 311.8,125 310.6,121.6 201,159.6 232.3,250.1 236.2,248.8 			"/>
			<g>
				<polygon class="st7" points="232.3,250.1 249.3,197.1 274.7,217.3 285.3,156.3 315.1,183.6 321.7,153.7 342,212.1 				"/>
				
					<ellipse transform="matrix(0.886 -0.4638 0.4638 0.886 -55.4401 129.1473)" class="st7" cx="234.9" cy="177.3" rx="13.9" ry="13.9"/>
				<path class="st7" d="M282.9,149.8c-1.5-1.7-4-2.5-6.3-1.7c-0.8,0.3-1.6,0.8-2.1,1.3c-2.3-2.7-6.1-3.9-9.7-2.7
					c-3.1,1.1-5.2,3.6-5.8,6.6c-1-0.1-2,0-3.1,0.3c-3.1,1.1-5,4-4.8,7.2L282.9,149.8z"/>
				<path class="st7" d="M314.4,148c-0.9-1-2.3-1.4-3.6-1c-0.5,0.2-0.9,0.4-1.2,0.8c-1.3-1.6-3.5-2.2-5.6-1.5
					c-1.7,0.6-2.9,2.1-3.3,3.7c-0.6-0.1-1.2,0-1.8,0.2c-1.8,0.6-2.8,2.3-2.7,4.1L314.4,148z"/>
				<path class="st7" d="M272.4,184.4c-0.9-1-2.3-1.4-3.6-1c-0.5,0.2-0.9,0.4-1.2,0.8c-1.3-1.6-3.5-2.2-5.6-1.5
					c-1.7,0.6-2.9,2.1-3.3,3.7c-0.6-0.1-1.2,0-1.8,0.2c-1.8,0.6-2.8,2.3-2.7,4.1L272.4,184.4z"/>
			</g>
		</g>
		<path class="st19" d="M194.2,198.8c1.3-1.5,1.8-3.5,2.3-4.7c0.9-2.6,0.7-5.7,3.2-10.4c0.5-1,1.4-1.4,1.7,0.9
			c0.2,2.2-1,4.1-0.6,5.7c0.7,2.3,6.8,9.7,4.1,12.1c-1.4,1.2-2.3,1-3.6,2"/>
		<g>
			<path class="st9" d="M565,263.9c-0.6,6.2-1.7,10.8-2.7,11.2c-1.6,0.7-4,4.4-4.9,6.1c-0.3,0.5-0.9,1.6-1.9,2.3
				c-0.9,0.6-1.2,1.4-0.1,1.2c1.1-0.2,1.6-0.6,2.8-2c0.6-0.7,0.8-0.6,1-0.5c0.3,0.2-0.5,1.9-1.8,3.8c-1.3,2-2,3.1-2,4
				c0.1,0.7,0.1,1.2,1.1-0.1c0.9-1.2,2.2-4.2,2.9-4.1c0.7,0.1-0.5,2.1-1.4,3.3c-0.8,1.2-2.2,2.2-1.7,2.9c0.4,0.4,1,0.2,2.3-1.2
				c1.2-1.4,2.2-4.6,2.7-4.3c0.5,0.2-1.2,3.3-1.7,4c-0.6,0.7-0.3,1.4,0.9,0.4c1.2-1,1.5-2.1,2.2-3.6c0.7-1.5,0.8-2.4,1.2-2.3
				c0.4,0,0.3,1-0.5,2.3c-0.8,1.3-1.6,2.4-0.8,2.3c0.8-0.1,2.1-1.4,3.2-3.9c1.1-2.5,2.6-5.7,1.9-8c0,0,1.1-1.6,5.9-8.8
				C584.9,251.8,565.1,262,565,263.9z"/>
			<path class="st10" d="M554.6,213.1l-3.7-7.2c0,0,9.2-1.1,18.5,10.3c7.4,9,15.3,25.3,15,29.4c-0.6,8.9-3.6,21.6-14.9,32.6
				l-8.8-3.4l7.6-28.7c0,0-15.7-15.2-17.5-20.2C549.3,221.3,554.6,213.1,554.6,213.1z"/>
		</g>
		<g>
			<g>
				<path class="st19" d="M187.8,232.7c-10.1,1.7-2-5.1,0.2-6.1c7.3-3.4,12.3-6.8,12.4-8.2c0.2-2.3,2.1-6.9,4-9.3
					c2.1-2.6,2.2-2.2,2.7,0.1c0.4,1.6,0.5,1.5,0.7,1.7c0.4,0.3,0.8-0.1,2.6-2.5c1.8-2.5,4.2-4.7,5.3-4.9c0.8-0.2,1.5-0.4,0.4,1.3
					c-1.1,1.7-4.1,4.5-3.7,5.3c0.4,0.8,2.4-1.6,3.4-3.1c1-1.5,1.7-3.7,2.7-3.3c0.7,0.3,0.7,1.2-0.5,3.3c-1.2,2.1-4.5,4.7-4.1,5.2
					c0.5,0.5,3.5-2.9,4.1-3.8c0.6-1,1.6-1,0.9,1c-0.7,1.9-1.9,2.7-3.4,4.3c-1.5,1.5-2.5,2-2.3,2.5c0.2,0.5,1.4,0,2.6-1.6
					c1.2-1.6,2.2-3,2.5-2c0.3,1-0.8,3.2-3.3,5.6c-2.5,2.4-5.7,5.6-8.9,5.8c0,0-1.4,2.1-8,10.9C182.1,255.9,188.8,237.4,187.8,232.7
					L187.8,232.7z"/>
			</g>
			<g>
				<path class="st8" d="M195.2,364l-2.1,21.6c0,0,25.2,7.7,22.7,12.2c-2.5,4.5-36.3-0.8-37.5-4.1s2.7-12.5,2.7-12.5l8-20.5
					L195.2,364z"/>
				<path class="st8" d="M135.1,390l-3.4,17.7c0,0,28.9,7.4,25.2,11.1c-3.7,3.7-37.9,3.3-40.4-0.8c-2.5-4.1,0-10.3,0-10.3l3.7-22.1
					L135.1,390z"/>
				<path class="st14" d="M167.3,271.2c0,0,37.4,29.1,44.5,41.8c7.1,12.6-18.7,72.6-18.7,72.6s-12.2-1.2-12.1-4.4
					c0.7-19-9.3-41.8,9.1-59.4c0,0-27.8-3.8-38.8-15.1c-11-11.3-23.1-27.2-11.5-41C151.3,252,167.3,271.2,167.3,271.2z"/>
				<path class="st20" d="M167.3,271.2c0,0,37.4,29.1,44.5,41.8c7.1,12.6-18.7,72.6-18.7,72.6s-12.2-1.2-12.1-4.4
					c0.7-19-9.3-41.8,9.1-59.4c0,0-27.8-3.8-38.8-15.1c-11-11.3-23.1-27.2-11.5-41C151.3,252,167.3,271.2,167.3,271.2z"/>
				<path class="st20" d="M198.1,320.4c-2.5-4.1-8.1-3.2-10.3-5.4c-1.5-1.5,4.7-0.4,5.1-1.5c0.4-1.1-6.3-2.3-16.5-8.9
					c-18.7-12.2-18.7-26.4-18.7-26.4l-9,15.7l-2,7.8c1.5,1.8,3.1,3.5,4.7,5.1c11,11.3,38.8,15.1,38.8,15.1
					c-14.5,13.8-11.4,30.9-9.8,46.8c0,0,0,0,0,0c0.1-27.9,4.5-28.2,8.2-35.6C192.2,325.5,199.6,323,198.1,320.4z"/>
				<path class="st14" d="M162.2,281.9l-7.8,59.4l-19.3,66.4h-18.7c0,0,0-44.5,5.4-57.7c5.4-13.2,4.5-22.3,3.7-34.6
					c-0.8-12.4-5.4-50.8,11.1-44.6C153.1,277,162.2,281.9,162.2,281.9z"/>
				<path class="st20" d="M133.9,287.5c0.7-6.9,2.1-13,5.1-15.9c-0.8-0.3-1.6-0.6-2.4-0.9c-16.5-6.2-12,32.2-11.1,44.6
					c0.8,12.4,1.6,21.4-3.7,34.6c-5.4,13.2-5.4,57.7-5.4,57.7h18.7l0.1-0.4h0c-7.9-0.3-14-7.2-13.4-15.1c1.1-14.2,3.2-34.8,6.9-43
					c5.2-11.3,5.5-19.7,5.3-29.8c2.9,1.2,5.7,1,3.3-1.3c-0.4-0.4-0.8-0.9-1.2-1.5c-1.6-2.5-2.4-5.5-2.5-8.5c0-0.2,0-0.4,0-0.7
					c1.3,2.3,3.4,4.7,8,4.7c1.7,0-2.5-4-6.5-15.3C134,293.9,133.6,290.7,133.9,287.5z"/>
				<path class="st19" d="M153.6,202.8c0,0-3.2,3.7,1.8,13.4c5.7,11.2-16.4,3.4-16.4,3.4l-2.2-13.1c0,0,4.7-1.4,1.1-14.2
					C135.3,183.5,153.6,202.8,153.6,202.8z"/>
				<path class="st21" d="M153.6,202.8c0,0-3.2,3.7,1.8,13.4c5.7,11.2-16.4,3.4-16.4,3.4l-2.2-13.1c0,0,4.7-1.4,1.1-14.2
					C135.3,183.5,153.6,202.8,153.6,202.8z"/>
				<path class="st5" d="M137,205.6c0,0,9.1,9.6,18.1,5.9c0,0,10.7,10.5,16.5,37.8c3.3,15.6,6.2,24.3,1.4,28.7
					c-4.7,4.3-43.5,8.4-51.3,0c0,0,8.7-15,7-26.2C127.1,240.7,126.3,213.6,137,205.6z"/>
				<path class="st22" d="M148.7,220.6l-1-5.2l0,0c2.6,0.5,5,1.6,7,3.3l8.3,7L148.7,220.6z"/>
				<path class="st22" d="M142.3,236.4l-3.1,4.6c0,0,21.3,19.1,35.1,21.1l-3.7-17.8L142.3,236.4z"/>
				<path class="st5" d="M146.5,214.5c10.3,9.5,29.6,18,29.6,18l20.4-14.4l10.3,9.7c0,0-16.8,22.3-27.2,25.3
					c-6.9,2-31-5.5-40.4-12.1C131.3,235.3,138.9,207.5,146.5,214.5z"/>
				<g>
					<path class="st19" d="M144.6,174.2c-6.1,3.8-8.8,18.4-2.3,25.3c6,6.5,9.1,8.2,16.4,6.2c2.8-0.8,7.4-8.3,6.8-15.6
						c1.3-0.8,1.5-1.6,1.6-2.4c0.1-0.5-2.1-0.8-4.1-4.1c0-0.2,0-0.3,0-0.5C160.9,173,151.2,170.1,144.6,174.2z"/>
					<path class="st21" d="M144.6,174.2c1.8-1.1,7.1-3.7,9.1-4c-0.8,0.4-3.2,2.4-4,3c-5.7,4.4-3.5,19.4,0.2,25.6
						c3,5,5.3,6.9,8.7,6.9c-8.6,2.8-12.8-1.6-18.2-9.1C134.9,189,138.4,178,144.6,174.2z"/>
				</g>
				<path class="st8" d="M143.8,191.6c0,0,0.1-11.6,8-12.1c7.1-0.5,13-5.3,12.8-10.2c-0.2-4.9-1.1-6.2-1.1-6.2s-1.3,4.2-3.1,4.9
					c0,0,1.2-2.9,0-3.9c0,0-1.9,3.4-3.6,3.7c0,0,0.7-1.1,0.3-1.9c0,0-2,2.3-3.7,2.5c-1.7,0.2-6.1-1.4-12.9,1
					c-5.1,1.8-9.3,7.8-9.7,14.6c-0.7,10.8,4.4,15,4.4,15S142.7,201.3,143.8,191.6z"/>
				<path class="st8" d="M143.4,183.9l0.8,5.7c0,0-1.4,15.7-11,15.4c0,0,3.4-6.6,2-11.1c-1.5-4.5-1-18.5,6.4-20.5
					C148.9,171.5,143.4,183.9,143.4,183.9z"/>
				<path class="st8" d="M139.3,184.7l0.4,4.4c0,0-1.7,12-9.1,11.4c0,0,1.6-6.2,0.7-9.7c-0.9-3.5,1.2-13.1,7-14.3
					C144,175.3,139.3,184.7,139.3,184.7z"/>
				<path class="st19" d="M145.3,185.7c0,0-1.2-3.4-3.7-2.6c-2.8,1-4,9.4,3.2,8.9"/>
				<path class="st21" d="M145.3,185.7c0,0-1.2-3.4-3.7-2.6c-2.8,1-4,9.4,3.2,8.9"/>
			</g>
		</g>
		<g>
			<path class="st23" d="M463.1,230.2c-4.1,0-8.2,0.6-12,1.6c-10.8-19.2-30.9-32.1-53.8-32.1c-25.1,0-46.7,15.5-56.6,37.8
				c-7.2-4.6-15.7-7.3-24.8-7.3c-21.2,0-39.2,14.4-45.4,34.4c-3.7-1.5-7.6-2.3-11.8-2.3c-17.9,0-32.4,15.1-32.4,33.8
				s14.5,33.8,32.4,33.8c10.3,0,44.9,0,57.2,0c15.2,0,64.3,0,81.4,0c13.1,0,54.2,0,65.8,0c26.4,0,47.7-22.3,47.7-49.8
				C510.8,252.5,489.5,230.2,463.1,230.2z"/>
			<path class="st24" d="M493.2,241.3c1.7,4.4,2.9,9.2,3.3,14.1c2.7,29.9-19.6,54.5-48.4,54.5h-64.9c-17.2,0-66.3,0-81.4,0
				c-12.3,0-46.9,0-57.2,0c-6.3,0-12.2-1.9-17.1-5.1c3.7,14.4,16.3,25,31.3,25c10.3,0,44.9,0,57.2,0c15.2,0,64.3,0,81.4,0h65.1
				c26.3,0,48.1-21.9,48.4-49.3C511,264.7,504.1,250.6,493.2,241.3z"/>
			<g class="st25">
				<path class="st3" d="M244.2,284c1.8-2,4.1-3.6,6.5-4.9c2.4-1.3,5.1-2.3,7.8-2.9c2.8-0.6,5.6-0.7,8.5-0.5
					c2.9,0.3,5.7,0.9,8.4,1.9l-3.4,2c0.1-1.2,0.2-2.2,0.4-3.2c0.2-1,0.4-2.1,0.6-3.1c0.5-2,1.1-4,1.9-6c1.5-3.9,3.5-7.7,6.1-11.1
					c2.5-3.4,5.7-6.5,9.1-9c3.5-2.5,7.3-4.6,11.3-6.1c4-1.5,8.2-2.5,12.5-3c4.4-0.4,8.9-0.2,13.2,0.9c4.3,1.1,8.5,2.9,12.1,5.2
					c3.7,2.3,7,5,10,7.8l-8.1,2.6c0.2-0.9,0.4-1.5,0.5-2.2c0.2-0.7,0.4-1.4,0.6-2.1c0.4-1.4,0.9-2.7,1.4-4c1-2.6,2.1-5.2,3.4-7.7
					c2.6-5,5.8-9.8,9.7-14c3.9-4.2,8.5-7.9,13.6-10.6c5.1-2.7,10.7-4.4,16.3-5.2c0.7-0.1,1.4-0.2,2.1-0.3l2.1-0.2
					c1.4-0.1,2.8-0.1,4.1-0.2c2.8,0,5.5,0.1,8.3,0.4c5.5,0.6,11,2,16,4.3c5,2.4,9.7,5.6,13.3,9.7c1.8,2,3.4,4.3,4.7,6.6
					c1.3,2.4,2.3,4.9,3,7.4c-2.4-4.7-5.7-8.8-9.6-12.1c-3.9-3.2-8.4-5.7-13.2-7.2c-4.7-1.6-9.7-2.3-14.7-2.4c-2.5,0-5,0-7.5,0.3
					c-1.2,0.1-2.5,0.3-3.7,0.4l-1.9,0.3c-0.6,0.1-1.2,0.2-1.8,0.3c-4.8,1-9.3,2.7-13.4,5.1c-4.1,2.5-7.8,5.6-10.9,9.2
					c-3.1,3.6-5.8,7.8-8,12.2c-1.1,2.2-2.1,4.5-2.9,6.8c-0.4,1.2-0.8,2.3-1.2,3.5c-0.2,0.6-0.3,1.2-0.5,1.7
					c-0.1,0.5-0.3,1.2-0.4,1.6l0,0.1c-0.6,2.6-3.1,4.3-5.8,3.7c-0.9-0.2-1.7-0.6-2.3-1.2c-5.3-5.1-11.3-9.2-17.8-11
					c-3.3-0.9-6.7-1.2-10.2-1c-3.5,0.2-7,0.9-10.4,2c-3.4,1.1-6.7,2.6-9.7,4.5c-1.5,1-2.9,2-4.3,3.2c-1.4,1.2-2.6,2.4-3.8,3.8
					c-1.2,1.4-2.3,2.8-3.3,4.3c-1,1.5-1.9,3.1-2.8,4.7c-0.8,1.6-1.5,3.3-2.2,5.1c-0.3,0.9-0.6,1.8-0.8,2.6c-0.2,0.9-0.5,1.8-0.6,2.6
					l-0.1,0.3c-0.2,1.3-1.4,2.1-2.7,1.9c-0.2,0-0.5-0.1-0.6-0.2c-2.2-1.1-4.6-2-7-2.6c-2.4-0.5-5-0.7-7.5-0.6
					c-2.5,0.1-5.1,0.7-7.6,1.5C248.8,281.3,246.4,282.5,244.2,284z"/>
			</g>
		</g>
		<path class="st4" d="M409.5,277.8l-32.3-27.7c-1.3-1.2-3.3-1.2-4.7,0l-32,27.7c-2.5,2.2-1,6.3,2.3,6.3h5.7c2,0,3.6,1.6,3.6,3.6
			v56.4c0,2,1.6,3.6,3.6,3.6h36.9c2,0,3.6-1.6,3.6-3.6v-56.4c0-2,1.6-3.6,3.6-3.6h7.3C410.5,284.1,412,280,409.5,277.8z"/>
		<path class="st10" d="M559.4,229.7l5.1,12.5l0.7,14.1l-4.4-1.7l0.2-6.8c0.2-3.2,0.1-6.4-0.4-9.5L559.4,229.7z"/>
		<path class="st10" d="M515.4,238.9c2.3-0.3,6.3-5.4,8.7-12.1l0.2,8.2c0,0-2.9,4.3-3.8,5.8L515.4,238.9z"/>
		<path class="st9" d="M527.1,184.4c-0.1,0.2-0.1,0.5-0.2,0.7c-1,4.4,0.6,8.5,2.6,12.3c5,9.9,20.8-0.9,22.5-9.3
			c1.8-9.4-1.7-17.4-9.2-19.7c-4.7-1.4-10.4-1.4-13.8,6.3c-0.7,1.6-0.4,3.4-0.7,5.2C527.9,181.4,527.5,182.9,527.1,184.4z"/>
		<path class="st26" d="M542.7,168.4c-1.8-0.6-3.9-0.9-5.8-0.6c0.2,0,0.3,0.1,0.5,0.1c7.5,2.3,9.7,8.1,7.8,17.5
			c-1,5.4-6.7,16-12.6,15.2c6.6,3.3,18-5.5,19.4-12.5C553.7,178.7,550.2,170.7,542.7,168.4z"/>
		<path class="st8" d="M543.2,165.2c-1.1,0-2.2,0.1-3.3,0.3c-0.6,0.1-1.8,0.2-3.6-0.1c-2.8-0.4-8.6-1.5-9.8,2.8
			c-1.6,5.6,3.7,7.8,12,6.6c10.4-1.5,8.9,7.5,7.4,11.8c-1.5,4.3-1.5,16.1,5,19.4c0,0,9.8,0.9,15.7,7.2c0,0-7.2-14.2-6.3-22.4
			C561.3,181.8,559.6,165.2,543.2,165.2z"/>
	</g>
</g>
<g id="DESIGNED_BY_FREEPIK">
	<g>
		<g id="XMLID_29_">
			<g id="XMLID_48_">
				<path id="XMLID_56_" class="st27" d="M385.1,472.1c-0.4,0.4-0.8,0.9-1.1,1.5l-0.5-0.2c-0.1-0.3-0.3-0.5-0.7-0.5
					c-0.3,0-0.6,0.3-0.5,0.7c0,0.3,0.3,0.6,0.7,0.5c0.1,0,0.1,0,0.2-0.1l0.5,0.2c-0.3,0.6-0.4,1.1-0.5,1.7l0.7,0.1
					c0.2-1.3,0.8-2.5,1.8-3.5L385.1,472.1z"/>
				<path id="XMLID_55_" class="st27" d="M390.6,469.8c-0.2,0-0.3,0-0.5,0l-0.1-0.6c0.2-0.1,0.3-0.4,0.3-0.6c0-0.4-0.4-0.7-0.8-0.6
					c-0.4,0-0.7,0.4-0.6,0.8c0,0.3,0.2,0.5,0.4,0.6l0.1,0.6c-0.7,0.1-1.4,0.3-2.1,0.6l0.3,0.7c0.9-0.4,1.9-0.7,3-0.7
					c0.5,0,1,0.1,1.5,0.2l0.2-0.7C391.7,469.9,391.1,469.8,390.6,469.8z"/>
				<path id="XMLID_54_" class="st27" d="M397.2,472.4c0.3,0,0.6-0.3,0.5-0.7c0-0.3-0.3-0.6-0.7-0.5c-0.3,0-0.5,0.3-0.5,0.6
					l-0.4,0.4c-0.4-0.4-0.9-0.8-1.4-1.1l-0.4,0.6c1.1,0.7,2,1.7,2.6,2.9l0.7-0.3c-0.3-0.6-0.6-1.1-0.9-1.5l0.4-0.4
					C397.1,472.4,397.1,472.4,397.2,472.4z"/>
				<path id="XMLID_53_" class="st27" d="M390,480c-0.4,0-0.8,0-1.2,0c-0.9,0-1.7-0.1-2.5-0.2c-0.4-0.1-0.8-0.2-1.3-0.3
					c1,1.9,3.1,3.1,5.4,3.1c2.9,0,5.3-1.9,5.9-4.5c-0.7,0.4-1.5,0.8-2.5,1.1C392.8,479.7,391.5,479.9,390,480z"/>
				<path id="XMLID_49_" class="st27" d="M390.6,471.3c-3.4,0-6.1,2.7-6.1,5.9c0,0.4,0,0.8,0.1,1.3c0.7,0.5,2.7,0.9,5.3,0.7
					c2.9-0.2,5.3-1,6.7-2.2c0-0.2,0-0.4,0-0.6C396.2,473.6,393.7,471.3,390.6,471.3z M388.4,477.9c-1,0-1.8-0.8-1.8-1.8
					c0-1,0.8-1.8,1.8-1.8c1,0,1.8,0.8,1.8,1.8C390.3,477,389.5,477.9,388.4,477.9z M393.2,476.9c-0.8,0-1.4-0.6-1.4-1.4
					c0-0.8,0.6-1.4,1.4-1.4c0.8,0,1.4,0.6,1.4,1.4C394.5,476.3,393.9,476.9,393.2,476.9z"/>
			</g>
			<path id="XMLID_46_" class="st27" d="M406.6,473.2c-0.3-0.1-0.8-0.3-1.4-0.2c-0.6,0.1-0.8,0.3-0.8,1v0.9h2.2v1.7h-2.2v5.5h-1.9
				v-5.5h-1.3v-1.7h1.3V474c0-1.7,0.9-2.8,2.6-2.8c0.6,0,1.2,0.1,1.6,0.3L406.6,473.2z"/>
			<path id="XMLID_44_" class="st27" d="M411.3,476.5c-0.2,0-0.4,0-0.5,0c-0.9,0-1.5,0.5-1.5,1.6v3.9h-1.9v-7.2h1.9v0.8
				c0.5-0.7,1.1-1,2-1c0.4,0,0.8,0.1,1.1,0.3L411.3,476.5z"/>
			<path id="XMLID_41_" class="st27" d="M419,478.4c0,0.2,0,0.5,0,0.7h-5.1c0.2,1,0.9,1.5,1.8,1.5c0.6,0,1.3-0.3,1.8-0.7l1.1,1.2
				c-0.8,0.7-1.9,1.1-3.1,1.1c-2.2,0-3.7-1.5-3.7-3.8c0-2.3,1.5-3.8,3.6-3.8C417.5,474.7,419,476.2,419,478.4z M413.9,477.8h3.2
				c-0.2-0.9-0.7-1.4-1.6-1.4C414.6,476.3,414,476.9,413.9,477.8z"/>
			<path id="XMLID_38_" class="st27" d="M426.6,478.4c0,0.2,0,0.5,0,0.7h-5.1c0.2,1,0.9,1.5,1.8,1.5c0.6,0,1.3-0.3,1.8-0.7l1.1,1.2
				c-0.8,0.7-1.9,1.1-3.1,1.1c-2.2,0-3.7-1.5-3.7-3.8c0-2.3,1.5-3.8,3.6-3.8C425.2,474.7,426.6,476.2,426.6,478.4z M421.5,477.8h3.2
				c-0.2-0.9-0.7-1.4-1.6-1.4C422.2,476.3,421.7,476.9,421.5,477.8z"/>
			<path id="XMLID_35_" class="st27" d="M435,478.4c0,2.2-1.5,3.8-3.5,3.8c-1,0-1.6-0.4-2.1-0.9v3.7h-1.9v-10.1h1.9v0.8
				c0.5-0.6,1.2-1,2.1-1C433.5,474.7,435,476.3,435,478.4z M429.3,478.4c0,1.1,0.7,2,1.8,2c1.1,0,1.9-0.9,1.9-2c0-1.1-0.7-2-1.9-2
				C430,476.5,429.3,477.3,429.3,478.4z"/>
			<path id="XMLID_32_" class="st27" d="M438.1,472.5c0,0.7-0.5,1.2-1.2,1.2c-0.7,0-1.2-0.5-1.2-1.2c0-0.7,0.5-1.2,1.2-1.2
				C437.5,471.3,438.1,471.8,438.1,472.5z M437.8,482h-1.9v-7.2h1.9V482z"/>
			<path id="XMLID_30_" class="st27" d="M441,477.4l2.7-2.6h2.4l-3.5,3.4l3.5,3.8h-2.4l-2.7-2.9v2.9h-1.9v-10.7h1.9V477.4z"/>
		</g>
		<g>
			<path class="st27" d="M309.4,482v-1.1c-0.5,0.7-1.4,1.2-2.4,1.2c-1.8,0-3.1-1.4-3.1-3.7c0-2.3,1.3-3.7,3.1-3.7
				c1,0,1.8,0.5,2.4,1.2v-3.8h1.1v9.8H309.4z M309.4,480v-3.2c-0.4-0.6-1.2-1.1-2.1-1.1c-1.4,0-2.3,1.2-2.3,2.7
				c0,1.6,0.8,2.7,2.3,2.7C308.2,481.1,309,480.6,309.4,480z"/>
			<path class="st27" d="M311.9,478.4c0-2.1,1.5-3.7,3.5-3.7c2.1,0,3.4,1.7,3.4,3.8v0.3h-5.7c0.1,1.3,1,2.4,2.5,2.4
				c0.8,0,1.6-0.3,2.2-0.9l0.5,0.7c-0.7,0.7-1.7,1.1-2.8,1.1C313.4,482.1,311.9,480.6,311.9,478.4z M315.4,475.6
				c-1.5,0-2.3,1.3-2.3,2.4h4.6C317.7,476.9,317,475.6,315.4,475.6z"/>
			<path class="st27" d="M319.6,481l0.6-0.8c0.5,0.5,1.4,1,2.3,1c1.1,0,1.7-0.5,1.7-1.2c0-1.7-4.4-0.7-4.4-3.3c0-1.1,1-2,2.6-2
				c1.2,0,2.1,0.5,2.6,1l-0.5,0.8c-0.4-0.5-1.2-0.9-2.1-0.9c-1,0-1.6,0.5-1.6,1.1c0,1.6,4.4,0.5,4.4,3.3c0,1.2-1,2.1-2.8,2.1
				C321.3,482.1,320.3,481.8,319.6,481z"/>
			<path class="st27" d="M326.5,473.1c0-0.4,0.3-0.7,0.7-0.7c0.4,0,0.7,0.3,0.7,0.7c0,0.4-0.3,0.7-0.7,0.7
				C326.8,473.9,326.5,473.5,326.5,473.1z M326.7,482v-7.1h1.1v7.1H326.7z"/>
			<path class="st27" d="M329.6,483.8l0.6-0.8c0.6,0.7,1.3,1,2.3,1c1.2,0,2.3-0.6,2.3-2.1v-1c-0.5,0.7-1.4,1.3-2.4,1.3
				c-1.8,0-3.1-1.4-3.1-3.7c0-2.3,1.3-3.7,3.1-3.7c1,0,1.8,0.5,2.4,1.2v-1.1h1.1v6.9c0,2.3-1.6,3.1-3.4,3.1
				C331.2,484.8,330.4,484.6,329.6,483.8z M334.7,479.9v-3.1c-0.4-0.6-1.2-1.1-2.1-1.1c-1.4,0-2.3,1.1-2.3,2.7
				c0,1.6,0.8,2.7,2.3,2.7C333.5,481.1,334.3,480.5,334.7,479.9z"/>
			<path class="st27" d="M342.4,482v-4.6c0-1.2-0.6-1.6-1.6-1.6c-0.9,0-1.7,0.5-2.1,1.1v5.2h-1.1v-7.1h1.1v1
				c0.5-0.6,1.5-1.2,2.5-1.2c1.5,0,2.3,0.7,2.3,2.3v5H342.4z"/>
			<path class="st27" d="M344.9,478.4c0-2.1,1.5-3.7,3.5-3.7c2.1,0,3.4,1.7,3.4,3.8v0.3h-5.7c0.1,1.3,1,2.4,2.5,2.4
				c0.8,0,1.6-0.3,2.2-0.9l0.5,0.7c-0.7,0.7-1.7,1.1-2.8,1.1C346.4,482.1,344.9,480.6,344.9,478.4z M348.4,475.6
				c-1.5,0-2.3,1.3-2.3,2.4h4.6C350.7,476.9,350,475.6,348.4,475.6z"/>
			<path class="st27" d="M358.4,482v-1.1c-0.5,0.7-1.4,1.2-2.4,1.2c-1.8,0-3.1-1.4-3.1-3.7c0-2.3,1.3-3.7,3.1-3.7
				c1,0,1.8,0.5,2.4,1.2v-3.8h1.1v9.8H358.4z M358.4,480v-3.2c-0.4-0.6-1.2-1.1-2.1-1.1c-1.4,0-2.3,1.2-2.3,2.7
				c0,1.6,0.8,2.7,2.3,2.7C357.1,481.1,358,480.6,358.4,480z"/>
			<path class="st27" d="M364.7,482v-9.8h1.1v3.8c0.6-0.8,1.4-1.2,2.4-1.2c1.8,0,3.1,1.5,3.1,3.7c0,2.3-1.3,3.7-3.1,3.7
				c-1,0-1.9-0.5-2.4-1.2v1.1H364.7z M367.9,481.1c1.4,0,2.3-1.2,2.3-2.7c0-1.6-0.8-2.7-2.3-2.7c-0.9,0-1.7,0.5-2.1,1.1v3.2
				C366.2,480.6,367,481.1,367.9,481.1z"/>
			<path class="st27" d="M372.5,483.7c0.2,0.1,0.4,0.1,0.6,0.1c0.5,0,0.8-0.2,1.1-0.7l0.5-1.1l-3-7.1h1.2l2.4,5.8l2.3-5.8h1.2
				l-3.5,8.5c-0.4,1-1.1,1.4-2.1,1.4c-0.2,0-0.6,0-0.8-0.1L372.5,483.7z"/>
		</g>
	</g>
</g>
</svg>
