<?xml version="1.0" encoding="utf-8"?>
<!-- Generator: Adobe Illustrator 27.0.0, SVG Export Plug-In . SVG Version: 6.00 Build 0)  -->
<svg version="1.1" id="Layer_1" xmlns="http://www.w3.org/2000/svg" xmlns:xlink="http://www.w3.org/1999/xlink" x="0px" y="0px"
	 viewBox="0 0 3250 2000" style="enable-background:new 0 0 3250 2000;" xml:space="preserve">
<style type="text/css">
	.st0{fill:#FFFFFF;}
	.st1{fill:#D7E9FD;}
	.st2{fill:#EF8062;}
	.st3{fill:#331832;}
	.st4{opacity:0.4;fill:#FFFFFF;}
	.st5{fill:#080435;}
	.st6{fill:#764678;}
	.st7{fill:#FFB27D;}
	.st8{fill:#436E8E;}
</style>
<rect x="0" class="st0" width="3250" height="2000"/>
<g>
	<path class="st1" d="M2999.8,458.4v1079.2c0,73.4-29.2,136.7-77.8,187c-113.6,117.6-279.3,134-468.6,140.3
		c-291.9,9.8-687.9-28.3-893.6-31.3c-289.2-4.3-719.6,15.5-951.2,17.3c-198,1.6-358.5-140.3-358.5-313.3V458.4
		c0-173,160.8-323.5,358.5-313.3c87.5,4.5,197.6,15.6,314.2,23.1c130,8.4,273.8,12.8,420.7,0.9c164.2-13.4,367.1-23.3,533.4-28.7h0
		c0.7,0,1.3-0.1,2-0.1c278.5-9.2,572.2-10.5,762.4,4.8C2838.7,161,2999.8,285.5,2999.8,458.4z"/>
	<g>
		<g>
			<path class="st2" d="M2166.9,293c0,0-13.2-3.4-15,3.8c0,0,2.3,1.1,6.1,1.7c3.8,0.6,10.7,3.9,10.7,3.9L2166.9,293z"/>
		</g>
		<g>
			<g>
				<path class="st0" d="M2401.5,250.6c-14.4,7.8-91.6,13.4-103.8,31.3c-0.4,0.6-0.8,1.3-1,1.9c-7.8,19.4-39.4,45.3-53.9,39.6
					c-14.6-5.7-37.7-31.2-37.7-31.2c1.7-1.3,14.6-0.3,36-32.5c21.4-32.2,66.8-28.2,99.8-25.5c8.8,0.7,18.3,1.7,27.2,2.8h0
					C2392.4,240.1,2412.4,244.7,2401.5,250.6z"/>
			</g>
			<g>
				<path class="st0" d="M2218.4,347.8c0,0-49,12.6-77.4,21c-5.9,1.7-10.9,3.3-14.4,4.5c-20.4,7.1-50.2,77.4-62.4,84.1
					c-4.6,2.5-6.7-15.6-5-39.1v0c2.8-38.9,15.8-92.4,44.8-91.9c46.6,0.9,70.1-17.9,70.1-17.9L2218.4,347.8z"/>
			</g>
			<g>
				<path class="st3" d="M2401.5,250.6c-14.4,7.8-91.6,13.4-103.8,31.3c3-15.9,19.7-35.2,40.6-32c25.8,4,29.7-13,29.7-13h0
					C2392.4,240.1,2412.4,244.7,2401.5,250.6z"/>
			</g>
			<g>
				<path class="st3" d="M2141,368.8c-5.9,1.7-10.9,3.3-14.4,4.5c-20.4,7.1-50.2,77.4-62.4,84.1c-4.6,2.5-6.7-15.6-5-39.1v0
					c0,0,22.2-5.1,25.4-19C2087.6,385.4,2113.3,359.3,2141,368.8L2141,368.8z"/>
			</g>
			<g>
				<path class="st0" d="M2205,292.2c0,0-10,2.2-16.5-1.8c-6.6-4-21.3-4.6-24.4,2.4c-3.2,7,3.4,9.2,7,17.7s24,33.1,47.3,42.3
					c23.3,9.2,24.9,29.1,29.9,30.3c5,1.2,36.4-7.7,36.9-22.5c0,0,2.9-4.7-6.1-8.3c-9-3.6-23.5-8.3-25.8-16.1
					c-2.3-7.8-17-26.4-17-26.4L2205,292.2z"/>
			</g>
		</g>
	</g>
	<path class="st4" d="M1385,534c-359.1-2.4-201.9-165.9-145.5-164.2c56.4,1.7,61.6,60.3,102.9,32.7c41.3-27.5,79.2-86.1,136-41.3
		c56.8,44.8-36.2,96.4,51.7,103.3c87.8,6.9,130.8-62,161.8-5.2c31,56.8,51.7,22.4,98.1,25.8s43,48.9-15.5,48.9S1400,534.1,1385,534z
		"/>
	<path class="st4" d="M1824.9,1659.8c-359.1-2.4-201.9-165.9-145.5-164.2c56.4,1.7,61.6,60.3,102.9,32.7
		c41.3-27.5,79.2-86.1,136-41.3s-36.2,96.4,51.7,103.3c87.8,6.9,130.8-62,161.8-5.2c31,56.8,51.7,22.4,98.1,25.8s43,48.9-15.5,48.9
		C2155.9,1659.8,1839.9,1659.9,1824.9,1659.8z"/>
	<path class="st4" d="M440.8,1108.6c-216.4-1.5-121.7-100-87.7-99c34,1,37.1,36.3,62,19.7c24.9-16.6,47.7-51.9,82-24.9
		s-21.8,58.1,31.1,62.2c52.9,4.1,78.8-37.3,97.5-3.1c18.7,34.2,31.1,13.5,59.1,15.6c28,2.1,25.9,29.4-9.3,29.4
		C640.2,1108.6,449.8,1108.6,440.8,1108.6z"/>
	<path class="st4" d="M2632.8,375.9c289.9-2,163-134,117.5-132.6c-45.5,1.4-49.7,48.6-83.1,26.4c-33.4-22.2-63.9-69.5-109.8-33.4
		s29.2,77.8-41.7,83.4c-70.9,5.6-105.6-50-130.7-4.2c-25,45.9-41.7,18.1-79.2,20.8c-37.5,2.8-34.7,39.4,12.5,39.4
		C2365.6,375.9,2620.7,375.9,2632.8,375.9z"/>
	<g>
		<g>
			<g>
				
					<rect x="1576.7" y="896.4" transform="matrix(-1 -1.224647e-16 1.224647e-16 -1 3210.2368 1884.4279)" class="st5" width="56.9" height="91.7"/>
			</g>
			<g>
				<path class="st3" d="M1522.8,820.2l117.7,30.4c9.3,2.4,16,10.5,16.6,20.1l7.8,127.5c0.7,11.6-9.1,7.2-20.6,8.7l-128.3,32.6
					c-13.5,1.9-25.5-8.8-25.2-22.5l4.2-175.9C1495.4,826.9,1508.9,816.7,1522.8,820.2z"/>
			</g>
			<g>
				<path class="st3" d="M1788.2,1026h107c18.1,0,31.5,16.7,27.7,34.3l-7.9,36.6c-2.8,13-14.4,22.3-27.7,22.3h-84.4
					c-11.6,0-22-7-26.3-17.8l-14.7-36.6C1754.4,1046.3,1768.2,1026,1788.2,1026z"/>
			</g>
			<g>
				<path class="st3" d="M1941.3,702.5l143.2-2.5l4.1,49.3l-153.5-4.2c-1,0-14.7-1-14.7-10.4v-20.9
					C1920.3,703.8,1940.2,702.5,1941.3,702.5z"/>
			</g>
			<g>
				<polygon class="st3" points="2007.6,813.3 2064.2,809.6 2011.5,710 1979.3,724 				"/>
			</g>
			<g>
				<path class="st6" d="M1653.9,810l312.9-15.3l-15.5,275.6l-272.8-22.7c-33.4-2.8-59.2-30.7-59.2-64.3V846.3
					C1619.3,826.9,1634.5,811,1653.9,810z"/>
			</g>
			<g>
				<path class="st3" d="M1656.1,835.7c0-5.6,4.5-10.1,10.1-10.1c5.6,0,10.1,4.5,10.1,10.1c0,5.6-4.5,10.1-10.1,10.1
					C1660.6,845.8,1656.1,841.3,1656.1,835.7z"/>
			</g>
			<g>
				<path class="st3" d="M1701.1,835.7c0-5.6,4.5-10.1,10.1-10.1s10.1,4.5,10.1,10.1c0,5.6-4.5,10.1-10.1,10.1
					S1701.1,841.3,1701.1,835.7z"/>
			</g>
			<g>
				<path class="st3" d="M1751.4,835.7c0-5.6,4.5-10.1,10.1-10.1c5.6,0,10.1,4.5,10.1,10.1c0,5.6-4.5,10.1-10.1,10.1
					C1755.9,845.8,1751.4,841.3,1751.4,835.7z"/>
			</g>
			<path class="st3" d="M1896.9,1101.8c-0.5-7.2-3.9-12.3-7.6-11.3c-3.7,1-6.3,7.6-5.8,14.9l51.7,746.6c4.9,0.3,9.8,0.5,14.7,0.8
				L1896.9,1101.8z"/>
			<path class="st3" d="M1855.3,1847.4v-743.9c0-7.3-3-13.2-6.8-13.2c-3.7,0-6.8,5.9-6.8,13.2v743.1
				C1846.3,1846.9,1850.8,1847.2,1855.3,1847.4z"/>
			<path class="st3" d="M1762.7,1842.2l51-736.8c0.5-7.2-2.1-13.9-5.8-14.9c-3.7-1-7.1,4.1-7.6,11.3l-52.2,739.6
				C1752.9,1841.6,1757.8,1841.9,1762.7,1842.2z"/>
			<g>
				<path class="st3" d="M1966.8,794.8h141.9c11.7,0,21.6,8.8,23,20.4l25.8,218.3c1.6,13.1-8.2,24.9-21.4,25.8l-175.4,12.3
					c-13.7,1-25.2-10.1-24.8-23.9l7.8-230.6C1944.1,804.7,1954.3,794.8,1966.8,794.8z"/>
			</g>
			<g>
				<path class="st6" d="M2088.5,749.3l33.5-3.7c11.9,0,21.6-9.7,21.6-21.6l0,0c0-11.9-9.7-21.6-21.6-21.6l-37.6-2.5
					c-11.9,0-18.8,9.1-17,23.8C2069.8,743.2,2076.7,749.3,2088.5,749.3z"/>
			</g>
			<g>
				<path class="st3" d="M2093.4,743.3l25.1-2.8c8.9,0,16.1-7.2,16.1-16.1v0c0-8.8-7.3-16.1-16.1-16.1l-28.1-1.9
					c-8.9,0-14,6.8-12.7,17.7C2079.4,738.8,2084.6,743.3,2093.4,743.3z"/>
			</g>
			<g>
				<path class="st6" d="M2111.1,840.4l-119.5-4.7c-7.1-0.3-13.2,5.2-13.5,12.3l-2.2,42.7c-0.4,8,6.4,14.5,14.4,13.6l115.8-12.1
					c6.9-0.7,12.1-6.8,11.7-13.7l-2-33.6C2115.6,842.5,2113.6,840.5,2111.1,840.4z"/>
			</g>
			<g>
				<path class="st2" d="M1979.3,813.3c0-3.9,3.2-7.1,7.1-7.1c3.9,0,7.1,3.2,7.1,7.1c0,3.9-3.2,7.1-7.1,7.1
					C1982.5,820.4,1979.3,817.2,1979.3,813.3z"/>
			</g>
			<g>
				<path class="st3" d="M1845.2,1819.5c0.7,0,1.4-0.2,2-0.5l92.6-51.4c2-1.1,2.7-3.6,1.6-5.6c-1.1-2-3.6-2.7-5.6-1.6l-90.6,50.4
					l-83.9-44.7c-2-1.1-4.5-0.3-5.5,1.7c-1.1,2-0.3,4.5,1.7,5.5l85.9,45.7C1843.9,1819.3,1844.5,1819.5,1845.2,1819.5z"/>
			</g>
		</g>
		<g>
			<g>
				<g>
					<path class="st7" d="M1867.6,1108l-4.7,2.2c-6.8,3.2-15,0.3-18.2-6.5l-29.8-62.8c-3.2-6.8-0.3-15,6.5-18.2l4.7-2.2
						c6.8-3.2,15-0.3,18.2,6.5l29.8,62.8C1877.3,1096.5,1874.4,1104.7,1867.6,1108z"/>
				</g>
				<g>
					<path class="st7" d="M1893.2,1089.5l-5.2,2.5c-6.7,3.2-14.7,0.3-17.9-6.4l-31.8-67c-3.2-6.7-0.3-14.7,6.4-17.9l5.2-2.5
						c6.7-3.2,14.7-0.3,17.9,6.4l31.8,67C1902.7,1078.3,1899.9,1086.4,1893.2,1089.5z"/>
				</g>
				<g>
					<path class="st7" d="M1930.4,1148.4l-4.7-1.1c-8.7-2-14.2-10.8-12.1-19.5l19.7-84.7c2-8.7,13.5-21.9,22.2-19.9
						c14.3,3.4,16.1,19.6,14.1,28.3l-19.7,84.7C1947.8,1145,1939.1,1150.5,1930.4,1148.4z"/>
				</g>
				<g>
					<path class="st7" d="M1922.7,1078.2l-2.6,1.2c-7.6,3.6-16.8,0.3-20.4-7.3l-46.3-97.6c-3.6-7.6-8.9-25.6,5.3-30.7
						c10.4-3.8,20.6,14.4,26.4,26c11.7,23.4,45,87.9,45,87.9C1933.6,1065.4,1930.3,1074.6,1922.7,1078.2z"/>
				</g>
				<g>
					<path class="st7" d="M1869.2,1175.9c0,0-66.4-58.3-70.1-112.8c-1.3-18.8,82.6-58.5,99.1-45.3c16.5,13.2,51.8,92.8,51.8,92.8
						L1869.2,1175.9z"/>
				</g>
				<g>
					<path class="st7" d="M1840.4,1117.4l-6.9,3.3c-6.2,2.9-1.1,15-5.3,9.6c-29.1-36.8-37.5-70.9-37.5-70.9
						c-2.9-6.2-0.2-17.4,5.9-20.3l6.2-1.8c6.2-2.9,14.3,2,17.2,8.2l26.3,55.4C1849.3,1107,1846.6,1114.4,1840.4,1117.4z"/>
				</g>
			</g>
			<path class="st2" d="M2453.4,1865c98.8-3.3,191.1-9.4,273-31.1l-4.6-197.2l-321.2-71c0,0-4,69.8,3.7,206.5
				c-83-33-295.4-105.9-287.6,17.8c1,15.3,2.1,46.5,3.3,71.1C2235.4,1865.9,2350.8,1868.4,2453.4,1865z"/>
			<g>
				<path class="st7" d="M2457.3,940.2l-20.3-60.9l-5.9-17.7l-34.8-104.2l-4.6,103.7l-2.7,62.2l-0.9,19.7
					c-0.6,13.4-9.4,16.2-20,27.8c-4.3,4.7-32,33.3-0.6,46.1c39.2,16.1,112.3-8.3,140.2-40.1C2507.5,976.7,2463.9,959.9,2457.3,940.2
					z"/>
			</g>
			<g>
				
					<ellipse transform="matrix(0.2116 -0.9773 0.9773 0.2116 1115.1415 2974.9668)" class="st7" cx="2401.6" cy="796.3" rx="111.9" ry="99.5"/>
			</g>
			<g>
				<path class="st3" d="M2345.5,757.4c-57,2-84.7-28.6-85.3-56.9c-0.8-36.3,23.8-68.4,52.4-54.9c28.6,13.5,16.3-19.6,43.9-23.1
					c51.5-6.6,61.1,27.4,103.2,29.1c55.6,2.2,118.9,88.1,72.3,150.9C2532,802.5,2390.5,755.8,2345.5,757.4z"/>
			</g>
			<g>
				<path class="st3" d="M2294.7,720.8c0,0,60.9,54.5,52.9,85.1c-8,30.7-6,42.7,29.6,59s4.2,42.9,51.6,44.8
					c47.4,1.9,105.5-50.1,105.5-135.7c0-47.7-29.5-78.9-29.5-78.9L2294.7,720.8z"/>
			</g>
			<g>
				<path class="st7" d="M2316.8,804.5c6.9-9.1,19.6-11.8,28.4-6.1c8.8,5.7,10.3,17.7,3.3,26.8c-6.9,9.1-19.6,11.8-28.4,6.1
					C2311.4,825.7,2309.9,813.6,2316.8,804.5z"/>
			</g>
			<g>
				<path class="st3" d="M2554.9,826c0.1,0,0.2,0,0.3,0c0.8-0.2,1.2-0.9,1-1.7c-3.1-12.7-15.6-19.7-16.1-20
					c-0.7-0.4-1.5-0.1-1.9,0.6c-0.4,0.7-0.1,1.5,0.6,1.9c0.1,0.1,12,6.7,14.7,18.2C2553.7,825.6,2554.2,826,2554.9,826z"/>
			</g>
			<g>
				<path class="st3" d="M2539.4,800.3C2539.5,800.3,2539.5,800.3,2539.4,800.3c0.8,0,17.9-1.2,20.5-14.4c0.2-0.8-0.3-1.5-1.1-1.7
					c-0.8-0.2-1.5,0.3-1.7,1.1c-2.2,11-17.6,12.1-17.8,12.1c-0.8,0-1.4,0.7-1.3,1.5C2538.1,799.7,2538.7,800.3,2539.4,800.3z"/>
			</g>
			<g>
				<path class="st3" d="M2321.2,643.4c2,0,3.8-0.6,5.5-1.7c7.3-5,8.9-19.3,8.9-19.9c0.1-0.8-0.5-1.5-1.3-1.6
					c-0.8-0.1-1.5,0.5-1.6,1.3c0,0.1-1.5,13.7-7.7,17.9c-1.8,1.2-3.8,1.5-6.2,0.9c-4.3-1.2-7.7-3.3-10.9-5.4
					c-6.4-4.1-12.9-8.3-26.1-4.4c-0.7,0.2-1.2,1-0.9,1.8c0.2,0.7,1,1.2,1.8,0.9c11.9-3.6,17.4,0,23.8,4c3.4,2.2,6.9,4.5,11.7,5.8
					C2319.2,643.3,2320.2,643.4,2321.2,643.4z"/>
			</g>
			<g>
				<path class="st3" d="M2455.3,647.1c2.1,0,4.3-0.2,6.5-0.5c0.8-0.1,1.3-0.8,1.2-1.6c-0.1-0.8-0.8-1.3-1.6-1.2
					c-21.8,3.3-40.5-12.9-40.7-13.1c-0.6-0.5-1.5-0.5-2,0.1c-0.5,0.6-0.5,1.5,0.1,2C2419.5,633.5,2435.2,647.1,2455.3,647.1z"/>
			</g>
			<g>
				<path class="st3" d="M2332.1,835.4c4.8,0,13.1-1.9,19.3-13.5c0.2-0.3,0.1-0.7-0.3-0.9c-0.3-0.2-0.7-0.1-0.9,0.3
					c-8.7,16.2-21.1,12.5-21.6,12.4c-0.4-0.1-0.7,0.1-0.9,0.4c-0.1,0.4,0.1,0.7,0.4,0.9C2328.2,834.9,2329.7,835.4,2332.1,835.4z"/>
			</g>
			<g>
				<path class="st3" d="M2116.6,1790c0,0,413.6-22.6,609.9,24.7l2.9-56l-275.2-81.5l-222.2,5.5l-68.3,14.6l-48.2,74.4L2116.6,1790z
					"/>
			</g>
			<g>
				<path class="st8" d="M2689.8,1108.4c0,0-36.4-156.5-259.1-156.5c-388.1,0-279.2,316.6-315.1,819.8c0,0,250.2-54.2,612.3,17.9
					c0,0,35.2-272.5-10.3-502.9C2705.5,1225.9,2707.6,1161.3,2689.8,1108.4z"/>
			</g>
			<g>
				<path class="st8" d="M2386,951.9c0,0-124.5,1.8-217.1,89.2c-92.6,87.4-211.8,207.7-237.1,277c-31.1,85.3,26.2,170.8,99,172.6
					c72.8,1.8,138.1-51,138.1-51L2386,951.9z"/>
			</g>
			<g>
				<path class="st8" d="M2937.3,1412.4c-36.4-269.4-343.2-421.6-343.2-421.6l-65.4,337.9l127.8,40.6c65.7,20.9,92.6,99.7,52.8,156
					c-50.9,71.9-80.6,168.2-28.1,150.5C2771,1645.4,2955.5,1530.8,2937.3,1412.4z"/>
			</g>
			<g>
				<path class="st3" d="M2739.3,1666.9c10.8-197.7-24.2-400.1-24.5-402.1l-2.7,0.5c0.4,2,35.3,204.1,24.5,401.5L2739.3,1666.9z"/>
			</g>
			<g>
				<path class="st3" d="M2125.7,1468.1c73.6-43.4,169.1-157.4,170-158.6l-2.1-1.7c-1,1.1-96.2,114.8-169.3,158L2125.7,1468.1z"/>
			</g>
			<g>
				<path class="st8" d="M2092.8,1192.2c0,0-94.1-98.1-127-104.8c-32.9-6.7-222.4,45.6-14.4,361.3L2092.8,1192.2z"/>
			</g>
		</g>
	</g>
	<g>
		<g>
			<path class="st2" d="M877,636.7c0,0,26.3-6.7,29.9,7.6c0,0-4.5,2.2-12.1,3.3c-7.6,1.1-21.4,7.8-21.4,7.8L877,636.7z"/>
		</g>
		<g>
			<g>
				<path class="st0" d="M410.5,552.5c28.7,15.5,182.1,26.6,206.4,62.2c0.9,1.2,1.6,2.5,2.1,3.8c15.5,38.7,78.3,90,107.3,78.7
					c29-11.3,74.9-62,74.9-62c-3.4-2.7-29-0.7-71.5-64.7c-42.5-64-132.9-56-198.4-50.7c-17.5,1.4-36.3,3.3-54,5.5h-0.1
					C428.6,531.5,388.7,540.7,410.5,552.5z"/>
			</g>
			<g>
				<path class="st0" d="M774.6,745.9c0,0,97.4,25,153.9,41.7c11.7,3.4,21.7,6.5,28.7,9c40.5,14.2,99.9,153.8,124.1,167.2
					c9.1,5,13.3-31,10-77.8v0c-5.5-77.3-31.5-183.8-89.2-182.7c-92.7,1.8-139.5-35.6-139.5-35.6L774.6,745.9z"/>
			</g>
			<g>
				<path class="st3" d="M410.5,552.5c28.7,15.5,182.1,26.6,206.4,62.2c-5.9-31.6-39.2-70-80.7-63.5c-51.3,8-59-25.8-59-25.8h-0.1
					C428.6,531.5,388.7,540.7,410.5,552.5z"/>
			</g>
			<g>
				<path class="st3" d="M928.6,787.6c11.7,3.4,21.7,6.5,28.7,9c40.5,14.2,99.9,153.8,124.1,167.2c9.1,5,13.3-31,10-77.8v0
					c0,0-44.2-10.2-50.5-37.8C1034.6,820.5,983.6,768.7,928.6,787.6L928.6,787.6z"/>
			</g>
			<g>
				<path class="st0" d="M801.2,635.2c0,0,19.8,4.4,32.8-3.6c13-8,42.3-9.1,48.6,4.8c6.3,13.9-6.8,18.3-14,35.2
					c-7.2,16.9-47.6,65.8-94,84c-46.3,18.2-49.5,57.8-59.4,60.3c-9.9,2.4-72.4-15.3-73.3-44.7c0,0-5.8-9.3,12.1-16.4
					c18-7.1,46.8-16.4,51.3-32c4.5-15.6,33.7-52.5,33.7-52.5L801.2,635.2z"/>
			</g>
		</g>
	</g>
	<g>
		<g>
			<path class="st2" d="M1094,1461c0,0-16.1-4.1-18.2,4.6c0,0,2.7,1.4,7.4,2c4.7,0.7,13,4.7,13,4.7L1094,1461z"/>
		</g>
		<g>
			<g>
				<path class="st0" d="M1378.6,1409.7c-17.5,9.4-111.1,16.2-125.9,37.9c-0.5,0.7-1,1.5-1.3,2.3c-9.5,23.6-47.7,54.9-65.4,48
					c-17.7-6.9-45.7-37.8-45.7-37.8c2.1-1.6,17.7-0.4,43.6-39.5c25.9-39.1,81.1-34.2,121-30.9c10.7,0.9,22.2,2,33,3.4h0
					C1367.6,1396.9,1391.9,1402.5,1378.6,1409.7z"/>
			</g>
			<g>
				<path class="st0" d="M1156.5,1527.6c0,0-59.4,15.2-93.9,25.4c-7.2,2.1-13.2,4-17.5,5.5c-24.7,8.7-60.9,93.8-75.7,102
					c-5.6,3.1-8.1-18.9-6.1-47.4v0c3.4-47.2,19.2-112.1,54.4-111.5c56.5,1.1,85.1-21.7,85.1-21.7L1156.5,1527.6z"/>
			</g>
			<g>
				<path class="st3" d="M1378.6,1409.7c-17.5,9.4-111.1,16.2-125.9,37.9c3.6-19.3,23.9-42.7,49.2-38.8c31.3,4.9,36-15.7,36-15.7h0
					C1367.6,1396.9,1391.9,1402.5,1378.6,1409.7z"/>
			</g>
			<g>
				<path class="st3" d="M1062.5,1553.1c-7.2,2.1-13.2,4-17.5,5.5c-24.7,8.7-60.9,93.8-75.7,102c-5.6,3.1-8.1-18.9-6.1-47.4v0
					c0,0,27-6.2,30.8-23.1C997.9,1573.2,1029,1541.6,1062.5,1553.1L1062.5,1553.1z"/>
			</g>
			<g>
				<path class="st0" d="M1140.3,1460.1c0,0-12.1,2.7-20-2.2c-8-4.9-25.8-5.5-29.6,2.9c-3.8,8.5,4.2,11.2,8.5,21.5
					c4.4,10.3,29.1,40.1,57.3,51.3c28.3,11.1,30.2,35.3,36.2,36.8c6,1.5,44.2-9.4,44.7-27.3c0,0,3.6-5.7-7.4-10
					c-11-4.3-28.5-10-31.3-19.5c-2.7-9.5-20.6-32-20.6-32L1140.3,1460.1z"/>
			</g>
		</g>
	</g>
</g>
</svg>
