<?xml version="1.0" encoding="utf-8"?>
<!-- Generator: Adobe Illustrator 27.0.0, SVG Export Plug-In . SVG Version: 6.00 Build 0)  -->
<svg version="1.1" id="Layer_1" xmlns="http://www.w3.org/2000/svg" xmlns:xlink="http://www.w3.org/1999/xlink" x="0px" y="0px"
	 viewBox="0 0 2430.7 2200" style="enable-background:new 0 0 2430.7 2200;" xml:space="preserve">
<style type="text/css">
	.st0{fill:#FFFFFF;}
	.st1{fill:#A6BFD5;}
	.st2{fill:#F8E6C7;}
	.st3{fill:#3C251D;}
	.st4{fill:#D3DFEB;}
	.st5{fill:#49403E;}
	.st6{fill:#B6D1F0;}
	.st7{fill:#5769B3;}
	.st8{fill:#E2E8ED;}
	.st9{fill:#706664;}
	.st10{fill:#EEBE80;}
	.st11{fill:#7CA594;}
	.st12{fill:#E48A69;}
	.st13{fill:#FAEFE4;}
	.st14{fill:#615DA7;}
	.st15{fill:#351C20;}
	.st16{fill:#E1755F;}
	.st17{fill:#E8A080;}
	.st18{opacity:0.25;}
	.st19{fill:#BF635F;}
	.st20{fill:#CD5959;}
	.st21{fill:#563931;}
	.st22{fill:#212121;}
	.st23{fill:#444447;}
	.st24{fill:#B0B8D1;}
	.st25{fill:#3F3F3F;}
	.st26{fill:#B6CCE6;}
	.st27{opacity:0.59;}
	.st28{fill:#333538;}
	.st29{fill:#3A3A3A;}
	.st30{fill:#515150;}
	.st31{fill:#6B6B6B;}
	.st32{fill:#A1B5D1;}
	.st33{opacity:0.27;}
	.st34{clip-path:url(#SVGID_00000152977623037789550840000017018466080819611812_);}
	.st35{fill:#F7F7F7;}
</style>
<g>
	<g>
		<g>
			<g>
				<rect x="0" y="0" class="st0" width="2430.7" height="2200"/>
			</g>
		</g>
	</g>
</g>
<g>
	<path class="st1" d="M925.8,254.3c0,8.4-1.4,16.1-4.3,23.2c-2.9,7.1-6.9,13.1-12,18.3c-5.1,5.1-11.2,9.2-18.2,12.1
		c-7,2.9-14.6,4.3-22.8,4.3c-8.2,0-15.8-1.5-22.8-4.3c-7-2.9-13.1-6.9-18.2-12.1c-5.1-5.1-9.1-11.2-12-18.3
		c-2.9-7.1-4.3-14.8-4.3-23.2c0-8.4,1.4-16.1,4.3-23.2c2.9-7.1,6.9-13.1,12-18.3c5.1-5.1,11.2-9.2,18.2-12.1
		c7-2.9,14.6-4.3,22.8-4.3c8.2,0,15.8,1.4,22.8,4.3c7,2.9,13.1,6.9,18.2,12.1c5.1,5.1,9.1,11.2,12,18.3
		C924.4,238.1,925.8,245.8,925.8,254.3z M913.7,254.3c0-6.3-1-12.4-3.1-18.1c-2.1-5.8-5.1-10.8-8.9-15.2c-3.9-4.4-8.7-7.8-14.2-10.4
		c-5.6-2.6-12-3.9-19-3.9c-7.1,0-13.4,1.3-19,3.9c-5.6,2.6-10.3,6.1-14.2,10.4c-3.9,4.3-6.9,9.4-8.9,15.2
		c-2.1,5.7-3.1,11.8-3.1,18.1s1,12.4,3.1,18.1c2.1,5.8,5.1,10.8,8.9,15.2c3.9,4.4,8.7,7.8,14.2,10.4c5.6,2.6,12,3.9,19,3.9
		c7,0,13.4-1.3,19-3.9c5.6-2.6,10.3-6.1,14.2-10.4c3.9-4.3,6.9-9.4,8.9-15.2C912.7,266.6,913.7,260.6,913.7,254.3z"/>
	<path class="st1" d="M954.4,236.5c0.2,2,0.3,3.9,0.4,5.8c0.1,1.9,0.1,3.9,0.1,5.8h0.3c1.2-2,2.6-3.8,4.3-5.5
		c1.8-1.7,3.8-3.1,5.9-4.3c2.2-1.2,4.5-2.1,6.9-2.8c2.4-0.7,4.9-1,7.3-1c9.3,0,16.2,2.5,20.7,7.4c4.5,4.9,6.7,12,6.7,21.1v46.2
		h-10.3V269c0-8.1-1.4-14.3-4.2-18.6c-2.8-4.3-8-6.5-15.6-6.5c-0.5,0-2,0.2-4.3,0.6c-2.4,0.4-4.9,1.6-7.5,3.4
		c-2.6,1.9-5,4.7-7.1,8.4c-2.1,3.7-3.1,8.9-3.1,15.6v37.4h-10.3v-56.8c0-2-0.1-4.5-0.2-7.5c-0.2-3-0.4-5.8-0.6-8.6H954.4z"/>
	<path class="st1" d="M1043.7,309.4h-10.3V191.7h10.3V309.4z"/>
	<path class="st1" d="M1083.4,208.5c0,2.2-0.8,4-2.4,5.4c-1.6,1.4-3.3,2.1-5.1,2.1c-1.9,0-3.6-0.7-5.1-2.1c-1.6-1.4-2.4-3.2-2.4-5.4
		c0-2.2,0.8-4,2.4-5.4c1.6-1.4,3.3-2.1,5.1-2.1c1.8,0,3.6,0.7,5.1,2.1C1082.6,204.5,1083.4,206.3,1083.4,208.5z M1081.1,309.4h-10.3
		v-72.9h10.3V309.4z"/>
	<path class="st1" d="M1115.7,236.5c0.2,2,0.3,3.9,0.4,5.8c0.1,1.9,0.1,3.9,0.1,5.8h0.3c1.2-2,2.6-3.8,4.3-5.5
		c1.8-1.7,3.8-3.1,5.9-4.3c2.2-1.2,4.5-2.1,6.9-2.8c2.4-0.7,4.9-1,7.3-1c9.3,0,16.2,2.5,20.7,7.4c4.5,4.9,6.7,12,6.7,21.1v46.2H1158
		V269c0-8.1-1.4-14.3-4.2-18.6c-2.8-4.3-8-6.5-15.6-6.5c-0.5,0-2,0.2-4.3,0.6c-2.4,0.4-4.9,1.6-7.5,3.4c-2.6,1.9-5,4.7-7.1,8.4
		c-2.1,3.7-3.1,8.9-3.1,15.6v37.4h-10.3v-56.8c0-2-0.1-4.5-0.2-7.5c-0.2-3-0.4-5.8-0.6-8.6H1115.7z"/>
	<path class="st1" d="M1199.6,275.7c0.3,3.6,1.2,7.1,2.6,10.3c1.4,3.2,3.4,6,5.7,8.3c2.4,2.3,5.1,4.2,8.3,5.5c3.1,1.3,6.5,2,10.1,2
		c5.5,0,10.3-1.3,14.2-3.8c4-2.6,7-5.5,9.1-8.8l7.9,6.5c-4.3,5.5-9.1,9.4-14.4,11.8c-5.2,2.4-10.9,3.6-16.9,3.6
		c-5.4,0-10.4-1-15-2.9c-4.6-1.9-8.6-4.6-11.9-8c-3.3-3.4-5.9-7.5-7.9-12.1c-1.9-4.7-2.9-9.8-2.9-15.3c0-5.5,0.9-10.6,2.8-15.2
		c1.9-4.7,4.5-8.7,7.8-12.1c3.3-3.4,7.2-6.1,11.7-8c4.4-1.9,9.3-2.9,14.5-2.9c5.5,0,10.4,1,14.8,3c4.4,2,8,4.6,11,7.9
		c3,3.3,5.2,7.1,6.8,11.5c1.6,4.4,2.4,9.1,2.4,14.1v4.7H1199.6z M1249.1,267.3c0-6.9-2.1-12.6-6.2-16.9c-4.2-4.3-10-6.5-17.4-6.5
		c-3.4,0-6.5,0.6-9.7,1.9c-3.1,1.3-5.9,3.1-8.2,5.2c-2.4,2.2-4.2,4.7-5.6,7.5c-1.4,2.8-2.1,5.7-2.1,8.7H1249.1z"/>
	<path class="st1" d="M1378.1,217.4c-4.9-7.2-12-10.7-21.3-10.7c-2.9,0-5.7,0.4-8.6,1.2c-2.8,0.8-5.3,2-7.5,3.6
		c-2.2,1.6-4,3.7-5.3,6.2c-1.4,2.5-2,5.5-2,9c0,5,1.4,8.8,4.2,11.6c2.8,2.8,6.3,5,10.5,6.8c4.1,1.8,8.7,3.3,13.6,4.7
		c4.9,1.4,9.5,3.3,13.6,5.6c4.1,2.3,7.6,5.4,10.4,9.3c2.8,3.8,4.2,9.1,4.2,15.7c0,5-1,9.5-3.2,13.5c-2.1,4-4.9,7.4-8.4,10.1
		c-3.5,2.7-7.4,4.8-11.7,6.2c-4.3,1.5-8.7,2.2-13,2.2c-6.7,0-13.2-1.3-19.2-3.8c-6.1-2.5-11.2-6.7-15.5-12.5l10.3-7.3
		c2.4,4,5.7,7.3,9.9,9.7c4.3,2.4,9.3,3.7,15.1,3.7c2.8,0,5.6-0.4,8.4-1.3c2.8-0.9,5.3-2.2,7.5-3.9c2.2-1.7,4.1-3.8,5.5-6.3
		c1.4-2.5,2.2-5.3,2.2-8.6c0-3.8-0.8-7-2.4-9.6c-1.6-2.5-3.7-4.7-6.4-6.4c-2.6-1.7-5.6-3.1-9-4.3c-3.4-1.1-6.9-2.3-10.4-3.4
		c-3.6-1.1-7.1-2.4-10.5-3.9c-3.4-1.5-6.4-3.3-9-5.5s-4.8-5-6.4-8.4c-1.6-3.4-2.4-7.6-2.4-12.7c0-5.3,1-9.9,3-13.8
		c2-3.9,4.7-7.2,8.1-9.8c3.4-2.6,7.2-4.5,11.5-5.8c4.3-1.2,8.6-1.9,13.1-1.9c6.2,0,11.9,1,17,3c5.1,2,9.8,5.4,14.2,10.4
		L1378.1,217.4z"/>
	<path class="st1" d="M1461.9,253.6c-1.8-2.7-4.2-5-7.4-6.9c-3.2-1.9-6.8-2.8-10.9-2.8c-4.2-0.1-8.1,0.6-11.4,2
		c-3.4,1.5-6.3,3.5-8.7,6.1c-2.4,2.6-4.2,5.7-5.5,9.3c-1.2,3.6-1.8,7.4-1.8,11.6c0,4.2,0.6,8,1.8,11.6c1.3,3.6,3.1,6.7,5.5,9.3
		c2.4,2.6,5.3,4.6,8.7,6.1c3.4,1.5,7.2,2.1,11.4,2c4.1,0,7.7-0.9,10.9-2.8c3.2-1.9,5.6-4.1,7.4-6.9l8.4,6.4
		c-3.6,4.3-7.7,7.4-12.3,9.4c-4.5,2-9.3,3.1-14.3,3.2c-5.9,0.1-11.3-0.8-16-2.7c-4.7-1.9-8.8-4.6-12.2-8c-3.4-3.4-5.9-7.5-7.7-12.2
		c-1.8-4.7-2.6-9.8-2.6-15.3c0-5.5,0.9-10.6,2.6-15.3c1.8-4.7,4.3-8.8,7.7-12.2c3.4-3.4,7.5-6.1,12.2-8c4.8-1.9,10.1-2.8,16-2.7
		c5,0.1,9.8,1.2,14.3,3.2c4.6,2,8.7,5.1,12.3,9.4L1461.9,253.6z"/>
	<path class="st1" d="M1483.8,191.7h10.3v56.5h0.3c1.1-2,2.6-3.8,4.3-5.5c1.8-1.7,3.7-3.1,5.9-4.3c2.2-1.2,4.5-2.1,6.9-2.8
		c2.4-0.7,4.8-1,7.2-1c9.3,0,16.2,2.5,20.7,7.4c4.5,4.9,6.7,12,6.7,21.1v46.2H1536V269c0-8.1-1.4-14.3-4.2-18.6
		c-2.8-4.3-8-6.5-15.6-6.5c-0.5,0-2,0.2-4.3,0.6c-2.4,0.4-4.9,1.6-7.6,3.4c-2.6,1.9-5,4.7-7.1,8.4c-2.1,3.7-3.1,8.9-3.1,15.6v37.4
		h-10.3V191.7z"/>
	<path class="st1" d="M1644,272.9c0,5.5-1,10.6-2.9,15.3c-1.9,4.7-4.6,8.7-8,12.1c-3.4,3.4-7.5,6.1-12.2,8c-4.7,1.9-10,2.9-15.7,2.9
		c-5.6,0-10.8-1-15.5-2.9c-4.7-1.9-8.8-4.6-12.2-8c-3.4-3.4-6.1-7.5-8-12.1c-1.9-4.7-2.9-9.8-2.9-15.3c0-5.5,1-10.6,2.9-15.2
		c1.9-4.7,4.6-8.7,8-12.1c3.4-3.4,7.5-6.1,12.2-8c4.7-1.9,9.9-2.9,15.5-2.9c5.7,0,10.9,1,15.7,2.9c4.7,1.9,8.8,4.6,12.2,8
		c3.4,3.4,6.1,7.5,8,12.1C1643.1,262.4,1644,267.4,1644,272.9z M1632.8,272.9c0-4-0.6-7.8-2-11.4c-1.3-3.5-3.1-6.6-5.5-9.2
		c-2.4-2.6-5.3-4.6-8.7-6.1c-3.4-1.5-7.2-2.3-11.5-2.3c-4.2,0-8.1,0.8-11.4,2.3c-3.4,1.5-6.3,3.6-8.6,6.1c-2.4,2.6-4.1,5.7-5.5,9.2
		c-1.3,3.5-1.9,7.3-1.9,11.4c0,4,0.6,7.8,1.9,11.4c1.3,3.5,3.1,6.6,5.5,9.2c2.3,2.6,5.2,4.6,8.6,6.1c3.4,1.5,7.2,2.3,11.4,2.3
		c4.3,0,8.1-0.8,11.5-2.3c3.4-1.5,6.3-3.6,8.7-6.1c2.4-2.6,4.2-5.7,5.5-9.2C1632.2,280.8,1632.8,277,1632.8,272.9z"/>
	<path class="st1" d="M1736.4,272.9c0,5.5-1,10.6-2.9,15.3c-1.9,4.7-4.6,8.7-8,12.1c-3.4,3.4-7.5,6.1-12.2,8
		c-4.7,1.9-10,2.9-15.7,2.9c-5.6,0-10.8-1-15.5-2.9c-4.7-1.9-8.8-4.6-12.2-8c-3.4-3.4-6.1-7.5-8-12.1c-1.9-4.7-2.9-9.8-2.9-15.3
		c0-5.5,1-10.6,2.9-15.2c1.9-4.7,4.6-8.7,8-12.1c3.4-3.4,7.5-6.1,12.2-8c4.7-1.9,9.9-2.9,15.5-2.9c5.7,0,10.9,1,15.7,2.9
		c4.7,1.9,8.8,4.6,12.2,8c3.4,3.4,6.1,7.5,8,12.1C1735.4,262.4,1736.4,267.4,1736.4,272.9z M1725.1,272.9c0-4-0.6-7.8-2-11.4
		c-1.3-3.5-3.1-6.6-5.5-9.2c-2.4-2.6-5.3-4.6-8.7-6.1c-3.4-1.5-7.2-2.3-11.5-2.3c-4.2,0-8.1,0.8-11.4,2.3c-3.4,1.5-6.3,3.6-8.6,6.1
		c-2.4,2.6-4.1,5.7-5.5,9.2c-1.3,3.5-1.9,7.3-1.9,11.4c0,4,0.6,7.8,1.9,11.4c1.3,3.5,3.1,6.6,5.5,9.2c2.3,2.6,5.2,4.6,8.6,6.1
		c3.4,1.5,7.2,2.3,11.4,2.3c4.3,0,8.1-0.8,11.5-2.3c3.4-1.5,6.3-3.6,8.7-6.1c2.4-2.6,4.2-5.7,5.5-9.2
		C1724.5,280.8,1725.1,277,1725.1,272.9z"/>
	<path class="st1" d="M1767.6,309.4h-10.3V191.7h10.3V309.4z"/>
</g>
<g>
	<g>
		<path class="st2" d="M1695.6,1713.1c-171.9-10.5-331-115.7-428-258.6c-145.9-214.9-204-563.8-29.5-779.4
			c168.9-208.7,478.1-228.4,717.1-144.5c167.9,58.9,315.2,184.5,382.8,349.1c157.8,384.6-229.8,845.5-627.5,834
			C1705.4,1713.6,1700.5,1713.4,1695.6,1713.1z"/>
	</g>
	<g>
		<path class="st3" d="M1864.4,1303.7c-2.7,0-5-2.1-5.1-4.8c-0.1-2.8,2-5.2,4.8-5.4c13.1-0.7,26.4-2,39.5-4.1
			c2.8-0.4,5.4,1.5,5.8,4.2c0.4,2.8-1.5,5.4-4.2,5.8c-13.4,2.1-27.1,3.6-40.6,4.2C1864.5,1303.7,1864.5,1303.7,1864.4,1303.7z
			 M1824.1,1303.6c-0.1,0-0.2,0-0.3,0c-13.5-0.8-27.1-2.3-40.6-4.5c-2.8-0.5-4.7-3.1-4.2-5.9c0.5-2.8,3.2-4.6,5.9-4.2
			c13.1,2.2,26.3,3.7,39.5,4.4c2.8,0.2,5,2.6,4.8,5.4C1829.1,1301.5,1826.8,1303.6,1824.1,1303.6z M1943.8,1291.1
			c-2.3,0-4.3-1.5-4.9-3.8c-0.7-2.7,0.9-5.5,3.6-6.3c12.8-3.5,25.5-7.7,37.7-12.5c2.7-1,5.6,0.2,6.6,2.9c1,2.6-0.2,5.6-2.9,6.6
			c-12.6,5-25.6,9.3-38.7,12.9C1944.7,1291,1944.2,1291.1,1943.8,1291.1z M1744.8,1290.4c-0.5,0-0.9-0.1-1.4-0.2
			c-13.1-3.7-26.1-8.1-38.7-13.1c-2.6-1-3.9-4-2.8-6.6c1-2.6,4-3.9,6.6-2.8c12.2,4.9,24.8,9.2,37.6,12.8c2.7,0.8,4.3,3.6,3.5,6.3
			C1749.1,1289,1747.1,1290.4,1744.8,1290.4z M2018.6,1261.5c-1.8,0-3.6-1-4.5-2.7c-1.3-2.5-0.4-5.6,2.1-6.9
			c11.6-6.1,23.1-13,34.1-20.4c2.3-1.6,5.5-1,7.1,1.4c1.6,2.4,1,5.5-1.4,7.1c-11.3,7.6-23.1,14.6-35,20.9
			C2020.2,1261.3,2019.4,1261.5,2018.6,1261.5z M1670.2,1260.5c-0.8,0-1.6-0.2-2.4-0.6c-12.1-6.5-23.8-13.6-34.9-21.2
			c-2.3-1.6-2.9-4.8-1.3-7.1c1.6-2.3,4.8-2.9,7.1-1.3c10.8,7.4,22.2,14.3,33.9,20.6c2.5,1.3,3.4,4.4,2.1,6.9
			C1673.8,1259.5,1672.1,1260.5,1670.2,1260.5z M2085.2,1216.5c-1.5,0-2.9-0.6-3.9-1.8c-1.8-2.2-1.5-5.4,0.6-7.2
			c10.1-8.5,19.8-17.7,28.9-27.2c1.9-2,5.1-2.2,7.2-0.2c2,1.9,2.1,5.2,0.2,7.2c-9.3,9.8-19.3,19.2-29.7,28
			C2087.6,1216.1,2086.4,1216.5,2085.2,1216.5z M1603.9,1215.2c-1.2,0-2.4-0.4-3.3-1.2c-10.3-8.8-20.2-18.3-29.6-28.1
			c-1.9-2.1-1.8-5.3,0.2-7.2c2.1-2,5.3-1.8,7.2,0.2c9.1,9.7,18.8,18.9,28.8,27.4c2.2,1.8,2.4,5.1,0.6,7.2
			C1606.8,1214.6,1605.3,1215.2,1603.9,1215.2z M2140.7,1158.4c-1.1,0-2.2-0.3-3.1-1.1c-2.2-1.7-2.7-4.9-0.9-7.2
			c8-10.5,15.6-21.5,22.4-32.8c1.5-2.4,4.6-3.2,7-1.7c2.4,1.5,3.2,4.6,1.7,7c-7,11.6-14.8,22.9-23.1,33.7
			C2143.8,1157.7,2142.3,1158.4,2140.7,1158.4z M1548.7,1156.6c-1.5,0-3.1-0.7-4.1-2c-8.3-10.9-16-22.3-22.9-33.8
			c-1.4-2.4-0.7-5.6,1.8-7c2.4-1.4,5.5-0.7,7,1.8c6.7,11.2,14.2,22.3,22.2,32.9c1.7,2.2,1.3,5.4-1,7.1
			C1550.8,1156.3,1549.8,1156.6,1548.7,1156.6z M2182.5,1089.7c-0.7,0-1.5-0.2-2.2-0.5c-2.6-1.2-3.7-4.2-2.5-6.8
			c5.5-11.9,10.6-24.3,14.9-36.8c0.9-2.7,3.8-4.1,6.5-3.2c2.7,0.9,4.1,3.8,3.2,6.5c-4.4,12.9-9.6,25.6-15.3,37.8
			C2186.2,1088.6,2184.4,1089.7,2182.5,1089.7z M1507.4,1087.7c-1.9,0-3.8-1.1-4.6-3c-5.7-12.4-10.8-25.2-15-38
			c-0.9-2.7,0.6-5.6,3.2-6.5c2.7-0.9,5.6,0.6,6.5,3.2c4.2,12.4,9.1,24.9,14.6,36.9c1.2,2.6,0,5.6-2.5,6.8
			C1508.8,1087.5,1508.1,1087.7,1507.4,1087.7z M2208.4,1013.6c-0.4,0-0.7,0-1.1-0.1c-2.8-0.6-4.5-3.4-3.9-6.1
			c2.9-12.8,5-26,6.5-39.2c0.3-2.8,2.5-4.9,5.6-4.5c2.8,0.3,4.8,2.8,4.5,5.6c-1.5,13.5-3.8,27.1-6.7,40.3
			C2212.9,1012,2210.8,1013.6,2208.4,1013.6z M1481.8,1011.4c-2.4,0-4.5-1.6-5-4c-2.9-13.2-5-26.7-6.5-40.3
			c-0.3-2.8,1.8-5.3,4.5-5.6c2.8-0.3,5.3,1.8,5.6,4.5c1.4,13.2,3.5,26.4,6.3,39.2c0.6,2.8-1.1,5.5-3.9,6.1
			C1482.6,1011.4,1482.2,1011.4,1481.8,1011.4z M2217.4,933.7c-2.8,0-5.1-2.3-5.1-5.1v-1.5c0-13.3-0.7-26.6-2.1-39.6
			c-0.3-2.8,1.7-5.3,4.5-5.6c2.7-0.3,5.3,1.7,5.6,4.5c1.4,13.4,2.2,27.1,2.2,40.7v1.5C2222.5,931.4,2220.2,933.7,2217.4,933.7z
			 M1473.4,931.5L1473.4,931.5c-2.8,0-5.1-2.3-5.1-5.1c0-13.5,0.8-27.2,2.2-40.7c0.3-2.8,2.6-5.2,5.6-4.5c2.8,0.3,4.8,2.8,4.5,5.6
			c-1.4,13.1-2.2,26.5-2.2,39.6C1478.5,929.2,1476.2,931.5,1473.4,931.5z M2208.7,852.3c-2.4,0-4.5-1.6-5-4
			c-2.8-12.9-6.4-25.8-10.6-38.3c-0.9-2.7,0.5-5.6,3.2-6.5c2.7-0.9,5.6,0.5,6.5,3.2c4.3,12.8,8,26,10.9,39.3
			c0.6,2.8-1.1,5.5-3.9,6.1C2209.5,852.2,2209.1,852.3,2208.7,852.3z M1482.2,851.6c-0.4,0-0.7,0-1.1-0.1c-2.8-0.6-4.5-3.3-3.9-6.1
			c3-13.4,6.7-26.6,11-39.3c0.9-2.7,3.8-4.1,6.5-3.2c2.7,0.9,4.1,3.8,3.2,6.5c-4.2,12.4-7.8,25.2-10.7,38.2
			C1486.6,849.9,1484.5,851.6,1482.2,851.6z M2183.1,776.1c-1.9,0-3.8-1.1-4.6-3c-5.6-12-11.8-23.8-18.6-35.1
			c-1.5-2.4-0.7-5.5,1.7-7c2.4-1.5,5.5-0.7,7,1.7c7,11.6,13.4,23.7,19.1,36c1.2,2.6,0.1,5.6-2.5,6.8
			C2184.6,775.9,2183.8,776.1,2183.1,776.1z M1507.9,775.4c-0.7,0-1.5-0.2-2.2-0.5c-2.6-1.2-3.7-4.2-2.5-6.8
			c5.7-12.3,12.2-24.4,19.2-36c1.5-2.4,4.6-3.2,7-1.7c2.4,1.5,3.2,4.6,1.7,7c-6.8,11.3-13.1,23.1-18.7,35
			C1511.7,774.3,1509.9,775.4,1507.9,775.4z M2141.6,707.2c-1.5,0-3.1-0.7-4.1-2c-8-10.5-16.6-20.6-25.7-30.3
			c-1.9-2.1-1.9-5.3,0.2-7.2c2.1-2,5.3-1.8,7.2,0.2c9.4,9.9,18.3,20.4,26.4,31.1c1.7,2.2,1.3,5.4-1,7.2
			C2143.8,706.8,2142.7,707.2,2141.6,707.2z M1549.6,706.7c-1.1,0-2.2-0.3-3.1-1.1c-2.2-1.7-2.7-4.9-0.9-7.2
			c8.3-10.8,17.2-21.3,26.5-31c2-2,5.2-2.2,7.2-0.2c2.1,2,2.1,5.2,0.2,7.2c-9,9.5-17.7,19.7-25.8,30.2
			C1552.6,706,1551.1,706.7,1549.6,706.7z M2086.3,648.8c-1.2,0-2.4-0.4-3.3-1.2c-10-8.5-20.6-16.6-31.6-24.1
			c-2.3-1.6-2.9-4.8-1.4-7.1c1.6-2.4,4.8-2.9,7.1-1.4c11.3,7.7,22.2,16,32.5,24.7c2.2,1.8,2.4,5,0.6,7.2
			C2089.2,648.2,2087.8,648.8,2086.3,648.8z M1604.9,648.4c-1.5,0-2.9-0.6-3.9-1.8c-1.8-2.2-1.6-5.4,0.6-7.2
			c10.4-8.8,21.3-17.1,32.5-24.7c2.3-1.6,5.5-1,7.1,1.4c1.6,2.3,1,5.5-1.4,7.1c-10.9,7.4-21.5,15.4-31.7,24
			C1607.3,648,1606.1,648.4,1604.9,648.4z M2019.9,603.6c-0.8,0-1.6-0.2-2.4-0.6c-11.6-6.2-23.8-11.8-36-16.7
			c-2.6-1.1-3.9-4-2.9-6.6c1.1-2.6,4.1-3.8,6.6-2.9c12.6,5,25.1,10.8,37,17.2c2.5,1.3,3.4,4.4,2.1,6.9
			C2023.5,602.6,2021.7,603.6,2019.9,603.6z M1671.5,603.3c-1.8,0-3.6-1-4.5-2.7c-1.3-2.5-0.4-5.6,2.1-6.9
			c12-6.3,24.5-12.1,37.1-17.1c2.6-1,5.6,0.2,6.6,2.9c1,2.6-0.2,5.6-2.9,6.6c-12.3,4.9-24.4,10.5-36.1,16.7
			C1673.1,603.1,1672.3,603.3,1671.5,603.3z M1945.2,573.7c-0.5,0-0.9-0.1-1.4-0.2c-12.6-3.5-25.7-6.4-38.8-8.5
			c-2.8-0.5-4.7-3.1-4.2-5.9c0.5-2.8,2.9-4.6,5.9-4.2c13.4,2.2,26.8,5.2,39.9,8.8c2.7,0.8,4.3,3.6,3.6,6.3
			C1949.5,572.3,1947.4,573.7,1945.2,573.7z M1746.2,573.6c-2.2,0-4.3-1.5-4.9-3.8c-0.7-2.7,0.9-5.5,3.6-6.3
			c13.1-3.6,26.5-6.5,39.9-8.7c3.1-0.3,5.4,1.5,5.9,4.2c0.4,2.8-1.5,5.4-4.2,5.9c-13,2.1-26.1,4.9-38.8,8.5
			C1747.1,573.5,1746.7,573.6,1746.2,573.6z M1865.9,560.8c-0.1,0-0.2,0-0.3,0c-13.1-0.7-26.6-0.7-39.7,0c-2.8,0-5.2-2-5.4-4.8
			c-0.1-2.8,2-5.2,4.8-5.4c13.5-0.7,27.3-0.7,40.8,0c2.8,0.2,5,2.6,4.8,5.4C1870.8,558.7,1868.6,560.8,1865.9,560.8z"/>
	</g>
	<g>
		<path class="st4" d="M680.5,1921.1c-142.9-8.7-275.2-96.2-355.8-214.9c-121.3-178.7-169.5-468.6-24.6-647.9
			c140.4-173.5,397.4-189.8,596.1-120.1c139.6,49,262,153.4,318.2,290.2c131.1,319.7-191,702.8-521.7,693.2
			C688.6,1921.6,684.5,1921.4,680.5,1921.1z"/>
	</g>
	<g>
		<path class="st3" d="M677.2,1396.1c-7.2,0-14.3-0.2-21.4-0.6c-2.8-0.2-5-2.6-4.8-5.4c0.2-2.8,2.8-4.9,5.4-4.8
			c13.1,0.8,26.5,0.8,39.5,0.1c0.1,0,0.2,0,0.3,0c2.7,0,4.9,2.1,5.1,4.8c0.1,2.8-2,5.2-4.8,5.4
			C690.1,1395.9,683.7,1396.1,677.2,1396.1z M736.1,1391.1c-2.5,0-4.6-1.8-5-4.2c-0.5-2.8,1.4-5.4,4.2-5.9c12.9-2.2,25.9-5.2,38.5-9
			c2.7-0.8,5.5,0.8,6.3,3.5c0.8,2.7-0.8,5.5-3.5,6.3c-13,3.8-26.3,6.9-39.7,9.2C736.7,1391.1,736.4,1391.1,736.1,1391.1z
			 M616.3,1390.8c-0.3,0-0.6,0-0.9-0.1c-13.3-2.4-26.6-5.6-39.6-9.5c-2.7-0.8-4.2-3.7-3.4-6.4c0.8-2.7,3.6-4.3,6.4-3.4
			c12.6,3.8,25.5,6.9,38.5,9.2c2.8,0.5,4.6,3.2,4.1,5.9C620.9,1389,618.8,1390.8,616.3,1390.8z M812.9,1368.4c-2,0-3.9-1.2-4.7-3.1
			c-1.1-2.6,0.1-5.6,2.7-6.7c12.1-5.2,24-11.1,35.4-17.7c2.4-1.4,5.6-0.6,7,1.9c1.4,2.5,0.6,5.6-1.9,7c-11.7,6.7-24,12.8-36.4,18.2
			C814.3,1368.3,813.6,1368.4,812.9,1368.4z M539.6,1367.6c-0.7,0-1.4-0.1-2-0.4c-12.4-5.4-24.6-11.6-36.3-18.4
			c-2.4-1.4-3.3-4.5-1.8-7c1.4-2.4,4.5-3.3,7-1.8c11.4,6.6,23.2,12.6,35.2,17.9c2.6,1.1,3.8,4.1,2.7,6.7
			C543.5,1366.5,541.6,1367.6,539.6,1367.6z M882.4,1328.5c-1.6,0-3.1-0.7-4.1-2.1c-1.7-2.3-1.2-5.5,1.1-7.1
			c10.6-7.9,20.8-16.4,30.3-25.3c2-1.9,5.3-1.8,7.2,0.2c1.9,2.1,1.8,5.3-0.2,7.2c-9.8,9.2-20.3,18-31.3,26.1
			C884.6,1328.2,883.5,1328.5,882.4,1328.5z M470.4,1327.3c-1.1,0-2.2-0.3-3.1-1c-10.8-8.1-21.3-17-31.1-26.3
			c-2.1-2-2.1-5.2-0.2-7.2c2-2,5.2-2.1,7.2-0.2c9.5,9,19.7,17.6,30.2,25.5c2.3,1.7,2.7,4.9,1,7.2
			C473.5,1326.6,472,1327.3,470.4,1327.3z M940.9,1273.7c-1.2,0-2.3-0.4-3.3-1.2c-2.2-1.8-2.4-5-0.6-7.2c8.4-10,16.4-20.6,23.7-31.6
			c1.6-2.4,4.7-3,7.1-1.4c2.4,1.6,3,4.7,1.4,7.1c-7.5,11.4-15.8,22.3-24.5,32.5C943.8,1273.1,942.3,1273.7,940.9,1273.7z
			 M412.3,1272.2c-1.5,0-2.9-0.6-3.9-1.8c-8.7-10.3-16.8-21.3-24.3-32.7c-1.6-2.4-0.9-5.5,1.5-7.1c2.4-1.5,5.5-0.9,7.1,1.5
			c7.2,11,15.2,21.7,23.6,31.8c1.8,2.2,1.5,5.4-0.6,7.2C414.6,1271.8,413.4,1272.2,412.3,1272.2z M985.2,1207
			c-0.8,0-1.6-0.2-2.3-0.6c-2.5-1.3-3.5-4.3-2.2-6.9c5.9-11.7,11.3-23.9,15.8-36.2c1-2.6,3.8-4,6.6-3c2.6,1,4,3.9,3,6.6
			c-4.7,12.7-10.2,25.3-16.3,37.3C988.8,1206,987,1207,985.2,1207z M368.4,1205.2c-1.9,0-3.7-1-4.6-2.8c-6-12.1-11.5-24.7-16.1-37.4
			c-1-2.7,0.4-5.6,3.1-6.5c2.7-0.9,5.6,0.4,6.5,3.1c4.5,12.4,9.7,24.6,15.6,36.3c1.3,2.5,0.2,5.6-2.3,6.9
			C369.9,1205,369.1,1205.2,368.4,1205.2z M1012.9,1131.9c-0.4,0-0.8,0-1.2-0.1c-2.7-0.7-4.4-3.4-3.8-6.2c3.1-12.7,5.4-25.8,7-38.9
			c0.3-2.8,2.8-4.8,5.7-4.4c2.8,0.3,4.8,2.9,4.4,5.7c-1.6,13.5-4,26.9-7.2,40.1C1017.3,1130.3,1015.2,1131.9,1012.9,1131.9z
			 M341.1,1129.9c-2.3,0-4.4-1.6-5-3.9c-3.1-13.1-5.4-26.7-6.9-40.1c-0.3-2.8,1.7-5.3,4.5-5.6c2.9-0.4,5.3,1.7,5.6,4.5
			c1.5,13.1,3.8,26.2,6.7,39c0.7,2.7-1.1,5.5-3.8,6.1C341.9,1129.8,341.5,1129.9,341.1,1129.9z M1022.4,1051.6
			c-2.8,0-5.1-1.6-5.1-4.4l0-1.6c0-13-0.8-26.3-2.3-39.3c-0.3-2.8,1.7-5.3,4.5-5.6c3.1-0.4,5.3,1.7,5.6,4.5
			c1.6,13.4,2.3,27.1,2.3,40.6C1027.5,1048.6,1025.2,1051.6,1022.4,1051.6z M332.1,1050.3C332.1,1050.3,332.1,1050.3,332.1,1050.3
			c-2.8,0-5.1-2.3-5.1-5.1c0-13.6,0.9-27.3,2.4-40.6c0.3-2.8,2.9-4.8,5.7-4.5c2.8,0.3,4.8,2.9,4.5,5.7c-1.5,12.9-2.3,26.2-2.3,39.5
			C337.2,1048,334.9,1050.3,332.1,1050.3z M1013.2,971.4c-2.3,0-4.4-1.6-5-3.9c-3-12.8-6.8-25.5-11.3-37.9c-1-2.7,0.4-5.6,3-6.5
			c2.6-1,5.6,0.4,6.5,3c4.7,12.7,8.6,25.9,11.7,39c0.7,2.8-1.1,5.5-3.8,6.1C1014,971.4,1013.6,971.4,1013.2,971.4z M341.4,970.7
			c-0.4,0-0.8,0-1.2-0.1c-2.7-0.7-4.4-3.4-3.8-6.2c3.2-13.2,7.1-26.3,11.7-39c1-2.7,3.9-4,6.5-3c2.7,1,4,3.9,3,6.5
			c-4.5,12.3-8.3,25.1-11.4,37.8C345.8,969.1,343.7,970.7,341.4,970.7z M985.8,896.1c-1.9,0-3.7-1-4.6-2.8
			c-5.8-11.6-12.5-23.1-19.8-34.2c-1.6-2.4-0.9-5.5,1.5-7.1c2.3-1.5,5.5-0.9,7.1,1.5c7.5,11.4,14.4,23.3,20.4,35.2
			c1.3,2.5,0.2,5.6-2.3,6.9C987.3,895.9,986.6,896.1,985.8,896.1z M369,895.5c-0.8,0-1.6-0.2-2.3-0.5c-2.5-1.3-3.5-4.3-2.3-6.9
			c6.1-12.1,13-23.9,20.4-35.2c1.6-2.4,4.8-3,7.1-1.5c2.4,1.6,3,4.7,1.5,7.1c-7.3,11-13.9,22.4-19.8,34.2
			C372.6,894.5,370.8,895.5,369,895.5z M941.7,829.1c-1.5,0-2.9-0.6-3.9-1.8c-8.5-10.1-17.6-19.8-27.1-28.8
			c-2.1-1.9-2.1-5.2-0.2-7.2c1.9-2,5.2-2.2,7.2-0.2c9.8,9.3,19.2,19.2,27.9,29.6c1.8,2.2,1.5,5.4-0.6,7.2
			C944.1,828.7,942.9,829.1,941.7,829.1z M413.1,828.7c-1.2,0-2.3-0.4-3.3-1.2c-2.2-1.8-2.4-5-0.6-7.2c8.7-10.3,18.1-20.3,28-29.5
			c2.1-2,5.3-1.9,7.2,0.2c1.9,2.1,1.8,5.3-0.2,7.2c-9.6,9-18.7,18.7-27.2,28.7C416,828,414.6,828.7,413.1,828.7z M883.5,774.1
			c-1.1,0-2.1-0.3-3.1-1c-10.6-7.9-21.7-15.2-33-21.7c-2.5-1.4-3.3-4.5-1.9-7c1.4-2.5,4.6-3.3,7-1.9c11.7,6.8,23.1,14.3,34,22.4
			c2.3,1.7,2.7,4.9,1,7.1C886.6,773.4,885.1,774.1,883.5,774.1z M471.5,773.8c-1.6,0-3.1-0.7-4.1-2.1c-1.7-2.3-1.2-5.5,1-7.1
			c10.9-8.1,22.3-15.6,34-22.4c2.4-1.4,5.5-0.6,7,1.9c1.4,2.5,0.6,5.6-1.9,7c-11.4,6.5-22.5,13.8-33,21.7
			C473.6,773.4,472.5,773.8,471.5,773.8z M814.2,734c-0.7,0-1.4-0.1-2-0.4c-12.1-5.2-24.6-9.8-37.1-13.6c-2.7-0.8-4.2-3.7-3.4-6.4
			c0.8-2.7,3.6-4.3,6.4-3.4c12.9,3.9,25.8,8.6,38.3,14c2.6,1.1,3.8,4.1,2.7,6.7C818.1,732.9,816.2,734,814.2,734z M540.9,733.8
			c-2,0-3.8-1.2-4.7-3.1c-1.1-2.6,0.1-5.6,2.7-6.7c12.3-5.3,25.2-10,38.3-13.9c2.8-0.9,5.5,0.7,6.3,3.4c0.8,2.7-0.7,5.5-3.4,6.3
			c-12.7,3.8-25.2,8.3-37.2,13.5C542.2,733.6,541.5,733.8,540.9,733.8z M737.5,711c-0.3,0-0.6,0-0.9-0.1
			c-12.8-2.3-26.1-3.8-39.3-4.6c-2.8-0.2-5-2.6-4.8-5.4c0.2-2.8,2.6-4.7,5.4-4.8c13.6,0.8,27.2,2.4,40.4,4.7
			c2.8,0.5,4.6,3.1,4.1,5.9C742.1,709.3,739.9,711,737.5,711z M617.7,710.9c-2.4,0-4.6-1.8-5-4.2c-0.5-2.8,1.4-5.4,4.1-5.9
			c13.3-2.3,26.9-3.9,40.5-4.6c2.7-0.2,5.2,2,5.4,4.8c0.2,2.8-2,5.2-4.8,5.4c-13.1,0.7-26.4,2.3-39.3,4.5
			C618.3,710.9,618,710.9,617.7,710.9z"/>
	</g>
	<g>
		<path class="st3" d="M2181,1390.3c-0.4,0-0.8-0.1-1.1-0.3l-24.3-12.8l-24.3,12.8c-0.9,0.4-1.8,0.3-2.6-0.2c-0.8-0.5-1.1-1.5-1-2.4
			l4.6-27.1l-19.7-19.2c-0.7-0.6-0.9-1.6-0.6-2.5s1-1.5,2-1.6l27.2-4l12.2-24.6c0.8-1.7,3.5-1.7,4.4,0l12.2,24.6l27.2,4
			c0.9,0.1,1.7,0.8,2,1.6s0,1.8-0.6,2.5l-19.7,19.2l4.6,27.1c0.2,0.9-0.2,1.8-1,2.4C2182,1390.2,2181.5,1390.3,2181,1390.3z
			 M2155.6,1372.1c0.4,0,0.8,0.1,1.1,0.3l21.1,11.1l-4-23.5c-0.1-0.8,0.1-1.6,0.7-2.1l17.1-16.7l-23.6-3.4c-0.8-0.1-1.5-0.6-1.8-1.3
			l-10.6-21.4l-10.6,21.4c-0.4,0.7-1,1.2-1.8,1.3l-23.6,3.4l17.1,16.7c0.6,0.5,0.8,1.4,0.7,2.1l-4,23.5l21.1-11.1
			C2154.8,1372.2,2155.2,1372.1,2155.6,1372.1z"/>
	</g>
	<g>
		<path class="st3" d="M657.2,644.9c-0.4,0-0.8-0.1-1.1-0.3l-24.3-12.8l-24.3,12.8c-0.9,0.4-1.8,0.3-2.6-0.2c-0.8-0.5-1.1-1.5-1-2.4
			l4.6-27.1l-19.7-19.2c-0.7-0.6-0.9-1.6-0.6-2.5c0.3-0.9,1-1.5,2-1.6l27.2-4l12.2-24.6c0.8-1.7,3.5-1.7,4.4,0l12.2,24.6l27.2,4
			c0.9,0.1,1.7,0.8,2,1.6c0.3,0.9,0,1.8-0.6,2.5L654.9,615l4.6,27.1c0.2,0.9-0.2,1.8-1,2.4C658.2,644.7,657.7,644.9,657.2,644.9z
			 M631.7,626.7c0.4,0,0.8,0.1,1.1,0.3L654,638l-4-23.5c-0.1-0.8,0.1-1.6,0.7-2.1l17.1-16.7l-23.6-3.4c-0.8-0.1-1.5-0.6-1.8-1.3
			l-10.6-21.4L621.2,591c-0.4,0.7-1,1.2-1.8,1.3l-23.6,3.4l17.1,16.7c0.6,0.5,0.8,1.4,0.7,2.1l-4,23.5l21.1-11.1
			C631,626.8,631.3,626.7,631.7,626.7z"/>
	</g>
	<g>
		<g>
			<path class="st3" d="M636.5,854.6h-42.7c-0.8,0-1.5-0.7-1.5-1.5v-42.7c0-0.8,0.7-1.5,1.5-1.5h42.7c0.8,0,1.5,0.7,1.5,1.5v42.7
				C638,853.9,637.3,854.6,636.5,854.6z M595.3,851.6H635v-39.7h-39.7V851.6z"/>
		</g>
		<g>
			<path class="st3" d="M612,845.1c-0.4,0-0.8-0.2-1.1-0.5l-11.7-12.4c-0.6-0.6-0.5-1.5,0.1-2.1c0.6-0.6,1.5-0.5,2.1,0.1l10.5,11.1
				l19-25.2c0.5-0.7,1.4-0.8,2.1-0.3c0.7,0.5,0.8,1.4,0.3,2.1l-20.1,26.7C613,844.8,612.6,845,612,845.1L612,845.1z"/>
		</g>
	</g>
	<g>
		<g>
			<path class="st3" d="M360.3,1334.8h-33.9c-0.7,0-1.2-0.5-1.2-1.2v-33.9c0-0.7,0.5-1.2,1.2-1.2h33.9c0.7,0,1.2,0.5,1.2,1.2v33.9
				C361.5,1334.3,361,1334.8,360.3,1334.8z M327.6,1332.4h31.5v-31.5h-31.5V1332.4z"/>
		</g>
		<g>
			<path class="st3" d="M340.9,1327.2c-0.3,0-0.6-0.1-0.9-0.4l-9.3-9.8c-0.4-0.5-0.4-1.2,0.1-1.7s1.2-0.4,1.7,0.1l8.3,8.8l15.1-20
				c0.4-0.5,1.1-0.6,1.7-0.2c0.5,0.4,0.6,1.1,0.2,1.7l-15.9,21.1C341.6,1327.1,341.3,1327.2,340.9,1327.2L340.9,1327.2z"/>
		</g>
	</g>
	<g>
		<g>
			<path class="st3" d="M2303,1119.7h-33.9c-0.7,0-1.2-0.5-1.2-1.2v-33.9c0-0.7,0.5-1.2,1.2-1.2h33.9c0.7,0,1.2,0.5,1.2,1.2v33.9
				C2304.1,1119.2,2303.6,1119.7,2303,1119.7z M2270.3,1117.4h31.5v-31.5h-31.5V1117.4z"/>
		</g>
		<g>
			<path class="st3" d="M2283.6,1112.2c-0.3,0-0.6-0.1-0.9-0.4l-9.3-9.8c-0.4-0.5-0.4-1.2,0.1-1.7c0.5-0.4,1.2-0.4,1.7,0.1l8.3,8.8
				l15.1-20c0.4-0.5,1.1-0.6,1.7-0.2c0.5,0.4,0.6,1.1,0.2,1.7l-15.9,21.1C2284.3,1112,2284,1112.2,2283.6,1112.2L2283.6,1112.2z"/>
		</g>
	</g>
	<g>
		<g>
			<path class="st3" d="M1627.4,552.5c-0.4,0-0.8-0.2-1.1-0.5c-4.6-4.9-9.1-9.5-13.2-13.7c-17.3-17.8-28.7-29.6-28.9-39.8
				c-0.1-6.2,2.2-12.1,6.5-16.6c4.3-4.5,10.1-7,16.3-7.1l0.5,0c7.4,0,14.1,3.5,18.5,9.3c4.2-6.1,11.1-10,18.6-10.1l0.5,0
				c12.5,0,23,10.2,23.2,22.8c0.2,11.1-14,26.8-32,46.6c-2.5,2.8-5.1,5.7-7.8,8.6C1628.2,552.4,1627.8,552.5,1627.4,552.5
				L1627.4,552.5z M1607.5,477.8l-0.4,0c-5.4,0.1-10.5,2.3-14.2,6.2c-3.8,3.9-5.8,9-5.6,14.5c0.2,9.1,11.9,21.1,28,37.8
				c3.8,3.9,7.9,8.1,12.1,12.6c2.3-2.5,4.5-5,6.7-7.4c17.6-19.4,31.5-34.7,31.3-44.6c-0.2-11-9.3-19.9-20.3-19.9l-0.4,0
				c-7.2,0.1-13.8,4.2-17.3,10.6c-0.3,0.5-0.7,0.8-1.3,0.8h0c-0.5,0-1-0.3-1.3-0.7C1621,481.5,1614.6,477.8,1607.5,477.8z"/>
		</g>
	</g>
	<g>
		<path class="st0" d="M777.9,1173.3c-2.3,21.6-13.5,38.8-28,43.7c14.5,4.8,25.7,22.1,28,43.7c2.3-21.6,13.5-38.8,28-43.7
			C791.4,1212.1,780.2,1194.8,777.9,1173.3z"/>
	</g>
	<g>
		<path class="st0" d="M437.9,1032.8c-3.8,35-21.9,63-45.5,70.9c23.6,7.9,41.7,35.9,45.5,70.9c3.8-35,21.9-63,45.5-70.9
			C459.9,1095.9,441.7,1067.8,437.9,1032.8z"/>
	</g>
	<g>
		<path class="st0" d="M1760,811.5c-4.8,45.1-28.2,81.2-58.6,91.3c30.3,10.1,53.7,46.2,58.6,91.3c4.8-45.1,28.2-81.2,58.6-91.3
			C1788.3,892.7,1764.8,856.6,1760,811.5z"/>
	</g>
	<g>
		<path class="st0" d="M1822.1,620.8c-3.2,29.4-18.4,52.9-38.2,59.5c19.8,6.6,35,30.1,38.2,59.5c3.2-29.4,18.4-52.9,38.2-59.5
			C1840.5,673.7,1825.3,650.2,1822.1,620.8z"/>
	</g>
	<g>
		<g>
			<path class="st0" d="M1659.3,610H865.4c-0.5,0-0.8,0.4-0.8,0.8v1379.4c0,0.7,0.6,1.4,1.4,1.4h792.9c0.7,0,1.4-0.6,1.4-1.4V610.8
				C1660.2,610.3,1659.8,610,1659.3,610z"/>
		</g>
		<g>
			<path class="st1" d="M1641.5,612.1H892.1c-12.8,0-23.1,10.3-23.1,23.1v104.6h795.6V635.2C1664.6,622.4,1654.3,612.1,1641.5,612.1
				z"/>
		</g>
		<g>
			<path class="st0" d="M1020.9,722.7c1.7,0,3.4-0.8,4.5-2.3c1.8-2.5,1.3-6-1.2-7.8l-37.9-27.6l42.2-26.2c2.6-1.6,3.4-5.1,1.8-7.7
				c-1.6-2.6-5.1-3.4-7.7-1.8L973.4,680c-1.6,1-2.5,2.7-2.6,4.5c-0.1,1.8,0.8,3.6,2.3,4.7l44.5,32.5
				C1018.6,722.4,1019.8,722.7,1020.9,722.7z"/>
		</g>
		<g>
			<path class="st0" d="M1468.6,722.7c-1.7,0-3.4-0.8-4.5-2.3c-1.8-2.5-1.3-6,1.2-7.8l37.9-27.6l-42.2-26.2
				c-2.6-1.6-3.4-5.1-1.8-7.7c1.6-2.6,5.1-3.4,7.7-1.8l49.2,30.6c1.6,1,2.5,2.7,2.6,4.5c0.1,1.8-0.8,3.6-2.3,4.7l-44.5,32.5
				C1470.9,722.4,1469.8,722.7,1468.6,722.7z"/>
		</g>
		<g>
			<path class="st0" d="M1387.1,686.1h-258c-5.6,0-10.2-4.6-10.2-10.2c0-5.6,4.6-10.2,10.2-10.2h258c5.6,0,10.2,4.6,10.2,10.2
				C1397.3,681.5,1392.7,686.1,1387.1,686.1z"/>
		</g>
		<g>
			<g>
				<path class="st5" d="M1625.8,2004.2H898.9c-25.9,0-47-21.1-47-47v-1326c0-18.7,15.2-33.9,33.8-33.9H1639
					c18.7,0,33.8,15.2,33.8,33.9v1326C1672.8,1983.1,1651.7,2004.2,1625.8,2004.2z M885.7,622.6c-4.7,0-8.5,3.8-8.5,8.5v1326
					c0,12,9.7,21.7,21.7,21.7h726.9c12,0,21.7-9.7,21.7-21.7v-1326c0-4.7-3.8-8.5-8.5-8.5H885.7z"/>
			</g>
		</g>
	</g>
	<g>
		<g>
			
				<ellipse transform="matrix(0.9828 -0.1849 0.1849 0.9828 -330.4708 247.3827)" class="st6" cx="1160.9" cy="1895.3" rx="18.1" ry="18.1"/>
		</g>
		<g>
			
				<ellipse transform="matrix(0.9847 -0.174 0.174 0.9847 -310.9428 243.3107)" class="st7" cx="1232.4" cy="1895.3" rx="18.1" ry="18.1"/>
		</g>
		<g>
			
				<ellipse transform="matrix(0.7071 -0.7071 0.7071 0.7071 -956.406 1481.5708)" class="st6" cx="1310.2" cy="1895.3" rx="18.1" ry="18.1"/>
		</g>
		<g>
			
				<ellipse transform="matrix(0.9871 -0.1602 0.1602 0.9871 -285.7475 245.7889)" class="st6" cx="1381.7" cy="1895.3" rx="18.1" ry="18.1"/>
		</g>
	</g>
	<g>
		<rect x="939" y="1075.2" class="st8" width="628.1" height="725.1"/>
	</g>
	<g>
		<rect x="939" y="782.4" class="st8" width="628.1" height="267.2"/>
	</g>
	<g>
		<g>
			<path class="st5" d="M836.2,550.5l19.7,82.7c0,0,163.7,120.5,296.3-38l-1.3-72.9L836.2,550.5z"/>
		</g>
		<g>
			<polygon class="st0" points="1153.8,546.7 999,610 837.1,572.8 834.5,533 1149.2,504.8 			"/>
		</g>
		<g>
			<polygon class="st9" points="702.4,579.8 993.6,455.1 1294.5,486.1 1295.7,498.8 996.1,632 703.6,592.6 			"/>
		</g>
		<g>
			<path class="st10" d="M815.6,733.8c2.3-0.2,4-2.2,3.8-4.5l-8.9-133.2l175.7-72c2.2-0.9,3.2-3.4,2.3-5.6c-0.9-2.2-3.4-3.2-5.6-2.3
				l-178.5,73.2c-1.7,0.7-2.8,2.4-2.6,4.2l9.1,136.3c0.2,2.3,2.2,4.1,4.5,4C815.5,733.9,815.6,733.8,815.6,733.8z"/>
		</g>
		<g>
			<path class="st10" d="M803.1,730.2c-0.7-6.9,4.4-13,11.2-13.7c6.9-0.7,13,4.4,13.7,11.2c0.7,6.9-4.4,13-11.2,13.7
				C809.9,742.1,803.8,737,803.1,730.2z"/>
		</g>
		<g>
			<path class="st10" d="M808.9,734.1l-13.7,62.4c0,0,29.2,19.1,47.2-4.6L821.2,734L808.9,734.1z"/>
		</g>
	</g>
	<g>
		<rect x="970.5" y="1150.9" class="st1" width="234.3" height="238.3"/>
	</g>
	<g>
		<rect x="970.5" y="1449.6" class="st1" width="234.3" height="238.3"/>
	</g>
	<g>
		<path class="st0" d="M1175.1,1368.8h-172.7c-1.3,0-2.5-0.5-3.4-1.4c-0.9-0.9-1.4-2.1-1.3-3.4c0-0.9,2.7-91,92.4-91
			c26.6,0,48,8,63.6,23.7c26.3,26.7,26.2,65.8,26.2,67.4C1179.8,1366.7,1177.7,1368.8,1175.1,1368.8z M1007.4,1359.4h162.8
			c-0.8-10.7-4.7-37.3-23.3-56.1c-13.7-13.8-32.8-20.9-56.8-20.9C1020.2,1282.4,1009.2,1341.7,1007.4,1359.4z"/>
	</g>
	<g>
		<path class="st0" d="M1089.6,1283.2c-30.7,0-55.7-25-55.7-55.7c0-30.7,25-55.7,55.7-55.7c30.7,0,55.7,25,55.7,55.7
			C1145.3,1258.2,1120.3,1283.2,1089.6,1283.2z M1089.6,1181.2c-25.5,0-46.3,20.8-46.3,46.3s20.8,46.3,46.3,46.3
			c25.5,0,46.3-20.8,46.3-46.3S1115.1,1181.2,1089.6,1181.2z"/>
	</g>
	<g>
		<path class="st0" d="M1175.1,1666.3h-172.7c-1.3,0-2.5-0.5-3.4-1.4c-0.9-0.9-1.4-2.1-1.3-3.4c0-0.9,2.7-91,92.4-91
			c26.6,0,48,8,63.6,23.7c26.3,26.7,26.2,65.8,26.2,67.4C1179.8,1664.2,1177.7,1666.3,1175.1,1666.3z M1007.4,1656.8h162.8
			c-0.8-10.7-4.7-37.3-23.3-56.1c-13.7-13.8-32.8-20.9-56.8-20.9C1020.2,1579.9,1009.2,1639.2,1007.4,1656.8z"/>
	</g>
	<g>
		<path class="st0" d="M1089.6,1580.7c-30.7,0-55.7-25-55.7-55.7c0-30.7,25-55.7,55.7-55.7c30.7,0,55.7,25,55.7,55.7
			C1145.3,1555.7,1120.3,1580.7,1089.6,1580.7z M1089.6,1478.6c-25.5,0-46.3,20.8-46.3,46.3c0,25.5,20.8,46.3,46.3,46.3
			c25.5,0,46.3-20.8,46.3-46.3C1135.9,1499.4,1115.1,1478.6,1089.6,1478.6z"/>
	</g>
	<g>
		<path class="st1" d="M1371.4,1183.2h-122.6c-5.6,0-10.2-4.6-10.2-10.2c0-5.6,4.6-10.2,10.2-10.2h122.6c5.6,0,10.2,4.6,10.2,10.2
			C1381.6,1178.7,1377,1183.2,1371.4,1183.2z"/>
	</g>
	<g>
		<path class="st1" d="M1495.6,1240.3h-250.2c-5.6,0-10.2-4.6-10.2-10.2c0-5.6,4.6-10.2,10.2-10.2h250.2c5.6,0,10.2,4.6,10.2,10.2
			C1505.8,1235.7,1501.3,1240.3,1495.6,1240.3z"/>
	</g>
	<g>
		<path class="st1" d="M1349.2,1293h-105.5c-5.6,0-10.2-4.6-10.2-10.2c0-5.6,4.6-10.2,10.2-10.2h105.5c5.6,0,10.2,4.6,10.2,10.2
			C1359.4,1288.5,1354.9,1293,1349.2,1293z"/>
	</g>
	<g>
		<path class="st1" d="M1359.4,871.7h-122.6c-5.6,0-10.2-4.6-10.2-10.2c0-5.6,4.6-10.2,10.2-10.2h122.6c5.6,0,10.2,4.6,10.2,10.2
			C1369.6,867.2,1365.1,871.7,1359.4,871.7z"/>
	</g>
	<g>
		<path class="st1" d="M1483.7,928.8h-250.2c-5.6,0-10.2-4.6-10.2-10.2c0-5.6,4.6-10.2,10.2-10.2h250.2c5.6,0,10.2,4.6,10.2,10.2
			C1493.9,924.2,1489.4,928.8,1483.7,928.8z"/>
	</g>
	<g>
		<path class="st1" d="M1337.3,981.5h-105.5c-5.6,0-10.2-4.6-10.2-10.2c0-5.6,4.6-10.2,10.2-10.2h105.5c5.6,0,10.2,4.6,10.2,10.2
			C1347.5,977,1343,981.5,1337.3,981.5z"/>
	</g>
	<g>
		<path class="st1" d="M1514.4,1293h-114.1c-5.6,0-10.2-4.6-10.2-10.2c0-5.6,4.6-10.2,10.2-10.2h114.1c5.6,0,10.2,4.6,10.2,10.2
			C1524.6,1288.5,1520,1293,1514.4,1293z"/>
	</g>
	<g>
		<polygon class="st10" points="1257.3,1324.7 1267,1344.3 1288.7,1347.5 1273,1362.8 1276.7,1384.5 1257.3,1374.2 1237.9,1384.5 
			1241.6,1362.8 1225.9,1347.5 1247.6,1344.3 		"/>
	</g>
	<g>
		<polygon class="st10" points="1332.2,1324.7 1341.9,1344.3 1363.6,1347.5 1347.9,1362.8 1351.6,1384.5 1332.2,1374.2 
			1312.8,1384.5 1316.5,1362.8 1300.8,1347.5 1322.5,1344.3 		"/>
	</g>
	<g>
		<polygon class="st10" points="1406.3,1324.7 1416,1344.3 1437.7,1347.5 1422,1362.8 1425.7,1384.5 1406.3,1374.2 1386.8,1384.5 
			1390.5,1362.8 1374.8,1347.5 1396.5,1344.3 		"/>
	</g>
	<g>
		<path class="st1" d="M1371.4,1477.7h-122.6c-5.6,0-10.2-4.6-10.2-10.2s4.6-10.2,10.2-10.2h122.6c5.6,0,10.2,4.6,10.2,10.2
			S1377,1477.7,1371.4,1477.7z"/>
	</g>
	<g>
		<path class="st1" d="M1495.6,1534.8h-250.2c-5.6,0-10.2-4.6-10.2-10.2c0-5.6,4.6-10.2,10.2-10.2h250.2c5.6,0,10.2,4.6,10.2,10.2
			C1505.8,1530.2,1501.3,1534.8,1495.6,1534.8z"/>
	</g>
	<g>
		<path class="st1" d="M1349.2,1587.5h-105.5c-5.6,0-10.2-4.6-10.2-10.2s4.6-10.2,10.2-10.2h105.5c5.6,0,10.2,4.6,10.2,10.2
			S1354.9,1587.5,1349.2,1587.5z"/>
	</g>
	<g>
		<path class="st1" d="M1514.4,1587.5h-114.1c-5.6,0-10.2-4.6-10.2-10.2s4.6-10.2,10.2-10.2h114.1c5.6,0,10.2,4.6,10.2,10.2
			S1520,1587.5,1514.4,1587.5z"/>
	</g>
	<g>
		<polygon class="st10" points="1257.3,1619.2 1267,1638.8 1288.7,1642 1273,1657.3 1276.7,1678.9 1257.3,1668.7 1237.9,1678.9 
			1241.6,1657.3 1225.9,1642 1247.6,1638.8 		"/>
	</g>
	<g>
		<polygon class="st10" points="1332.2,1619.2 1341.9,1638.8 1363.6,1642 1347.9,1657.3 1351.6,1678.9 1332.2,1668.7 1312.8,1678.9 
			1316.5,1657.3 1300.8,1642 1322.5,1638.8 		"/>
	</g>
	<g>
		<polygon class="st10" points="1406.3,1619.2 1416,1638.8 1437.7,1642 1422,1657.3 1425.7,1678.9 1406.3,1668.7 1386.8,1678.9 
			1390.5,1657.3 1374.8,1642 1396.5,1638.8 		"/>
	</g>
	<g>
		<polygon class="st10" points="1484.6,1619.2 1494.3,1638.8 1516,1642 1500.3,1657.3 1504,1678.9 1484.6,1668.7 1465.1,1678.9 
			1468.8,1657.3 1453.1,1642 1474.8,1638.8 		"/>
	</g>
	<g>
		<rect x="972.2" y="818.1" class="st1" width="202.6" height="206"/>
	</g>
	<g>
		<path class="st11" d="M2251.8,2043.7h-1961c-11.3,0-20.4-9.1-20.4-20.4s9.1-20.4,20.4-20.4h1961c11.3,0,20.4,9.1,20.4,20.4
			S2263.1,2043.7,2251.8,2043.7z"/>
	</g>
	<g>
		<g>
			<path class="st12" d="M1838.8,1053.8c-17.4,46.5-105.8,205.5-105.8,205.5l17.4,11.3c0,0,48.3-39.3,107.4-132.7
				c59.1-93.4,55.2-139.8,55.2-139.8L1838.8,1053.8z"/>
		</g>
		<g>
			<path class="st12" d="M1760.3,1265.3c0,0-7.2,22.3-14.5,31.1c-7.2,8.9-22.1,23.7-22.1,23.7s-7.9,2.4,1.7-11.2
				c9.6-13.7,6.7-15.7,6.7-15.7l-12.1,6.5c0,0-10.7,27.7-18.6,25l10.1-23.5c0,0-12.2,27.9-19.2,23.7l6-13.9c0,0-6.2,10.3-10.3,8.2
				l12-32.5l7-6.7l-7.8,6.1c0,0-9.8,18.1-14.3,15.1c0,0,10.2-22.3,11.4-23.8s36.5-22.7,49-31.6
				C1757.9,1237.1,1760.3,1265.3,1760.3,1265.3z"/>
		</g>
		<g>
			<path class="st13" d="M1770.8,1221.3c-4-2.2-8.1-4.2-12.3-6.1c-1.1-0.5-2.3-1-3.5-0.9c-1.9,0.1-3.5,1.5-4.9,2.7
				c-14.1,11.6-35.8,12-48,25.6c-2.1,2.3-3.8,6-1.7,8.3c1,1.1,2.6,1.4,4.1,1.6c3.5,0.4,7.1,0.1,10.6-0.7c1.8-0.5,3.8-1.1,5.4-0.1
				c0.9,0.5,1.4,1.4,1.9,2.3c2.6,4.6,3.9,9.9,3.6,15.2c10.9,4.3,22.2-9.7,33.5-6.9c3.8,1,7.1,3.9,8.4,7.6c0.6,1.6,0.8,3.4,1.7,4.8
				c2.9,4.9,10.1,3.7,15.5,1.9c-4.7-10.4-4.4-22.2-3.7-33.6c0.3-5.1,0.6-10.6-2.2-14.9C1777.2,1225,1774,1223,1770.8,1221.3z"/>
		</g>
		<g>
			<path class="st14" d="M1832,1042.7c0,0-6.7,31.7-10.6,37.5c-3.8,5.8-11.5,0-11.5,8.6s1.4,10.6,1,15.4
				c-0.5,4.8-61.5,110.9-61.5,110.9s30.7,28.8,34.1,28.3c3.4-0.5,65.8-81.2,65.8-81.2s-3.8-88.8-3.8-91.7
				C1845.5,1067.6,1832,1042.7,1832,1042.7z"/>
		</g>
		<g>
			<path class="st15" d="M2047.3,834.1c3.8,5.4,3.1,12.7,5.4,18.9c2.6,6.8,9.4,11.9,16.7,12.5c4.4,0.4,9-0.8,13.4-0.1
				c6.9,1,12.7,6.7,14.7,13.4c2,6.7,0.5,14.2-3.2,20.1c-3.7,5.8-9.4,10.5-11.2,17.2c-4,15.2,14.9,30.4,9,44.9
				c-4.1,10-18.4,12.2-27.8,6.7c-2.1-1.2-4.1-2.8-6.5-2.9c-4.9-0.2-7.9,5.2-9,9.9c-2.1,9.6-1,20.5-7,28.4c-6.1,8-18.1,9.8-27.4,6.1
				c-9.3-3.8-16.2-12-20.9-20.9c-2.4-4.6-4.5-9.6-8.6-12.9c-8.7-6.9-21.3-2.3-31.5,2c-10.2,4.3-23.6,7.7-31.1-0.5
				c-4.2-4.5-4.9-11.2-5.4-17.4c-1-12.5-2-25.1-3-37.6c-1.2-15.4-2.5-31-0.1-46.3c4.2-27.5,19.8-52,25.2-79.3
				c3.8-19.4,2.7-40.3,12.3-57.6c11.7,4.3,20.9,14.9,23.6,27.1c0.6,2.8,0.9,5.7,2.5,8.1c1.5,2.3,4,3.8,6.6,5
				c5.6,2.6,11.7,4.1,16.9,7.4c5.2,3.4,9.4,9.4,8.1,15.4c-0.6,2.7-2.2,5.1-2.6,7.8c-1.4,8.6,8.8,14.4,17.4,15.7
				C2032.2,826.7,2042.3,827,2047.3,834.1z"/>
		</g>
		<g>
			<path class="st16" d="M2089.6,1969.9l-3.1-1.4l19.5,20.7c3,3.1,7.9,3.3,11.1,0.3l35.3-33.3c1.8-1.7,2.7-4.3,2.4-6.8l-9.9-33.8
				l19.4,20.5c2.4,2.6,6.4,2.7,9,0.3l11.6-11c2.4-2.3,2.7-6,0.6-8.6l-45.5-57.4l-23.9,29.9l-16.3,32.1l-4.2,36.6L2089.6,1969.9z"/>
		</g>
		<g>
			<path class="st12" d="M2089.8,1805.9c0,0,13.8,27.6,17.5,31.5c3.7,3.9,27.6,8.4,31.1,21.1c3.4,12.8-18.8,21-18.7,43.2
				c0,22.2,6.5,31.2-9.8,49.1c-16.3,17.9-25.9,26-25.5,12.6c0-1.3,3.1-6.2,8.4-15c5.3-8.7-9.8-47.8-16.1-80.9
				c-4-21.3-31.5-72.5-31.5-72.5L2089.8,1805.9z"/>
		</g>
		<g>
			<path class="st16" d="M2110,1955.9c0,0-0.5-0.4-1.4-0.9c-2.9-1.9-9.8-5.9-17.4-5.9c0,0,3.2-8.8-4.9-36.9c0,0,31.5-9.2,40.6-2.7
				c9.1,6.6,0.5,20.9,0.5,20.9s-12.6-10.7-31.4-0.7l0.4,7.4c0,0,18.5,3.5,24.1,7.6c5.6,4.2-2.1,15.1-2.1,15.1L2110,1955.9z"/>
		</g>
		<g>
			<path class="st17" d="M1909.8,1072.9c21.1-35.2-22.2-83.2-70.9-85.2c17.1-24.5,41.5-54.5,41.5-54.5l46.4-25.8l34,6.6
				c38.1,39.2-4,185.8-9.7,204.7c-5.7,18.9,8,51.4,8,51.4l-114.4,35.5c0,0,0.7-46.5-4.5-69.6c-3.1-13.8-4.6-39.1-5.4-57.3
				C1857.6,1087.9,1903.3,1086,1909.8,1072.9z"/>
		</g>
		<g>
			<path class="st13" d="M1832.7,996.9c1.9-2.9,4-6,6.2-9.1c48.7,2,92,50,70.9,85.2c-6.6,13.1-52.2,15-75,5.7
				c-0.5-12.3-0.6-21.3-0.6-21.3C1812.8,1037.8,1826.1,1007.1,1832.7,996.9z"/>
		</g>
		<g>
			<path class="st17" d="M1962.1,751.5c-24.5-40.1-75.2-21.9-75.2-21.9c-28.7,12.9-33.7,24.3-36.1,31.9c-2.5,7.6,0.5,28.7-1.9,33.9
				c-5.1,11.1-13.4,19.4-13.9,20.9c-0.4,1.6,1.3,5.4,6.7,7.2c0,0,0.8,6.4-0.4,7.6s-2.9,1.3-3,4.6c0,2.3,4.5,5.9,4.5,5.9
				s-2.8,2.3-2.4,5.1c0.5,2.8,4.3,3.5,4.7,5.1c0.4,1.6,2,17.1,7.9,20.6c3.8,2.2,17.9-1.7,28.6-5c2.8-0.9,5.6,1.1,5.7,4.1l1.9,44.6
				l-19.6,31.2c0,0,26.3-13.1,40-25.8c13.7-12.7,54.4-4.3,54.4-4.3l-22.7-21.9c-3-2.3-5.1-5.7-5.9-9.4l-7.4-35.1
				c7.4-2.9,13-5.1,13-5.1S1993,802.1,1962.1,751.5z"/>
		</g>
		
			<image style="overflow:visible;" width="134" height="88" xlink:href="B8DA13C0.png"  transform="matrix(0.24 0 0 0.24 1849.2195 808.1479)">
		</image>
		<g>
			<path class="st3" d="M1862.3,798.2c0.3-4.8-0.9-8.8-2.7-8.9s-3.5,3.7-3.8,8.4c-0.3,4.8,0.9,8.8,2.7,8.9S1862,803,1862.3,798.2z"
				/>
		</g>
		<g>
			<path class="st15" d="M1853,781.1c-1.6-2.8,1.8-4.2,3.8-4.8c3.7-1,7.7,0,10.9,2.2c1.6,1.1,3.2,2.6,4.3,4.4
				c0.8,1.3,1.4,3.1,0.9,4.6c-1.4-0.5-2.7-2.4-4-3.3c-1.6-1.2-3.4-2-5.3-2.3c-2-0.4-3.9-0.2-5.9,0.1
				C1856.2,782.2,1853.9,782.8,1853,781.1z"/>
		</g>
		<g>
			<path class="st15" d="M1865.3,739.5c-0.9,8.5,2.7,58.3,31.1,78.4c-4.1-2.1,9.6,40.3,58.9,44.6c2.5,0.2-17.5-13.4,10.9-38.7
				c2.7-2.4,27.5-46.4-9.3-85.9c-27.1-29.1-81.3-4.8-90-0.6C1866,737.7,1865.4,738.5,1865.3,739.5z"/>
		</g>
		<g class="st18">
			<path class="st0" d="M1891.8,768.7c-8.7-2.2-16.3-8.2-20.6-16.1c8.6,21.6,28.1,38.7,50.6,44.4c-6.1-4.1-10.5-10.5-12.4-17.6
				c10.9,0.5,21.8,2.7,32,6.7c-0.2-3.1-0.4-6.3-0.6-9.4c-0.1-1.3-0.1-2.7,0.9-3.6c0.8-0.7,1.9-0.7,3-0.6c5.4,0.2,10.8,0.5,16.2,0.7
				c1.3-14.3-5.6-29.1-17.4-37.3c1.2,5.6,2.4,11.1,3.6,16.7c-5.2,0.2-10.4,0.4-15.5,0.6c-1.2,0-2.5,0.1-3.6,0.8
				c-3.6,2.3-0.5,8-1.9,12c-6.3-0.3-12.6-0.6-18.9-0.9c-1.5-0.1-3.1-0.1-4.4,0.5c-1.2,0.6-2.1,1.7-3.3,2.4
				C1897.3,769.6,1894.4,769.3,1891.8,768.7z"/>
		</g>
		<g>
			<path class="st19" d="M1901.1,839.6c-3.7,8.2-28.3,26.1-47.7,32.9c3.8,2.2,17.9-1.7,28.6-5c2.8-0.9,5.6,1.1,5.7,4.1l0.3,7.2
				C1894.7,866.8,1901.1,839.6,1901.1,839.6z"/>
		</g>
		<g>
			<g>
				<path class="st17" d="M1885,811.2c0,0,1.9-15.8,16.3-7.4c5.7,3.4,3.3,21.3-14.1,20.9C1887.2,824.7,1881.5,822.3,1885,811.2z"/>
			</g>
			<g>
				<path class="st20" d="M1894.7,819.6c-2.6,0.4-5.3,0-6.2-0.5c-0.6-0.3-0.6-0.8-0.6-1c0-0.3,0.3-0.7,0.6-1.1
					c0.8-1.1,1.5-2.2,0.9-3.4c-0.3-0.5-0.6-0.8-1-0.9c-0.7-0.2-1.4,0.2-1.4,0.2c-0.3,0.1-0.6,0.1-0.8,0c-0.2-0.2-0.4-0.4-0.3-0.7
					c0.1-0.3,1.5-8.2,6.1-8.9c0,0,0.1,0,0.1,0c3.2-0.4,5.8,0.1,7.7,1.6c2.4,1.9,2.8,4.6,2.8,4.7c0,0.4-0.2,0.7-0.6,0.8l0,0
					c-0.4,0.1-0.8-0.2-0.8-0.6c0,0-0.3-2.2-2.2-3.7c-1.6-1.2-3.8-1.7-6.6-1.3c0,0,0,0-0.1,0c-2.5,0.4-4,4.1-4.6,6.5
					c0.4-0.1,0.8,0,1.2,0.1c0.8,0.2,1.4,0.8,1.9,1.7c1.1,2.2-0.3,4-1.1,5c0,0,0,0,0,0.1c1.7,0.5,6.5,0.7,8.7-1.5
					c0.3-0.3,0.7-0.3,1,0c0.3,0.3,0.3,0.7,0,1C1898.2,818.7,1896.5,819.3,1894.7,819.6z"/>
			</g>
		</g>
		<g>
			<path class="st19" d="M1840.5,846.8c0.3,1.7,1.8,2.6,3.1,3.5c2-1.3,3.5-5,3.9-7.7c0.4-3-4.8-9-8.2-9.6c-0.5,0.6-0.9,1.4-0.9,2.9
				c0,2.3,4.5,5.9,4.5,5.9S1840.1,844,1840.5,846.8z"/>
		</g>
		<g>
			<path class="st19" d="M1924,961.3c-1,0-2-0.6-2.4-1.7c-7.8-20.7,7.4-43.6,12.8-46.7c2.1-1.1,3.6-0.4,4.3,0.6
				c0.9,1.1,0.7,2.7-0.4,3.6c-0.5,0.4-1.3,0.5-1.8,0.5c-3.6,2.8-16.8,22.4-10.1,40.2c0.5,1.3-0.2,2.8-1.5,3.3
				C1924.6,961.3,1924.3,961.3,1924,961.3z"/>
		</g>
		<g>
			<path class="st17" d="M1909.8,1167.9c0,0,46.6,69.8,50.4,125c3.8,55.2-122.4,240.6-136.7,293.6c-14.3,53,15.1,89.1-4,160.2
				c-12.9,48-46.1,115.4-46.6,139.9l-36.1,7.3c0,0,22.5-219.5,15.3-299.7c-4.4-48.6,79.8-324.2,79.8-324.2L1909.8,1167.9z"/>
		</g>
		<g>
			<path class="st12" d="M1867,1174.4c0,0,75.6,36.6,106.8,82.2c31.2,45.6,16.4,269.5,30.9,322.4c14.5,52.9,58.2,69.2,77.7,140.2
				c13.2,48,18.7,122.8,30.7,144.2l-27.4,24.6c0,0-91.8-200.6-138.6-266.1c-28.4-39.7-95.5-319.9-95.5-319.9L1867,1174.4z"/>
		</g>
		<g>
			<path class="st16" d="M1678.4,1977.2l-1.6-3l2.5,28.3c0.4,4.3,4.2,7.5,8.5,7.1l48.4-4.3c2.5-0.2,4.8-1.7,6.1-3.9l13.2-32.6
				l2.5,28.1c0.3,3.5,3.4,6.1,6.9,5.8l15.9-1.4c3.3-0.3,5.8-3.1,5.8-6.4l-0.2-73.3l-37.3,8.7l-32.7,15.1l-26,26.2L1678.4,1977.2z"/>
		</g>
		<g>
			<path class="st17" d="M1780.1,1848.5c0,0-6.3,30.2-5.8,35.6c0.5,5.4,16.5,23.7,11.3,35.8c-5.2,12.2-27.7,4.9-41.5,22.3
				c-13.7,17.4-14.2,28.5-38.1,32.5c-23.9,3.9-36.4,4.4-27.8-5.9c0.8-1,6.3-3,15.9-6.5c9.6-3.6,21.9-43.6,37.5-73.5
				c10-19.2,20.1-76.4,20.1-76.4L1780.1,1848.5z"/>
		</g>
		<g>
			<path class="st16" d="M1703.1,1978.9c0,0-0.2-0.6-0.5-1.6c-1.1-3.2-4.1-10.7-10-15.4c0,0,8-4.9,19-32c0,0,30.5,12.2,33.5,23.1
				c3.1,10.8-12.6,16.7-12.6,16.7s-3.3-16.2-24.3-20l-4.2,6.1c0,0,12.4,14.2,14.2,20.9c1.8,6.7-11,10.6-11,10.6L1703.1,1978.9z"/>
		</g>
		<g>
			<path class="st10" d="M1844,1188.7c-0.8,6-34.3,32.1-50.9,76.4c-16.7,44.3-31.6,117.5-81.6,134.3c0,0-15.1,43.1,25.7,55.2
				c40.8,12.1,55.6-39.3,98.7-13.2s10.6,76.5,86.4,50.8c75.7-25.7,56.5-77.4,124.7-65.9c68.2,11.6,67.3-44.6,67.3-44.6
				s-22-9.7-55.2-70c-33.2-60.3-65.6-116.4-108.9-130.2C1906.8,1167.7,1844,1188.7,1844,1188.7z"/>
		</g>
		<g>
			<g>
				<path class="st14" d="M1816.2,1333c-8.5-6.5-20.2-10.3-35.8-11.8c-1.8-0.2-3.6,0-5.4-0.1c2-5.4,3.9-10.8,5.8-16.1
					c0.4,0,0.7,0,1.1,0c18.7,1.7,33.1,6.6,44.1,15c14.7,11.3,22.2,29.5,18.7,45.5c-3.8,17.3-17.5,27.2-30.8,36.8
					c-9.6,7-18.7,13.5-23.4,22.4c-2.4,4.5-3.8,10.1-4.5,17.2c0,0.5,0.1,0.9,0,1.4c-5.4,3.1-10.8,6.3-16.5,8.9
					c-0.1-3.9-0.1-7.9,0.3-11.8c0.9-9.2,3-16.8,6.3-23.2c6.5-12.3,17.6-20.3,28.3-28c11.8-8.5,21.9-15.9,24.4-27.1
					C1831.1,1352.3,1825.8,1340.4,1816.2,1333z"/>
			</g>
			<g>
				<path class="st14" d="M1890.9,1383.5c21.1-9,47.1-8.4,73.3,1.4c14.6,5.5,25.3,12.4,32.8,21.3c5.9,6.9,9.5,14.7,11.6,23
					c-5.6,2.6-10.3,6.3-14.7,10.6c-0.9-8.5-3.7-16.5-9.3-23.1c-5.7-6.7-14.2-12.1-26.1-16.6c-11.9-4.5-23.7-6.7-34.7-6.7
					c-9.6,0-18.5,1.7-26.5,5.1c-19.1,8.1-32.1,27.7-30.2,45.6c1.3,12,8.7,23.9,20.4,32.8c10.9,8.2,23.9,12.9,34.3,15.9
					c-12.2,4-21.4,6-28.6,6.4c-5.3-2.6-10.6-5.6-15.5-9.3c-5.8-4.4-10.4-9.5-14.5-14.9c-2.5-6-5.3-12.5-9.9-18.8
					c-1.1-3.4-2-6.8-2.3-10.3C1848.3,1420.6,1865.1,1394.4,1890.9,1383.5z"/>
			</g>
			<g>
				<path class="st14" d="M2033.3,1281c-13.8,5.5-25.8,14.8-38.5,24.7l-6.6,5.1c-16.9,12.9-34.7,24.8-52.9,35.3
					c-5.3,3.1-11.1,6.1-17.9,6.7c-7.4,0.5-14.5-2.2-19.7-4.7c-36.7-17.5-62.3-55-65.4-95.5c-1.1-14.8,1.4-26.2,7.6-35
					c7.3-10.3,20.1-16.8,35.2-17.9c11.3-0.7,22.3,1.3,33,3.4l2.5,0.5c28.4,5.4,57.4,8.8,86.4,10.3c4.5,5,9,10.4,13.3,16.2
					c-3.4,0.4-6.7,0.5-9.2,0.4c-31.3-1.4-62.8-5.1-93.6-10.9l-2.5-0.5c-10-1.9-19.4-3.8-28.7-3.1c-10.1,0.7-18.7,4.9-23.1,11.1
					c-3.9,5.5-5.4,13.5-4.6,24.3c2.6,34.8,24.7,67,56.2,82c3.6,1.7,7.9,3.4,11.4,3.2c3.4-0.3,7-2.2,11-4.5
					c17.6-10.2,34.8-21.6,51.2-34.1l6.5-5c13-10.1,26.4-20.6,42.4-26.9c1.9-0.7,3.8-1.3,5.7-1.9c2.9,4.8,5.8,9.7,8.8,14.7
					C2038.9,1279.4,2036,1279.9,2033.3,1281z"/>
			</g>
		</g>
		<g>
			<g>
				<path class="st17" d="M2024.5,1395.5c0,0-21.1-29.6-17.6-32.1c3.4-2.5,28.3,25.4,28.3,25.4s-21-32.5-16.1-35.5
					s26.6,27.4,26.6,27.4s-21.4-29.7-14.5-29.1c4.5,0.4,23.6,20,23.6,20s-18.6-25.4-13.6-26.3c5-1,21.3,16.7,21.3,16.7
					s-0.5,12.4-6.8,12.6c-2.2,0.1-4,9.4-9,9.2c0,0,0,9.1-10.1,5.8C2036.7,1389.7,2036.2,1402.4,2024.5,1395.5z"/>
			</g>
			<g>
				<g>
					<path class="st16" d="M2088.4,1439.3h-6.7l0.1,0.2c0,0-14.3,42-59.4,42c-38.8,0-54.4-33-58-42.1h-6.2l-21,41.4
						c-12.3,24.3,5.3,53,32.5,53h107.1c27.2,0,44.9-28.7,32.5-53L2088.4,1439.3z"/>
				</g>
				<g>
					<path class="st16" d="M2082.4,1443.6c0,0-11.6-74.4-53.9-74.4c-42.3,0-65.6,76.5-65.6,76.5l-5.5-2c0,0,19.1-79.2,69.7-82.6
						s62.8,84,62.8,84L2082.4,1443.6z"/>
				</g>
				<g>
					<g>
						<path class="st21" d="M1990.4,1533.7h3.2l-0.5-1.1c1.2-2.5,2.8-5,4.5-7.3l21.9-31.9c2.8-4.1,5.7-8.2,8.7-12.2
							c-0.9,0.1-1.8,0.1-2.6,0.2c-2.7,3.6-5.2,7.3-7.7,10.9l-21.9,31.8c-1.4,2-2.7,4.1-3.9,6.2l-27.6-58.6c-0.1-0.3-0.3-0.6-0.5-0.9
							c4.4-3.4,9.1-6.5,13.8-9.6c-0.5-0.5-0.9-1-1.3-1.6c-4.6,3-9.1,6-13.4,9.3c-1.4-2.8-2.9-5.5-5.1-7.8c-2.1-2.1-4.6-3.7-7-5.3
							c-0.3-0.2-0.5-0.3-0.7-0.5l-0.9,1.8c0.2,0.1,0.4,0.3,0.6,0.4c2.3,1.5,4.7,3,6.6,5c2.1,2.2,3.6,4.9,4.9,7.6
							c-10.5,8.2-19.8,17.2-28,26.9c0,1.1,0,2.1,0.1,3.2c8.4-10.2,18-19.7,28.8-28.2c0.1,0.2,0.2,0.4,0.3,0.6l28.3,60.1
							C1990.7,1533,1990.6,1533.4,1990.4,1533.7z"/>
					</g>
					<g>
						<path class="st21" d="M2091.2,1483.2c-2.3,2.8-4.5,5.5-6.5,7.7c-1.8,1.9-3.6,3.8-5.3,5.7c-4.2-6.8-9.1-13.1-15-18.6
							c-2.5-2.3-5.2-4.4-7.9-6.4c-0.6,0.4-1.3,0.7-1.9,1.1c2.9,2.1,5.7,4.3,8.4,6.8c5.9,5.5,10.7,11.9,14.9,18.7
							c-0.1,0.1-0.3,0.3-0.4,0.4c-10.5,11.2-21.3,22.7-30.5,35.1h2.6c9-11.9,19.3-23,29.5-33.7c0,0,0,0,0,0
							c5.7,9.6,10.2,19.9,14.2,29.9c0.6-0.3,1.2-0.6,1.8-0.9c-4.1-10.2-8.7-20.8-14.6-30.5c1.9-2,3.8-4,5.7-6.1
							c2.1-2.2,4.3-4.9,6.6-7.8c3.5-4.3,7.5-9.2,11.8-13.3l-1-1.9C2099.2,1473.5,2095.1,1478.5,2091.2,1483.2z"/>
					</g>
				</g>
				<g>
					<path class="st10" d="M2080.9,1446c-1.7,0-3.2-0.2-4.4-0.6c-5.4-1.8-8.3-7.5-6.5-12.9c1.6-4.8,6.5-7.5,11.2-6.9
						c0.6,0,2.3-0.2,5.5-1.2c5.5-1.6,11.1,1.4,12.7,6.8c1.6,5.4-1.4,11.1-6.8,12.7C2087.9,1445.3,2084,1446,2080.9,1446z"/>
				</g>
				<g>
					<path class="st10" d="M1966.7,1450.5c-1.1,0-7.2-0.2-15-4.6c-4.9-2.8-6.6-9-3.9-13.9c2.8-4.9,9.1-6.6,13.9-3.9
						c3.2,1.8,5.3,2,5.4,2c5.4,0.5,9.8,5.1,9.6,10.6C1976.4,1446.2,1972.1,1450.5,1966.7,1450.5z"/>
				</g>
				<g>
					<path class="st10" d="M2038.9,1489.4h-34.6c-0.1,0-0.2,0.1-0.2,0.2v8.5c0,0.1,0.1,0.2,0.2,0.2h34.6c0.1,0,0.2-0.1,0.2-0.2v-8.5
						C2039.1,1489.5,2039,1489.4,2038.9,1489.4z"/>
				</g>
			</g>
			<g>
				<g>
					<g>
						<path class="st17" d="M2051.8,1380l-20.9,11.3c0,0-6.4-29.4-15.1-42c-1.5-2.1-5.8,12.7-5.8,12.7l-7.7-11.8
							c0,0,4-30.4,8.4-36.3l-3.1-35.8l32.7-3.2l1.6,29l20.8,53c1.8,4.7,0.6,10.1-3.1,13.5C2056.3,1373.4,2052.9,1376.7,2051.8,1380z
							"/>
					</g>
				</g>
				<g>
					<path class="st17" d="M2004.3,1337.5c0,0-10.5,44-8,45.2c2.5,1.3,7.7-1.8,10.6-8.1s7.5-25.6,12-23.2c4.5,2.4-8.9-14.2-8.9-14.2
						L2004.3,1337.5z"/>
				</g>
			</g>
		</g>
		<g>
			<path class="st17" d="M1994.1,980.8c16.9,48.4,42.4,146.3,43.5,154.6c1,8.3,4.1,137.9,3.5,181.2l-25.8,5.6
				c0,0-27.5-141.2-33.1-186.7c-5.6-45.5-46.1-137.9-46.1-137.9s-21.9-59.8,1.4-74.8C1960.8,908,1994.1,980.8,1994.1,980.8z"/>
		</g>
		<g>
			<path class="st0" d="M2049.6,1295.6c-0.6-1.6-0.3-3.4-0.8-5c-1.1-3.3-4.9-4.7-8.3-5.6c-11.9-2.9-24.3-3.9-36.5-2.9
				c1.5,2.4-3.8,3.3-5.1,5.8c-0.5,0.9-0.3,2-0.3,3c-0.1,6.1-5.4,10.7-10,14.7c-4.6,4-9.4,9.5-7.9,15.5c3.7,1.8,8.3,1.4,11.6-0.9
				c1.9-1.3,4-3.4,6.2-2.6c2.3,0.8,2.6,3.9,1.9,6.2c-0.6,2.3-1.8,4.8-0.9,7c1.5,4.1,7.7,3.5,11.2,0.9c3.5-2.6,6.4-6.5,10.7-7
				c3.7-0.5,7.2,1.7,10.1,4.1c5.5,4.5,10.4,9.9,16.9,12.9c6.5,2.9,15.3,2.4,19.3-3.4c1-1.6,1.7-3.4,3.1-4.7c4.9-4.5,14.5,1.4,19-3.6
				c-4.6-9.9-18.7-11.3-25.3-20.1c-1.9-2.5-3.1-5.5-5.5-7.4C2055.7,1300,2050.9,1299.3,2049.6,1295.6z"/>
		</g>
		<g>
			<path class="st14" d="M1941.1,894.9c-11.5,8.8-51.8,46.8-77.6,159.2l8.1,217.5c0,0,53.9,3.4,82.3,4.1
				c28.5,0.7,49.5-29.1,49.5-29.1s-29.1-109.1-29.1-118.6c0-9.5,4.7-185-2-198.5C1965.5,915.9,1941.1,894.9,1941.1,894.9z"/>
		</g>
		<g>
			<path class="st14" d="M1953.9,909.8c0,0,27.1,16.3,39.3,17.6c12.2,1.4,25.7,12.2,20.3,25.7c-5.4,13.6-9.5,16.3-6.8,23
				s25.7,101.6,31.2,115.2c5.4,13.6-2.7,21.7,4.1,46.1c6.8,24.4,8.1,155.8,8.1,155.8s-33.9,8.1-54.2,1.4c0,0-12.2-157.2-13.6-164
				c-1.4-6.8-47.4-104.3-47.4-104.3L1953.9,909.8z"/>
		</g>
		<g>
			<path class="st15" d="M1943.1,906.2c4.6,2.1,5.2,8.5,8.6,12.3c5.8,6.5,16.6,3.1,23.6-2.1s13.9-12.2,22.6-11.8
				c1.5-6.7-2.7-13.3-6.7-18.9c-8.4-11.9-16.9-23.8-25.5-35.5c-4.8-6.6-9.7-13.2-16-18.3c-13.3-10.7-32.6-13.5-48.4-6.8
				c1.7,3.6,4.6,6.7,8.1,8.7c0.2,5-7.4,5.8-10.3,9.8c-2.8,3.9-0.1,9.5,3.8,12.2c3.9,2.7,8.8,3.7,12.9,6c4.1,2.4,7.7,7.2,6.1,11.6
				c-0.9,2.4-3,4-4.3,6.2c-2.8,4.3-2.2,10-1.3,15c1,5.6,3.2,12.2,8.7,13.5C1931,909.7,1937.4,903.6,1943.1,906.2z"/>
		</g>
		<g>
			<path class="st15" d="M1954.6,984.9c-0.4,0-0.8-0.1-1.1-0.3c-1.3-0.6-1.8-2.1-1.2-3.4c6.7-14,15.5-22.9,25.9-26.5
				c12.5-4.2,22.5,0.7,22.9,0.9c1.3,0.6,1.8,2.2,1.1,3.4c-0.6,1.3-2.1,1.8-3.4,1.2c-0.1-0.1-8.8-4.2-19.1-0.6
				c-9.1,3.1-16.8,11.2-22.9,23.9C1956.5,984.4,1955.6,984.9,1954.6,984.9z"/>
		</g>
		<g>
			<path class="st15" d="M1866.9,1055.6c-0.5,0-1-0.2-1.5-0.5c-1.2-0.8-1.4-2.4-0.6-3.6l37.5-53.1l-8.8-15.2c-0.5-0.9-0.4-2,0.1-2.8
				c3.2-4.5,52.9-54.8,58.5-60.5c1-1,2.6-1,3.6,0c1,1,1,2.6,0,3.6c-20.4,20.6-50.7,51.6-57,58.6l8.7,15.1c0.5,0.9,0.4,1.9-0.1,2.8
				l-38.4,54.4C1868.5,1055.3,1867.7,1055.6,1866.9,1055.6z"/>
		</g>
		<g>
			<path class="st15" d="M1973.9,1112c-1,0-2-0.6-2.4-1.7c-1.7-4.8-10.4-28.9-10.4-34.2c-0.1-3.1-9.4-25-18.3-44.4
				c-0.6-1.3,0-2.8,1.2-3.4c1.3-0.6,2.8,0,3.4,1.2c4.4,9.6,18.8,41.3,18.8,46.5c0,3.4,6.2,21.7,10.1,32.4c0.5,1.3-0.2,2.8-1.5,3.3
				C1974.4,1111.9,1974.2,1112,1973.9,1112z"/>
		</g>
		<g>
			<path class="st15" d="M1939,1214c-8.4,0-17.3-1.2-26.6-3.5c-1-0.2-1.7-1-1.9-1.9l-4.5-21.1c-0.2-0.8,0.1-1.7,0.6-2.3
				c0.5-0.6,1.4-0.9,2.2-0.8c0.1,0,14.4,1.8,30.1,1.8c13.2,0,23.3-1.2,30.2-3.6c0.7-0.3,1.5-0.2,2.1,0.2c0.6,0.4,1.1,1,1.2,1.8
				l3.2,17.3c0.2,0.9-0.2,1.8-0.9,2.4C1974.4,1204.6,1962.8,1214,1939,1214z M1915.2,1205.9c8.3,2,16.4,3,23.8,3
				c17.7,0,28.1-5.6,31.4-7.8l-2.4-12.9c-7.2,2-17,3-29.1,3c-11.3,0-21.9-0.9-27.2-1.4L1915.2,1205.9z"/>
		</g>
		<g>
			<path class="st10" d="M1882,828.3c0-6.2,2.5-11.2,5.6-11.2c3.1,0,5.6,5,5.6,11.2s-2.5,11.2-5.6,11.2
				C1884.5,839.5,1882,834.5,1882,828.3z"/>
		</g>
	</g>
	<g>
		<g>
			<path class="st0" d="M1139.9,983H994.4c-1.2,0-2.2-1-2.2-2.2v-97.7c0-1.2,1-2.2,2.2-2.2h145.5c1.2,0,2.2,1,2.2,2.2v97.7
				C1142.1,982.1,1141.1,983,1139.9,983z M996.6,978.7h141.1v-93.4H996.6V978.7z"/>
		</g>
		<g>
			<path class="st0" d="M1085,972.8c-22.7,0-41.2-18.5-41.2-41.2c0-22.7,18.5-41.2,41.2-41.2c22.7,0,41.2,18.5,41.2,41.2
				C1126.2,954.3,1107.7,972.8,1085,972.8z M1085,894.7c-20.4,0-36.9,16.6-36.9,36.9c0,20.4,16.6,36.9,36.9,36.9
				c20.4,0,36.9-16.6,36.9-36.9C1121.9,911.2,1105.3,894.7,1085,894.7z"/>
		</g>
		<g>
			<path class="st0" d="M1085,958.8c-15,0-27.2-12.2-27.2-27.2c0-15,12.2-27.2,27.2-27.2c15,0,27.2,12.2,27.2,27.2
				C1112.2,946.6,1100,958.8,1085,958.8z M1085,908.7c-12.6,0-22.9,10.3-22.9,22.9c0,12.6,10.3,22.9,22.9,22.9
				c12.6,0,22.9-10.3,22.9-22.9C1107.9,918.9,1097.6,908.7,1085,908.7z"/>
		</g>
		<g>
			<path class="st0" d="M1085,941.8c-5.6,0-10.2-4.6-10.2-10.2c0-5.6,4.6-10.2,10.2-10.2c5.6,0,10.2,4.6,10.2,10.2
				C1095.2,937.2,1090.6,941.8,1085,941.8z M1085,925.7c-3.2,0-5.9,2.6-5.9,5.9c0,3.2,2.6,5.9,5.9,5.9c3.2,0,5.9-2.6,5.9-5.9
				C1090.9,928.3,1088.2,925.7,1085,925.7z"/>
		</g>
		<g>
			<path class="st0" d="M1009.6,883.7c-0.4,0-0.9-0.1-1.3-0.4c-1-0.7-1.2-2.1-0.5-3l14.1-19.5c0.4-0.6,1.1-0.9,1.8-0.9h44
				c0.6,0,1.2,0.3,1.6,0.7l16.8,19c0.8,0.9,0.7,2.3-0.2,3.1c-0.9,0.8-2.3,0.7-3.1-0.2l-16.2-18.3h-41.9l-13.5,18.6
				C1011,883.4,1010.3,883.7,1009.6,883.7z"/>
		</g>
	</g>
	<g>
		<g>
			<path class="st22" d="M514.8,1742h-7.9c-0.1,0-0.2-0.1-0.2-0.2v-487.3h8.3v487.3C515,1741.9,514.9,1742,514.8,1742z"/>
		</g>
		<g>
			<g>
				<ellipse class="st23" cx="633.4" cy="1781.9" rx="14.6" ry="15.5"/>
			</g>
			<g>
				<ellipse class="st24" cx="633.4" cy="1781.9" rx="8.1" ry="8.6"/>
			</g>
		</g>
		<g>
			<rect x="630.4" y="1758.1" class="st24" width="6" height="16.6"/>
		</g>
		<g>
			<g>
				<ellipse class="st23" cx="579.9" cy="1781.9" rx="14.6" ry="15.5"/>
			</g>
			<g>
				<ellipse class="st24" cx="579.9" cy="1781.9" rx="8.1" ry="8.6"/>
			</g>
		</g>
		<g>
			<rect x="577" y="1758.1" class="st24" width="6" height="16.6"/>
		</g>
		<g>
			<path class="st22" d="M414.6,1537.5c-1.2,0.6-2.6,0.7-3.9,0c-2.4-1.1-3.5-4-2.6-6.4l170-426.2c1-2.4,3.7-3.5,6.1-2.4
				c2.4,1.1,3.5,4,2.6,6.4l-170,426.2C416.3,1536.2,415.6,1537,414.6,1537.5z"/>
		</g>
		<g>
			<path class="st22" d="M636.2,1764.4c-0.9,0-1.8-0.3-2.5-1L508.3,1642c-1.5-1.5-1.6-3.9-0.2-5.5c1.4-1.6,3.7-1.7,5.2-0.2
				l125.4,121.4c1.5,1.5,1.6,3.9,0.2,5.5C638.2,1764,637.2,1764.4,636.2,1764.4z"/>
		</g>
		<g>
			<path class="st22" d="M580.4,1764.4c-1.2,0-2.4-0.6-3.1-1.8l-69.1-116.5c-1.1-1.8-0.6-4.2,1.2-5.4c1.7-1.1,4-0.6,5.1,1.2
				l69.1,116.5c1.1,1.8,0.6,4.2-1.2,5.4C581.8,1764.2,581.1,1764.4,580.4,1764.4z"/>
		</g>
		<g>
			<g>
				<ellipse class="st23" cx="441.1" cy="1781.9" rx="14.6" ry="15.5"/>
			</g>
			<g>
				<ellipse class="st24" cx="441.1" cy="1781.9" rx="8.1" ry="8.6"/>
			</g>
		</g>
		<g>
			
				<rect x="438.1" y="1758.1" transform="matrix(-1 -1.224647e-16 1.224647e-16 -1 882.1603 3532.7783)" class="st24" width="6" height="16.6"/>
		</g>
		<g>
			<path class="st22" d="M440.6,1764.4c-0.7,0-1.3-0.2-2-0.6c-1.7-1.1-2.2-3.6-1.2-5.4l69.1-116.5c1.1-1.8,3.4-2.4,5.1-1.2
				c1.7,1.1,2.2,3.6,1.2,5.4l-69.1,116.5C443,1763.8,441.8,1764.4,440.6,1764.4z"/>
		</g>
		<g>
			<g>
				<ellipse class="st23" cx="387.8" cy="1781.9" rx="14.6" ry="15.5"/>
			</g>
			<g>
				<ellipse class="st24" cx="387.8" cy="1781.9" rx="8.1" ry="8.6"/>
			</g>
		</g>
		<g>
			
				<rect x="384.8" y="1758.1" transform="matrix(-1 -1.224647e-16 1.224647e-16 -1 775.543 3532.7783)" class="st24" width="6" height="16.6"/>
		</g>
		<g>
			<path class="st22" d="M385,1764.4c-1,0-2-0.4-2.7-1.3c-1.4-1.6-1.3-4.1,0.2-5.5l125.4-121.4c1.5-1.5,3.8-1.3,5.2,0.2
				c1.4,1.6,1.3,4.1-0.2,5.5l-125.4,121.4C386.8,1764.1,385.9,1764.4,385,1764.4z"/>
		</g>
		<g>
			<path class="st22" d="M511,1745.4l-58-49.6c-0.8-0.7-0.9-1.9-0.3-2.7c0.6-0.8,1.8-1,2.6-0.3l55.7,47.6l53.1-47.9
				c0.8-0.7,1.9-0.6,2.6,0.2c0.7,0.8,0.6,2.1-0.2,2.7L511,1745.4z"/>
		</g>
		<g>
			<g>
				<g>
					<path class="st22" d="M542.9,1135.6l-0.3,0.8c-0.3,0.9,0.1,1.8,0.9,2.2l11.5,5.1l1.6-4.1l-11.4-5.1
						C544.3,1134.2,543.3,1134.7,542.9,1135.6z"/>
				</g>
				<g>
					<g>
						<path class="st25" d="M579.4,1140.2c-3.6-7.2-12.1-10.3-18.9-6.8c-6.8,3.4-9.4,12.1-5.8,19.3c3.6,7.2,12.1,10.3,18.9,6.8
							C580.4,1156.1,583,1147.4,579.4,1140.2z"/>
					</g>
					<g>
						<path class="st22" d="M574.8,1142.5c-2.3-4.5-7.6-6.5-11.9-4.3c-4.3,2.2-5.9,7.6-3.6,12.1c2.3,4.5,7.6,6.5,11.9,4.3
							C575.5,1152.5,577.1,1147.1,574.8,1142.5z"/>
					</g>
				</g>
			</g>
			<g>
				<g>
					<path class="st26" d="M568.1,1142.7c-1.7-1-3.9-0.4-4.8,1.3c-0.9,1.7-0.3,4,1.5,5c1.7,1,3.9,0.4,4.8-1.3
						C570.5,1146,569.9,1143.7,568.1,1142.7z"/>
				</g>
				<g>
					<path class="st26" d="M565.8,1142.2c0.3,0.1,0.5,0.2,0.8,0.3c1.7,1,2.4,3.3,1.5,5c-0.5,1-1.4,1.6-2.5,1.8
						c1.5,0.5,3.2-0.2,4-1.6c0.9-1.7,0.3-4-1.5-5C567.4,1142.2,566.6,1142.1,565.8,1142.2z"/>
				</g>
				<g class="st27">
					<path class="st28" d="M569.3,1148.1c0.1-0.1,0.2-0.3,0.3-0.5c0.1-0.2,0.1-0.3,0.2-0.5l-6.2-3.7c-0.1,0.1-0.2,0.3-0.3,0.5
						c-0.1,0.2-0.1,0.3-0.2,0.5L569.3,1148.1z"/>
				</g>
			</g>
		</g>
		<g>
			<g>
				<polygon class="st22" points="456.8,1427.7 433,1486.6 456.6,1497.7 480.4,1438.8 				"/>
			</g>
			<g>
				<g>
					<path class="st26" d="M460.6,1433.6c-0.9-0.5-2-0.2-2.5,0.7c-0.5,0.9-0.1,2.1,0.8,2.6c0.9,0.5,2,0.2,2.5-0.7
						C461.8,1435.3,461.5,1434.1,460.6,1433.6z"/>
				</g>
				<g>
					<path class="st26" d="M459.4,1433.3c0.1,0,0.3,0.1,0.4,0.2c0.9,0.5,1.3,1.7,0.8,2.6c-0.3,0.5-0.8,0.8-1.3,0.9
						c0.8,0.2,1.7-0.1,2.1-0.9c0.5-0.9,0.1-2.1-0.8-2.6C460.2,1433.4,459.8,1433.3,459.4,1433.3z"/>
				</g>
				<g class="st27">
					<path class="st28" d="M461.2,1436.4c0.1-0.1,0.1-0.2,0.2-0.2c0-0.1,0.1-0.2,0.1-0.3l-3.2-1.9c-0.1,0.1-0.1,0.2-0.2,0.2
						c0,0.1-0.1,0.2-0.1,0.3L461.2,1436.4z"/>
				</g>
			</g>
			<g>
				<g>
					<path class="st26" d="M475.3,1439.6c-0.9-0.5-2-0.2-2.5,0.7c-0.5,0.9-0.1,2.1,0.8,2.6c0.9,0.5,2,0.2,2.5-0.7
						C476.6,1441.3,476.2,1440.2,475.3,1439.6z"/>
				</g>
				<g>
					<path class="st26" d="M474.1,1439.4c0.1,0,0.3,0.1,0.4,0.2c0.9,0.5,1.3,1.7,0.8,2.6c-0.3,0.5-0.8,0.8-1.3,0.9
						c0.8,0.2,1.7-0.1,2.1-0.9c0.5-0.9,0.1-2.1-0.8-2.6C474.9,1439.4,474.5,1439.3,474.1,1439.4z"/>
				</g>
				<g class="st27">
					<path class="st28" d="M475.9,1442.5c0.1-0.1,0.1-0.2,0.2-0.2s0.1-0.2,0.1-0.3l-3.2-1.9c-0.1,0.1-0.1,0.2-0.2,0.2
						s-0.1,0.2-0.1,0.3L475.9,1442.5z"/>
				</g>
			</g>
			<g>
				<g>
					<path class="st26" d="M439.3,1482.2c-0.9-0.5-2-0.2-2.5,0.7c-0.5,0.9-0.1,2.1,0.8,2.6s2,0.2,2.5-0.7
						C440.6,1483.9,440.2,1482.7,439.3,1482.2z"/>
				</g>
				<g>
					<path class="st26" d="M438.1,1481.9c0.1,0,0.3,0.1,0.4,0.2c0.9,0.5,1.3,1.7,0.8,2.6c-0.3,0.5-0.8,0.8-1.3,0.9
						c0.8,0.2,1.7-0.1,2.1-0.9c0.5-0.9,0.1-2.1-0.8-2.6C438.9,1481.9,438.5,1481.9,438.1,1481.9z"/>
				</g>
				<g class="st27">
					<path class="st28" d="M440,1485c0.1-0.1,0.1-0.2,0.2-0.2s0.1-0.2,0.1-0.3l-3.2-1.9c-0.1,0.1-0.1,0.2-0.2,0.2s-0.1,0.2-0.1,0.3
						L440,1485z"/>
				</g>
			</g>
			<g>
				<g>
					<path class="st26" d="M454.1,1488.2c-0.9-0.5-2-0.2-2.5,0.7c-0.5,0.9-0.1,2.1,0.8,2.6c0.9,0.5,2,0.2,2.5-0.7
						C455.3,1489.9,455,1488.7,454.1,1488.2z"/>
				</g>
				<g>
					<path class="st26" d="M452.8,1488c0.1,0,0.3,0.1,0.4,0.2c0.9,0.5,1.3,1.7,0.8,2.6c-0.3,0.5-0.8,0.8-1.3,0.9
						c0.8,0.2,1.7-0.1,2.1-0.9c0.5-0.9,0.1-2.1-0.8-2.6C453.7,1488,453.2,1487.9,452.8,1488z"/>
				</g>
				<g class="st27">
					<path class="st28" d="M454.7,1491.1c0.1-0.1,0.1-0.2,0.2-0.2c0-0.1,0.1-0.2,0.1-0.3l-3.2-1.9c-0.1,0.1-0.1,0.2-0.2,0.2
						s-0.1,0.2-0.1,0.3L454.7,1491.1z"/>
				</g>
			</g>
		</g>
		<g>
			<g>
				<g>
					<path class="st22" d="M479,1292l-0.3,0.8c-0.3,0.9,0.1,1.8,0.9,2.2l11.5,5.1l1.6-4.1l-11.4-5.1
						C480.4,1290.6,479.4,1291.1,479,1292z"/>
				</g>
				<g>
					<g>
						<path class="st25" d="M515.5,1296.6c-3.6-7.2-12.1-10.3-18.9-6.8c-6.8,3.4-9.4,12.1-5.8,19.3c3.6,7.2,12.1,10.3,18.9,6.8
							C516.5,1312.5,519.1,1303.8,515.5,1296.6z"/>
					</g>
					<g>
						<path class="st22" d="M510.9,1298.9c-2.3-4.5-7.6-6.5-11.9-4.3c-4.3,2.2-5.9,7.6-3.6,12.1c2.3,4.5,7.6,6.5,11.9,4.3
							C511.6,1308.9,513.2,1303.5,510.9,1298.9z"/>
					</g>
				</g>
			</g>
			<g>
				<g>
					<path class="st26" d="M504.9,1299.1c-1.7-1-3.9-0.4-4.8,1.3c-0.9,1.7-0.3,4,1.5,5c1.7,1,3.9,0.4,4.8-1.3
						C507.3,1302.4,506.7,1300.1,504.9,1299.1z"/>
				</g>
				<g>
					<path class="st26" d="M502.6,1298.6c0.3,0.1,0.5,0.2,0.8,0.3c1.7,1,2.4,3.3,1.5,5c-0.5,1-1.4,1.6-2.5,1.8
						c1.5,0.5,3.2-0.2,4-1.6c0.9-1.7,0.3-4-1.5-5C504.2,1298.6,503.4,1298.5,502.6,1298.6z"/>
				</g>
				<g class="st27">
					<path class="st28" d="M506.1,1304.5c0.1-0.1,0.2-0.3,0.3-0.5c0.1-0.2,0.1-0.3,0.2-0.5l-6.2-3.7c-0.1,0.1-0.2,0.3-0.3,0.5
						c-0.1,0.2-0.1,0.3-0.2,0.5L506.1,1304.5z"/>
				</g>
			</g>
		</g>
		<g>
			<g>
				<path class="st22" d="M586.2,982.6C586.2,982.6,586.2,982.6,586.2,982.6c-3.5-1.7-17.2,1-36.1,35.7
					c-14.1,25.9-8.3,46.2-4.9,47.9c0,0,0.1,0,0.1,0l0,0.1l101.5,49.7l41-83.8l-101.5-49.7L586.2,982.6z"/>
			</g>
			<g>
				<path class="st22" d="M561.8,1042.6L561.8,1042.6C561.8,1042.6,561.7,1042.6,561.8,1042.6c-3.5-1.8-9.3-22.1,4.9-48
					c0.4-0.7,0.8-1.5,1.2-2.2c-5.1,5.5-11.1,13.7-17.7,25.8c-14.1,25.9-8.3,46.2-4.9,47.9c0,0,0.1,0,0.1,0l0,0.1l101.5,49.7
					l12.5-25.6L561.8,1042.6z"/>
			</g>
			<g>
				<path class="st25" d="M782.5,971.6c0,0-63.8,3.7-105.3,65l-33,78.1c0,0-0.4,72.8,33.4,123.4L782.5,971.6z"/>
			</g>
			<g>
				<path class="st0" d="M740.8,1109.1c29-73.6,47.6-135.2,41.7-137.5c-5.9-2.3-34.2,55.4-63.2,129c-29,73.6-47.6,135.2-41.7,137.5
					C683.5,1240.5,711.8,1182.7,740.8,1109.1z"/>
			</g>
			<g>
				<polygon class="st25" points="596,1071.8 586,1091.8 564.6,1081.1 551.3,1107.6 572.7,1118.3 597.8,1130.9 599.3,1131.7 
					622.6,1085.2 				"/>
			</g>
			<g>
				<g>
					<path class="st26" d="M564.2,1106.3c0.4-1.9-0.8-3.7-2.7-4c-1.9-0.4-3.7,0.8-4,2.7c-0.4,1.9,0.8,3.7,2.7,4
						C562,1109.3,563.8,1108.1,564.2,1106.3z"/>
				</g>
				<g>
					<path class="st26" d="M563.9,1104c0,0.3,0,0.5-0.1,0.8c-0.4,1.9-2.2,3.1-4,2.7c-1.1-0.2-1.9-0.9-2.4-1.8
						c0.1,1.5,1.2,2.9,2.8,3.2c1.9,0.4,3.7-0.8,4-2.7C564.4,1105.5,564.2,1104.7,563.9,1104z"/>
				</g>
				<g class="st27">
					<path class="st28" d="M559.7,1108.8c0.2,0.1,0.3,0.1,0.5,0.2c0.2,0,0.4,0,0.5,0.1l1.3-6.6c-0.2-0.1-0.3-0.1-0.5-0.2
						s-0.4,0-0.5-0.1L559.7,1108.8z"/>
				</g>
			</g>
			<g>
				<g>
					<path class="st26" d="M571.7,1089.1c0.4-1.9-0.8-3.7-2.7-4c-1.9-0.4-3.7,0.8-4,2.7c-0.4,1.9,0.8,3.7,2.7,4
						C569.5,1092.2,571.3,1091,571.7,1089.1z"/>
				</g>
				<g>
					<path class="st26" d="M571.4,1086.9c0,0.3,0,0.5-0.1,0.8c-0.4,1.9-2.2,3.1-4,2.7c-1.1-0.2-1.9-0.9-2.4-1.8
						c0.1,1.5,1.2,2.9,2.8,3.2c1.9,0.4,3.7-0.8,4-2.7C571.9,1088.3,571.8,1087.6,571.4,1086.9z"/>
				</g>
				<g class="st27">
					<path class="st28" d="M567.2,1091.7c0.2,0.1,0.3,0.1,0.5,0.2c0.2,0,0.4,0,0.5,0.1l1.3-6.6c-0.2-0.1-0.3-0.1-0.5-0.2
						c-0.2,0-0.4,0-0.5-0.1L567.2,1091.7z"/>
				</g>
			</g>
			<g>
				<g>
					<path class="st26" d="M602.2,1077.2c-0.9-1.7-3-2.2-4.7-1.3c-1.7,0.9-2.2,3-1.3,4.7c0.9,1.7,3,2.2,4.7,1.3
						C602.5,1080.9,603.1,1078.8,602.2,1077.2z"/>
				</g>
				<g>
					<path class="st26" d="M600.4,1075.7c0.2,0.2,0.4,0.4,0.5,0.7c0.9,1.7,0.4,3.8-1.3,4.7c-0.9,0.5-2,0.6-3,0.2
						c1.1,1.1,2.8,1.4,4.2,0.6c1.7-0.9,2.2-3,1.3-4.7C601.8,1076.4,601.2,1075.9,600.4,1075.7z"/>
				</g>
				<g class="st27">
					<path class="st28" d="M600.4,1082c0.2-0.1,0.3-0.1,0.5-0.2c0.2-0.1,0.3-0.2,0.4-0.3l-3.4-5.9c-0.2,0.1-0.3,0.1-0.5,0.2
						c-0.2,0.1-0.3,0.2-0.4,0.3L600.4,1082z"/>
				</g>
			</g>
			<g>
				<g>
					<path class="st26" d="M618.3,1085.5c-0.7-1.8-2.8-2.6-4.5-1.8c-1.8,0.7-2.6,2.8-1.8,4.5c0.7,1.8,2.8,2.6,4.5,1.8
						C618.2,1089.2,619.1,1087.2,618.3,1085.5z"/>
				</g>
				<g>
					<path class="st26" d="M616.8,1083.8c0.2,0.2,0.3,0.5,0.4,0.7c0.7,1.8-0.1,3.8-1.8,4.5c-1,0.4-2.1,0.3-3-0.2
						c0.9,1.2,2.6,1.8,4.1,1.1c1.8-0.7,2.6-2.8,1.8-4.5C618,1084.7,617.5,1084.1,616.8,1083.8z"/>
				</g>
				<g class="st27">
					<path class="st28" d="M616,1090.1c0.2,0,0.3-0.1,0.5-0.2c0.2-0.1,0.3-0.2,0.5-0.3l-2.6-6.2c-0.2,0-0.3,0.1-0.5,0.2
						c-0.2,0.1-0.3,0.2-0.5,0.3L616,1090.1z"/>
				</g>
			</g>
			<g>
				<g>
					<path class="st26" d="M600.6,1122.3c-0.7-1.8-2.8-2.6-4.5-1.8c-1.8,0.7-2.6,2.8-1.8,4.5c0.7,1.8,2.8,2.6,4.5,1.8
						C600.5,1126.1,601.3,1124.1,600.6,1122.3z"/>
				</g>
				<g>
					<path class="st26" d="M599,1120.6c0.2,0.2,0.3,0.5,0.4,0.7c0.7,1.8-0.1,3.8-1.8,4.5c-1,0.4-2.1,0.3-3-0.2
						c0.9,1.2,2.6,1.8,4.1,1.1c1.8-0.7,2.6-2.8,1.8-4.5C600.3,1121.5,599.7,1121,599,1120.6z"/>
				</g>
				<g class="st27">
					<path class="st28" d="M598.3,1127c0.2,0,0.3-0.1,0.5-0.2c0.2-0.1,0.3-0.2,0.5-0.3l-2.6-6.2c-0.2,0-0.3,0.1-0.5,0.2
						c-0.2,0.1-0.3,0.2-0.5,0.3L598.3,1127z"/>
				</g>
			</g>
		</g>
	</g>
	<g>
		<g>
			<path class="st3" d="M408.2,1578.6h-26.4c-10.4,0-18.9,8.5-18.9,18.9v0.2c0,10.4,8.5,18.9,18.9,18.9h26.4
				c10.4,0,18.9-8.5,18.9-18.9v-0.2C427.1,1587,418.6,1578.6,408.2,1578.6z"/>
		</g>
		<g>
			<path class="st3" d="M485.4,1578.6H459c-10.4,0-18.9,8.5-18.9,18.9v0.2c0,10.4,8.5,18.9,18.9,18.9h26.4
				c10.4,0,18.9-8.5,18.9-18.9v-0.2C504.3,1587,495.8,1578.6,485.4,1578.6z"/>
		</g>
		<g>
			<path class="st29" d="M1010,1581.3h-74.5c-0.5,0-0.9,0.4-0.9,0.9v36.2c0,0.5,0.4,0.9,0.9,0.9h74.5c0.5,0,0.9-0.4,0.9-0.9v-36.2
				C1010.9,1581.7,1010.5,1581.3,1010,1581.3z"/>
		</g>
		<g>
			<polygon class="st3" points="880.8,1613.6 808.4,1478.7 595.7,1478.7 511.4,1629.3 			"/>
		</g>
		<g>
			<path class="st30" d="M1073,1610H336.9c-0.8,0-1.4,0.6-1.4,1.4v403.5c0,0.8,0.6,1.4,1.4,1.4H1073c0.8,0,1.4-0.6,1.4-1.4v-403.5
				C1074.3,1610.6,1073.7,1610,1073,1610z"/>
		</g>
		<g>
			<path class="st3" d="M1051.6,1608.7h-31.8l0.3,406.9l29.5,0.6c12.6,0,23.6-10.8,23.6-23.8l1.1-358.5
				C1074.4,1621,1064.2,1608.7,1051.6,1608.7z"/>
		</g>
		<g>
			<path class="st3" d="M358.4,1608.7h31.8l-0.3,406.9l-29.5,0.6c-12.6,0-23.6-10.8-23.6-23.8l-1.1-358.5
				C335.6,1621,345.8,1608.7,358.4,1608.7z"/>
		</g>
		<g>
			
				<ellipse transform="matrix(0.7071 -0.7071 0.7071 0.7071 -1067.6683 1106.9874)" class="st31" cx="802.4" cy="1842.3" rx="201.9" ry="201.9"/>
		</g>
		<g>
			<circle class="st3" cx="802.4" cy="1842.3" r="166.3"/>
		</g>
		<g>
			<circle class="st4" cx="802.3" cy="1842.4" r="142.2"/>
		</g>
		<g>
			<circle class="st32" cx="802.3" cy="1842.4" r="72.3"/>
		</g>
		<g>
			<circle class="st0" cx="742.3" cy="1824.6" r="43.2"/>
		</g>
		<g>
			
				<ellipse transform="matrix(0.9899 -0.1417 0.1417 0.9899 -257.6967 133.4446)" class="st0" cx="808.2" cy="1876.3" rx="23.6" ry="23.6"/>
		</g>
		<g>
			<path class="st16" d="M557,1709.2h-28.3c-0.4,0-0.7,0.3-0.7,0.7v263.4c0,0.4,0.3,0.7,0.7,0.7H557c0.4,0,0.7-0.3,0.7-0.7V1710
				C557.7,1709.6,557.4,1709.2,557,1709.2z"/>
		</g>
		<g>
			<polygon class="st4" points="607.6,1498 795.3,1502 849.9,1608.7 553,1608.7 			"/>
		</g>
		<g class="st33">
			<defs>
				<polygon id="SVGID_1_" class="st33" points="849.9,1608.7 795.9,1498.6 608.8,1500.2 552.4,1608.7 				"/>
			</defs>
			<clipPath id="SVGID_00000008120938884329232330000016409305482790212778_">
				<use xlink:href="#SVGID_1_"  style="overflow:visible;"/>
			</clipPath>
			<g style="clip-path:url(#SVGID_00000008120938884329232330000016409305482790212778_);">
				<polygon class="st35" points="844.6,1523.5 853,1550.1 666.2,1654.9 657.7,1628.3 				"/>
			</g>
			<g style="clip-path:url(#SVGID_00000008120938884329232330000016409305482790212778_);">
				<polygon class="st35" points="823.1,1463.4 832.6,1493.2 582,1633.8 572.5,1604.1 				"/>
			</g>
			<g style="clip-path:url(#SVGID_00000008120938884329232330000016409305482790212778_);">
				<polygon class="st35" points="801.1,1446.8 804.2,1456.3 553.6,1597 550.5,1587.5 				"/>
			</g>
		</g>
		<g>
			
				<ellipse transform="matrix(0.7071 -0.7071 0.7071 0.7071 -1037.189 790.6661)" class="st35" cx="435.8" cy="1647.3" rx="15.6" ry="15.6"/>
		</g>
		<g>
			
				<ellipse transform="matrix(0.9736 -0.2282 0.2282 0.9736 -363.1486 154.3304)" class="st35" cx="485.7" cy="1647.3" rx="15.6" ry="15.6"/>
		</g>
		<g>
			
				<ellipse transform="matrix(0.9776 -0.2106 0.2106 0.9776 -334.9363 149.7556)" class="st35" cx="535.6" cy="1647.3" rx="15.6" ry="15.6"/>
		</g>
	</g>
</g>
</svg>
