<?xml version="1.0" encoding="utf-8"?>
<!-- Generator: Adobe Illustrator 27.0.0, SVG Export Plug-In . SVG Version: 6.00 Build 0)  -->
<svg version="1.1" id="Capa_1" xmlns="http://www.w3.org/2000/svg" xmlns:xlink="http://www.w3.org/1999/xlink" x="0px" y="0px"
	 viewBox="0 0 2090 512" style="enable-background:new 0 0 2090 512;" xml:space="preserve">
<style type="text/css">
	.st0{fill:#FFFFFF;}
</style>
<path class="st0" d="M149.1,64.8L138.7,96H64c-35.3,0-64,28.7-64,64v256c0,35.3,28.7,64,64,64h384c35.3,0,64-28.7,64-64V160
	c0-35.3-28.7-64-64-64h-74.7l-10.4-31.2C356.4,45.2,338.1,32,317.4,32H194.6C173.9,32,155.6,45.2,149.1,64.8z M256,384
	c-53,0-96-43-96-96s43-96,96-96s96,43,96,96S309,384,256,384z"/>
<g>
	<path class="st0" d="M732.1,267.2c-33.8,45.4-63.3,68.1-88.4,68.1c-12.2,0-20-3.3-23.3-9.8c-0.9-1.9-1.4-3.8-1.4-5.8s0.3-3.6,1-4.8
		c0.7-1.2,1.6-2.3,2.7-3c1.9-1.5,4.4-2.2,7.2-2.2c1.2,0,2.4,0.4,3.8,1.3c1.4,0.9,2,2.1,2,3.8c0,1.7-0.7,3.1-2,4.3
		c-1.3,1.2-3,1.7-5.1,1.7s-3.7-0.4-5.1-1.2v0.6c0,3.5,1.7,6.3,5,8.5s7.2,3.3,11.8,3.3c4.5,0,8.3-0.3,11.4-1c3-0.7,6.2-1.9,9.4-3.7
		c3.2-1.8,6.7-4.4,10.4-7.6c3.7-3.3,7.8-7.5,12.4-12.7c4.5-5.2,9.7-11.4,15.3-18.8l19.5-26.1c-4.4-2.9-6.5-6.3-6.5-10.3
		c0-3.3,1.5-6.2,4.5-8.6c2.8-2.3,5.6-3.4,8.3-3.4c2.8,0,4.1,0.4,4.1,1.2c0,0.4-0.5,0.7-1.4,0.9c-3.7,0.6-6.4,2-8.2,4.3
		c-1.8,2.2-2.7,4.5-2.7,6.9s1.3,4.5,3.8,6.2l1.6-2.2c12.7-17.2,23.2-30,31.5-38.4c13.3-13.7,26.3-24.9,38.9-33.6l4.8-3.1
		c-9-5.5-22.9-8.3-41.6-8.3c-18.8,0-37.1,3.7-54.8,11c-16.2,6.6-29.3,15.4-39.5,26.2c-10,10.6-14.9,21.1-14.6,31.5
		c0.2,5.8,2,10.3,5.6,13.3c3,2.5,6.6,3.7,10.8,3.7c4.3,0,8.8-1.2,13.6-3.7c4.8-2.5,9.4-5.7,13.8-9.6c4.4-3.9,8.6-8.3,12.5-13.2
		s7.4-9.7,10.3-14.5c6.4-10.3,9.9-18.3,10.6-24c0.2-2.6,0.7-4,1.5-4c0.7,0,1.1,0.3,1.2,0.9c0.1,0.6,0.2,2.3,0.2,5.2
		c0.1,2.9-0.5,6.9-1.7,12s-3.1,10.2-5.7,15.3c-2.5,5.1-5.7,10-9.4,14.6c-3.8,4.7-8.1,8.8-12.9,12.4c-10.6,7.9-22.2,11.8-35,11.8
		c-4.7,0-9-1.8-12.7-5.4c-4.1-4-6.3-8.9-6.5-14.8c-0.2-5.9,1.2-11.9,4.1-17.8c3-6,7.1-11.6,12.4-17c5.3-5.3,11.6-10.2,18.9-14.7
		c7.3-4.5,15.1-8.3,23.5-11.5c17.7-6.8,35.8-10.3,54.2-10.3s33.4,2.8,45.1,8.5c9.4-5.2,16.4-7.8,21.1-7.8c1.5,0,2.2,0.3,2.3,0.9
		c0,0.6-0.1,1.1-0.5,1.4c-0.3,0.3-1.5,0.6-3.4,0.9c-4.6,0.9-9.7,3.1-15.3,6.8c12.5,7.4,18.8,17.5,18.8,30.3c0,9.5-3.7,18.7-11,27.6
		c-7.1,8.6-16.4,15.5-27.9,20.9c-11.8,5.4-24,8.2-36.5,8.2C743,268.9,737.3,268.3,732.1,267.2z M734.4,264.3c4.9,1,9.5,1.5,13.9,1.5
		s8.9-0.6,13.6-1.7c4.7-1.2,9.3-2.9,13.9-5.2c4.5-2.3,8.9-5.1,13.1-8.6c4.2-3.4,7.9-7.4,11.1-12c7-9.9,10.5-21.2,10.5-33.7
		c0-8.2-3-14.8-9-19.8c-8.6,6.2-17.5,14.8-26.7,25.8c-9.3,11-16.9,20.8-23.1,29.5L734.4,264.3z"/>
	<path class="st0" d="M793.3,332.9c-2.1-0.4-4.4-0.6-7-0.6c-4.4,0-8.1,0.4-11,1.2l129.1-184.3c5.2,0.8,10.6,0.8,16.2,0L805,309.7
		l0.6,1.3c5.9-6.8,11.4-12.9,16.4-18.2l13.9-14c7.9-7.7,14.3-13.1,19.2-16.3c7.4-4.8,14.4-7.2,21-7.2c6.9,0,11.3,2.5,13.1,7.5
		c3.5,9.6-7.4,28.1-32.8,55.3l-4.5,5c-2.5,2.8-3.7,4.9-3.7,6.4c0,0.8,0.9,1.4,2.6,1.9c1.7,0.5,4.1,0.8,7.2,0.8c3.1,0,6.8-1,11-3
		s8.3-4.5,12.2-7.5c4-3,7.7-6.4,11.3-10c3.6-3.7,6.8-7.1,9.6-10.4s5.2-6.1,7.2-8.6c1.9-2.5,3.3-4.1,4-4.8l2.6,2
		c-0.8,0.9-2.2,2.6-4.3,5.1c-2.1,2.6-4.6,5.5-7.6,8.9s-6.4,6.9-10.1,10.7c-3.8,3.7-7.8,7.1-12.1,10.1c-9.8,7.2-18.7,10.7-26.7,10.7
		c-6.4,0-11.1-1.7-14.1-5.2c-0.9-1.1-1.4-2.4-1.4-3.8c0-1.5,0.2-3.2,0.6-5.1c0.4-1.9,1.5-4.3,3.2-7.3c4-6.7,9.2-13.7,15.7-21
		s10.8-12.3,12.9-15c2.1-2.6,3.8-4.9,5-6.9c2.3-3.7,3.5-6.6,3.5-8.6c0-2.8-1.8-4.2-5.5-4.2c-4.9,0-10.5,2.2-16.9,6.5
		c-15.5,10.3-33.5,28.3-54.1,54L793.3,332.9z"/>
	<path class="st0" d="M977.2,316.3c-2.9,0-5-1.2-6.3-3.5c-9.3,10.5-19.2,17.5-30,20.9c-3.6,1.1-7.1,1.6-10.4,1.6
		c-3.4,0-6.3-0.4-8.7-1.2c-2.4-0.8-4.4-1.9-5.9-3.3c-6.3-5.4-6.9-14.8-1.9-28.1c1.9-5.2,4.5-10.1,7.5-14.6
		c3.1-4.5,6.5-8.7,10.4-12.5c3.8-3.8,8-7.3,12.4-10.3c10-6.8,19.8-10.1,29.4-10.1c4.1,0,7.7,1.1,10.7,3.2s4.6,5.2,4.8,9.2
		s0,7.8-0.7,11.3s-1.7,7-3.1,10.5c-2.8,7.2-6.8,13.9-11.9,20.3c0.5,2.3,2,3.4,4.5,3.4s4.8-0.6,7-1.7s4.4-2.5,6.6-4.2
		c2.2-1.7,4.4-3.5,6.5-5.6s4.1-4,5.9-5.9l4.4-4.9c1.2-1.5,2.1-2.5,2.7-3l2.6,2c-1,0.9-2.3,2.3-3.8,4c-1.6,1.7-3.3,3.5-5.2,5.5
		l-6.2,6.1C990.4,312.6,983.4,316.3,977.2,316.3z M928.8,330.9c1.2,0.6,3,0.9,5.2,0.9c5.1,0,11.5-2.8,19.5-8.5
		c6.1-4.4,11.5-9.4,16.2-15v-0.5c0-6.6,2.5-11.6,7.5-14.9c1.3-0.9,2.6-1.6,3.7-2c3.7-7.9,5.5-14.4,5.2-19.5c-0.5-8-3.4-12-8.9-12
		c-9.2,0-22,10.3-38.6,31c-10.6,13.4-15.7,23.8-15,31.2C923.7,326,925.4,329,928.8,330.9z"/>
	<path class="st0" d="M1011.1,328.3c0,2.3,1.9,3.5,5.6,3.6c3.7,0.1,7.5-0.7,11.3-2.4c3.8-1.7,7.5-3.9,11.3-6.5
		c3.7-2.6,7.3-5.6,10.8-8.9s6.8-6.6,9.8-9.9s5.8-6.3,8.2-9.2l6.1-7.2l2.6,2l-6.1,7c-21.7,25.7-39.9,38.6-54.7,38.6
		c-4.3,0-7.5-0.9-9.6-2.6s-3.2-3.6-3.2-5.6s0.1-3.7,0.3-5s0.6-2.8,1.2-4.4c0.6-1.6,1.5-3.5,2.7-5.7s2.8-4.8,4.8-7.9l18.2-26.2
		l30.1-42.3h-9.2c-2.3,0-3.5-0.6-3.5-1.7c0-1.1,1.5-1.7,4.4-1.7h10.6l21.6-30.3c5.4,0.9,10.8,0.9,16.2,0l-22.5,30.3h30.1
		c2.2,0,3.3,0.6,3.3,1.7c0,1.1-1,1.7-2.9,1.7h-33l-48.3,65.6c-8.3,11.7-13.1,19-14.3,21.7C1011.7,325.7,1011.1,327.5,1011.1,328.3z"
		/>
	<path class="st0" d="M1138.1,316.3c-2.9,0-5-1.2-6.3-3.5c-9.3,10.5-19.2,17.5-30,20.9c-3.6,1.1-7.1,1.6-10.4,1.6s-6.3-0.4-8.7-1.2
		c-2.4-0.8-4.4-1.9-5.9-3.3c-6.3-5.4-6.9-14.8-1.9-28.1c1.9-5.2,4.5-10.1,7.5-14.6c3.1-4.5,6.5-8.7,10.4-12.5
		c3.8-3.8,8-7.3,12.4-10.3c10-6.8,19.8-10.1,29.4-10.1c4.1,0,7.7,1.1,10.7,3.2s4.6,5.2,4.8,9.2c0.2,4,0,7.8-0.7,11.3
		s-1.7,7-3.1,10.5c-2.8,7.2-6.8,13.9-11.9,20.3c0.5,2.3,2,3.4,4.5,3.4s4.8-0.6,7-1.7s4.4-2.5,6.6-4.2s4.4-3.5,6.5-5.6s4.1-4,5.9-5.9
		l4.4-4.9c1.2-1.5,2.1-2.5,2.7-3l2.6,2c-1,0.9-2.3,2.3-3.8,4c-1.6,1.7-3.3,3.5-5.2,5.5l-6.2,6.1
		C1151.3,312.6,1144.3,316.3,1138.1,316.3z M1089.7,330.9c1.2,0.6,3,0.9,5.2,0.9c5.1,0,11.5-2.8,19.5-8.5c6.1-4.4,11.5-9.4,16.2-15
		v-0.5c0-6.6,2.5-11.6,7.5-14.9c1.3-0.9,2.6-1.6,3.7-2c3.7-7.9,5.5-14.4,5.2-19.5c-0.5-8-3.4-12-8.9-12c-9.2,0-22,10.3-38.6,31
		c-10.6,13.4-15.7,23.8-15,31.2C1084.6,326,1086.3,329,1089.7,330.9z"/>
	<path class="st0" d="M1271.1,311.9c-11,0-21.3-1.5-30.8-4.4c-10.9,9-19,15.3-24.5,18.8c-10.1,6.3-20.4,9.4-30.9,9.4
		c-12,0-19.7-3.5-23.2-10.4c-1-2.1-1.5-4.2-1.5-6.2s0.3-3.7,1-4.9c0.7-1.2,1.6-2.2,2.6-2.9c2.1-1.5,4.5-2.2,7.3-2.2
		c3.9,0,5.8,1.7,5.8,5.2c0,1.6-0.6,2.9-1.9,4s-3,1.7-5.2,1.7s-3.9-0.4-5-1.2v0.8c0,8.6,7,12.8,21,12.8c9.7,0,20.7-4.3,33-12.8
		l17.4-13.6c-11-4.1-19.9-9.9-26.5-17.5c-6.4-7.2-9.8-15-10.3-23.7c-0.5-8.5,2.3-15.7,8.4-21.7c6.4-6.3,15-9.4,25.9-9.4
		c15.2,0,27.9,6.5,38.2,19.5c3.1,4,5.8,8.2,7.9,12.7c25-23.9,41.3-39.3,49-46.2l19.1-16.6c25.8-21.2,44.8-31.8,57-31.8
		c1.4,0,2.1,0.2,2.1,0.7s-0.6,1-1.9,1.5s-2.7,1.5-4.3,3c-1.6,1.6-3.8,4.2-6.8,7.8l-11.4,14.6L1303.9,304c21.7-6.5,38.6-18,50.7-34.6
		c3.9-5.3,6.5-9.7,7.8-13.3c1.8-4.7,2.9-7.1,3.3-7.1c0.2,0,0.6,0.3,1.1,1s0.7,2.1,0.6,4.2s-0.7,4.7-1.7,7.6s-2.3,5.7-3.8,8.3
		c-2.6,4.4-6.8,9.4-12.7,15c-11.9,11.6-28.2,19.5-49,23.8l-19.9,26.4l-7.5-0.5c-2.5-0.2-4.5-0.2-5.9-0.2s-2.7,0.1-3.7,0.2l-3.3,0.5
		l17.3-21.3c0.2-0.4,0.5-0.8,0.7-1.1c0.2-0.3,0.4-0.7,0.6-1.1C1276,311.8,1273.5,311.9,1271.1,311.9z M1239,303.7
		c15.2-13.5,27.9-25.3,38.2-35.3c-6.5-14.7-16.3-24.3-29.5-28.9c-4.4-1.5-8.8-2.2-13-2.2s-8,0.8-11.3,2.3s-6.2,3.5-8.7,6
		c-5.4,5.4-8,11.7-8,19.1c0,13,6.1,23.7,18.2,32.1C1229,299.5,1233.7,301.9,1239,303.7z M1243.1,305c8.5,2.4,18.1,3.6,28.7,3.6
		c2.7,0,5.4-0.1,8.2-0.3c1.8-4.6,2.7-9,2.7-13.3c0-7.9-1.3-15.5-3.8-22.7C1261.3,288.7,1249.4,299.7,1243.1,305z M1281.6,269.6
		c3.2,8.2,4.8,15.2,4.8,21s-0.5,10.4-1.4,13.8l43.3-52.4c28.5-33.2,46.2-53.4,53.1-60.7c6.8-7.3,11.9-12.4,15.2-15.4l-7.8,3.3
		c-10.5,4.6-25.5,15.3-45,32.2l-24.5,22.2L1281.6,269.6z"/>
	<path class="st0" d="M1433,265c-0.2-4.5-3-6.8-8.5-6.8c-11.3,0-25.8,11.7-43.7,35.2c-7.4,9.8-11.1,18.7-11.1,26.6
		c0,3.4,0.9,6,2.8,7.8c3.3,3,7.4,4.5,12.5,4.5s10.5-1,16.2-3.1s11-4.7,15.9-7.9c4.9-3.2,9.4-6.7,13.4-10.4c4-3.8,7.5-7.3,10.5-10.6
		c3-3.3,5.3-6.1,7-8.5c1.7-2.3,2.7-3.7,3-4.1l2.6,2l-3.1,4.2c-14.6,19.2-30.9,32.1-49,38.6c-6.1,2.2-11.8,3.3-17.1,3.3
		c-5.4,0-9.6-0.5-12.6-1.6s-5.6-2.6-7.6-4.4c-3.9-3.8-5.8-8.5-5.8-14.2c0-11.1,4.8-22.4,14.5-33.9c7.5-9,16.5-15.9,26.8-20.8
		c8.4-3.9,16.6-5.8,24.5-5.6c7,0.2,11.4,2.6,13.3,7.1c1.9,4.6,0.9,8.8-3,12.6c-2.6,2.6-5.1,4-7.5,4c-5.6,0-8.5-2.3-8.6-6.9
		c-0.1-2.2,0.8-4,2.5-5.4s3.5-2.2,5.2-2.4c2.5-0.2,4.8,0.3,7,1.3V265H1433z"/>
	<path class="st0" d="M1509.3,335.3c-7.8,0-11.7-2.4-11.7-7.2c0-4,2.3-8.9,6.8-14.9l7.3-9.3l-1.2-0.5c-13.1,16.1-25.4,26.2-37,30.3
		c-3.2,1.1-5.9,1.6-8.3,1.6c-9.6,0-14.3-5.1-14.3-15.3c0-12,4.8-23.4,14.3-34.3c14.1-16.5,28.4-26.2,42.7-29.3
		c4.3-0.9,7.9-1.3,11-1.3s5.4,0.2,7.2,0.6c1.7,0.4,3.3,1,4.6,1.8c2.8,1.8,4.2,4,4.2,6.6s-0.5,5.1-1.4,7.4l11.4-14.1
		c2.1,0.6,4,0.9,5.8,0.9c4.6,0,7.9-0.2,9.9-0.5l-39.3,47.3c-9.3,10.9-14,18.5-14,23c0,2.5,1.5,3.7,4.4,3.7c3,0,6.4-0.9,10.2-2.7
		c3.8-1.8,7.7-4.1,11.5-6.9s7.5-5.9,11.1-9.3s7-6.8,10-10c3.1-3.3,5.8-6.3,8.1-9.1l5.6-6.3l2.4,2l-5.9,6.8
		C1542.5,322.4,1524,335.3,1509.3,335.3z M1477,293.4c-11,13.3-16.4,24.2-16.4,32.6c0,3.9,1.7,5.8,5.2,5.8
		c11.3,0,27.7-12.6,49.1-37.7l9.8-11.8c4.7-7.1,7-12.2,7-15.4c0-5.4-2.7-8.2-8.2-8.2c-7.4,0-18,6.3-31.8,18.9
		C1487,282.1,1482.1,287.3,1477,293.4z"/>
	<path class="st0" d="M1624.6,303.4c-19,21.3-34.2,31.9-45.5,31.9c-9.9,0-14.8-5.1-14.8-15.3c0-11.8,4.9-23.2,14.6-34.3
		c17.5-20.4,35.9-30.5,55.4-30.5c5.8,0,10.1,1.8,12.9,5.4c0.9,1.2,1.3,2.3,1.3,3.3s0,1.7-0.1,1.9c0,0.3-0.1,0.6-0.1,1l57.8-83
		l24.5-34.6c2.9,1.2,5.6,1.9,8,1.9c2.5,0,4.7-0.1,6.8-0.3L1634.7,306c-4.5,6.1-7.9,10.9-10.2,14.4c-2.3,3.5-3.4,6.3-3.4,8.4
		s1,3.1,2.9,3.1c7.5,0,16.1-3.5,25.7-10.5c8.8-6.4,18.4-15.9,28.8-28.7c1.9-2.5,3.3-4.1,4.1-4.9l2.6,2c-0.9,0.9-2.4,2.6-4.5,5.1
		c-2.1,2.6-4.8,5.5-7.9,8.9c-3.1,3.3-6.7,6.9-10.6,10.6s-8.1,7.2-12.5,10.3c-10,7.2-18.9,10.7-26.5,10.7c-7.7,0-11.4-2.5-11.4-7.5
		c0.1-5,4.7-13,13.9-24L1624.6,303.4z M1590.7,293.6c-11.1,13.5-16.7,24.3-16.7,32.4c0,3.9,1.9,5.8,5.8,5.8
		c6.9,0,16.6-5.6,28.9-16.9l9.6-9.2c5.5-5.4,10-10.6,13.5-15.6l10.4-14.8c1.8-3.6,2.7-6.6,2.7-9.2s-0.9-4.4-2.8-5.5
		s-3.8-1.7-5.8-1.7s-4.6,0.7-7.6,2c-3.1,1.4-6.5,3.5-10.4,6.4C1609.8,273.3,1600.6,282.1,1590.7,293.6z"/>
	<path class="st0" d="M1739.2,325c-4.9,3.1-10.3,5.7-16,7.8c-5.7,2-11.1,3-16.3,3s-9-0.5-11.7-1.6s-4.9-2.5-6.6-4.4
		c-7.3-7.9-7.3-19.6,0.1-35.1c3.2-6.8,8-13.1,14.5-18.7s12.1-9.9,17-12.7c9.5-5.4,18.4-8.2,26.7-8.2c8.2,0,12.6,2.6,12.9,7.7
		c0.5,8.3-9.6,17.4-30.3,27.2c-7.6,3.6-17.2,7.3-28.8,11.1c-4.6,7.5-6.9,13.5-6.9,18.2s1.2,8,3.7,10c2.4,2,6,3,10.7,3s9.8-1,15.3-3
		s10.6-4.6,15.4-7.7s9.1-6.5,13-10.1c3.9-3.7,7.3-7.2,10.3-10.5s5.4-6.2,7.3-8.7c1.9-2.4,3.2-4,3.9-4.6l2.4,2
		c-1,0.9-2.5,2.6-4.6,5.2s-4.7,5.7-7.8,9c-3.1,3.4-6.8,6.9-10.8,10.7C1748.6,318.4,1744.1,321.9,1739.2,325z M1703.4,297.1
		c23.5-8.2,38.6-16.4,45.4-24.6c2.3-2.7,3.4-5.4,3.4-7.9c0-4.4-2-6.5-6.1-6.5c-7.2,0-16.1,6.3-26.8,18.8
		C1711.8,285.5,1706.5,292.3,1703.4,297.1z"/>
	<path class="st0" d="M1789.2,332.9c-1.8-0.4-4-0.6-6.8-0.6c-4.7,0-8.4,0.4-11,1.2l40.5-57.8c5.1-7.1,7.7-11.3,7.8-12.6
		c0.3-2.6-0.5-3.8-2.4-3.8c-2.9,0-10,7.1-21.5,21.3l-7.5,9.2c-0.6,0.3-1.3,0.1-1.9-0.5c-0.7-0.7-0.8-1.1-0.5-1.5
		c2.3-2.4,4.8-5.5,7.6-9.2c2.8-3.7,5.8-7.2,8.9-10.7c7.6-8.5,14-12.7,19-12.7c8.5,0,11.3,4.4,8.2,13.2c-0.6,1.9-2,4.3-4.1,7.2
		l-24.5,34l0.6,1.3c20.9-24.2,36.3-39.8,46.1-46.9c7.8-5.9,15-8.9,21.6-8.9c4.5,0,8.1,1.2,10.7,3.7c2.1,2.1,3.1,4.3,3,6.6
		c-0.1,2.3-0.3,4.1-0.5,5.3c-0.2,1.2-0.5,2.4-0.9,3.7c-0.9,2.6-2.6,5.7-4.9,9.3c16.6-16.9,29.2-26.3,37.8-28.1
		c1.7-0.4,3.6-0.6,5.7-0.6s4,0.3,5.7,1c1.7,0.7,3.2,1.6,4.3,2.7c2,2,3,4.5,3,7.3s-0.6,5.7-1.6,8.7s-2.8,6.5-5.3,10.5
		c-5.2,8.3-14,19.2-26.4,32.5c-5.1,5.4-7.8,8.5-8,9.4s-0.3,1.6-0.3,2l-0.8,0.1c0,1.9,2.2,2.8,6.6,2.8s8.5-1,12.2-3s7.4-4.5,11.3-7.6
		c3.8-3.1,7.5-6.4,11.1-10.1s6.9-7.1,9.9-10.4l7.5-8.6c2-2.5,3.4-4.1,4.1-4.9l2.4,2c-0.8,0.8-2.2,2.5-4.4,5.1
		c-2.1,2.6-4.7,5.6-7.8,9c-3.1,3.4-6.5,7-10.3,10.7s-7.7,7.2-11.8,10.3c-9.4,7.2-17.3,10.8-23.7,10.8c-6.8,0-11.5-1.8-14.3-5.4
		c-0.9-1.1-1.3-2.4-1.3-3.8c0-1.5,0.3-3.2,0.8-5.1s1.7-4.4,3.4-7.3c3.6-6.1,8.8-12.9,15.6-20.6c6.8-7.7,11.3-12.9,13.4-15.5
		s3.7-4.9,5.1-6.9c2.4-3.8,3.6-6.7,3.6-8.6c0-2.8-2-4.2-5.9-4.2c-7.8,0-21.2,9.7-40.3,29.1c-8.2,8.2-17.3,18.7-27.3,31.4l-10.8,14.2
		c-1.8-0.4-4-0.6-6.8-0.6c-4.4,0-8.1,0.4-11,1.2c11.5-14.1,17.8-21.8,19-23.3c17.5-23.1,27.2-36.1,29-39.2c2.6-4.4,3.8-7.5,3.8-9.2
		c0-2.4-1.9-3.6-5.7-3.6c-5.1,0-11,2.7-17.7,8.2c-14.2,11.3-31,28.8-50.3,52.4L1789.2,332.9z"/>
	<path class="st0" d="M1954.2,326.9c0,3.6,2.3,5.4,6.9,5.4s9.7-1.2,15.2-3.6c5.6-2.4,11-5.5,16.4-9.3c10.3-7.2,19.9-16.2,28.6-27
		c13.7-15.6,21.9-25.1,24.6-28.3l6.3-7.8c3,0.5,5.2,0.8,6.6,0.8c4,0,7-0.2,9-0.5l-40.6,50l-20.6,27.6l-17.7,23.1
		c20.1-9.6,35.4-19.2,46.2-28.8c7-6.2,13.6-13.1,19.7-20.5l16.8-20.3l2.4,2l-14.7,17.4c-8.7,10.3-16,17.9-21.8,23s-11.2,9.2-16,12.5
		c-9.2,6.1-21.4,12.7-36.7,19.9c-14.5,18.1-25.4,30.7-32.7,37.8c-7.3,7.1-13.2,12.1-17.4,15.1c-4.3,3-8.4,5.3-12.5,7.1
		c-6.8,3-15,4.4-24.4,4.4c-4.7,0-7.9-1.7-9.4-5c-0.5-0.9-0.7-2.4-0.7-4.4s1.3-4.8,3.9-8.5c2.6-3.6,7.1-7.6,13.4-12.1
		c12.6-8.9,34.4-19.8,65.3-32.9l47.5-60.2l-1.3-0.5c-7.4,7.9-14.9,14.2-22.6,18.9c-14.4,8.7-25.9,13.1-34.5,13.1
		c-4.4,0-7.6-0.9-9.8-2.6c-2.2-1.7-3.3-3.9-3.3-6.4s0.2-4.8,0.7-6.9s1.4-4.5,2.8-7.4c2.9-5.5,8.4-14,16.4-25.3
		c3.6-4.4,7.9-9.2,12.9-14.3l16.2-16.4l5.5,0.6c1.2,0.1,3.2,0.1,5.8,0.1c2.6,0,5-0.1,7.1-0.3c-6.9,6.2-12.1,11.3-15.5,15.2l-8.3,9.3
		c-17.2,19-26.9,30.2-29,33.3C1956.4,320.3,1954.2,324.6,1954.2,326.9z M1966.1,369c-39.1,16.7-62.6,30-70.5,39.9
		c-2.8,3.5-4.2,6.9-4.2,10.1c0,0.9,0.5,1.8,1.6,3c1,1.1,3.3,1.7,6.7,1.7c3.4,0,7.2-0.8,11.4-2.3c4.2-1.5,8.8-4.3,13.9-8.2
		C1934.4,405.8,1948.1,391,1966.1,369z"/>
</g>
</svg>
