<?xml version="1.0" encoding="utf-8"?>
<!-- Generator: Adobe Illustrator 27.0.0, SVG Export Plug-In . SVG Version: 6.00 Build 0)  -->
<svg version="1.1" id="Layer_1" xmlns="http://www.w3.org/2000/svg" xmlns:xlink="http://www.w3.org/1999/xlink" x="0px" y="0px"
	 viewBox="0 0 3376.7 2200" style="enable-background:new 0 0 3376.7 2200;" xml:space="preserve">
<style type="text/css">
	.st0{fill:#FFFFFF;}
	.st1{fill:#D3DFEB;}
	.st2{fill:#F8E6C7;}
	.st3{fill:#3C251D;}
	.st4{fill:#A6BFD5;}
	.st5{fill:#49403E;}
	.st6{fill:#E17660;}
	.st7{fill:#EEBE80;}
	.st8{fill:#7CA594;}
	.st9{fill:#E2E8ED;}
	.st10{opacity:0.35;}
	.st11{fill:#706664;}
	.st12{fill:#A1B5D1;}
	.st13{fill:#615DA7;}
	.st14{fill:#E8A080;}
	.st15{fill:#BF635F;}
	.st16{fill:#CD5959;}
	.st17{fill:#E27976;}
	.st18{fill:#E1755F;}
	.st19{fill:#333333;}
	.st20{fill:#8DA0A6;}
	.st21{fill:#222626;}
	.st22{fill:#3D3F3F;}
	.st23{fill:#B6C8CF;}
	.st24{opacity:0.42;}
	.st25{fill:#5E5E5E;}
	.st26{opacity:0.12;}
	.st27{fill:#BF3A3A;}
	.st28{fill:#4D4D4D;}
	.st29{clip-path:url(#SVGID_00000150808048329671901900000011853794323357195409_);}
</style>
<g>
	<g>
		<g>
			<g>
				<rect x="0" y="0" class="st0" width="3376.7" height="2200"/>
			</g>
		</g>
	</g>
</g>
<g>
	<g>
		<path class="st1" d="M2568.1,1825.2c-176.4-10.7-339.8-118.8-439.4-265.4c-149.8-220.6-209.4-578.7-30.3-800.1
			c173.4-214.3,490.8-234.4,736.1-148.3c172.3,60.5,323.6,189.4,392.9,358.4c162,394.8-235.9,868-644.2,856.1
			C2578.1,1825.7,2573.1,1825.5,2568.1,1825.2z"/>
	</g>
	<g>
		<path class="st2" d="M735.5,1981.7c-174.8-10.6-336.6-117.7-435.2-262.9c-148.4-218.6-207.4-573.3-30-792.6
			C441.9,713.9,756.3,694,999.4,779.3c170.7,59.9,320.6,187.6,389.2,355c160.4,391.1-233.7,859.8-638.2,848.1
			C745.4,1982.2,740.4,1982,735.5,1981.7z"/>
	</g>
	<g>
		<g>
			<path class="st3" d="M2447.5,709.6H2384c-1.2,0-2.2-1-2.2-2.2v-63.5c0-1.2,1-2.2,2.2-2.2h63.5c1.2,0,2.2,1,2.2,2.2v63.5
				C2449.7,708.6,2448.7,709.6,2447.5,709.6z M2386.2,705.2h59.1v-59.1h-59.1V705.2z"/>
		</g>
		<g>
			<path class="st3" d="M2411.1,695.5c-0.6,0-1.2-0.3-1.6-0.7l-17.4-18.4c-0.8-0.9-0.8-2.3,0.1-3.1c0.9-0.8,2.3-0.8,3.1,0.1
				l15.6,16.5l28.3-37.5c0.7-1,2.1-1.2,3.1-0.4c1,0.7,1.2,2.1,0.4,3.1l-29.8,39.6c-0.4,0.5-1,0.8-1.6,0.9L2411.1,695.5z"/>
		</g>
	</g>
	<g>
		<path class="st3" d="M2420.1,1632.4c-7.2,0-14.4-0.1-21.6-0.4c-2.9-0.1-5.1-2.5-5-5.4c0.1-2.9,2.3-4.9,5.4-5
			c7.5,0.3,15.1,0.4,22.6,0.4c6.3,0,12.5-0.1,18.7-0.3c3.4,0,5.3,2.2,5.3,5.1c0.1,2.9-2.2,5.3-5.1,5.3
			C2433.8,1632.3,2427,1632.4,2420.1,1632.4z M2482,1629.6c-2.7,0-4.9-2-5.2-4.7c-0.3-2.8,1.8-5.4,4.7-5.6c13.7-1.3,27.4-3,41-5.1
			c3.1-0.4,5.5,1.5,5.9,4.3c0.4,2.8-1.5,5.5-4.3,5.9c-13.8,2.2-27.8,3.9-41.7,5.2C2482.3,1629.6,2482.2,1629.6,2482,1629.6z
			 M2357.1,1629.3c-0.2,0-0.3,0-0.5,0c-13.9-1.4-27.9-3.2-41.6-5.4c-2.8-0.5-4.7-3.1-4.3-6c0.5-2.8,3.1-4.7,6-4.3
			c13.6,2.2,27.4,4,41,5.4c2.9,0.3,4.9,2.8,4.7,5.7C2362,1627.3,2359.7,1629.3,2357.1,1629.3z M2564.3,1616.7
			c-2.4,0-4.5-1.6-5.1-4.1c-0.6-2.8,1.1-5.6,3.9-6.2c13.3-3,26.7-6.5,40-10.3c2.7-0.8,5.6,0.8,6.5,3.5c0.8,2.8-0.8,5.6-3.5,6.5
			c-13.5,3.9-27.2,7.5-40.7,10.5C2565,1616.6,2564.6,1616.7,2564.3,1616.7z M2274.8,1615.8c-0.4,0-0.8,0-1.2-0.1
			c-13.6-3.1-27.2-6.8-40.6-10.8c-2.7-0.8-4.3-3.7-3.5-6.5c0.8-2.7,3.6-4.4,6.5-3.5c13.1,3.9,26.6,7.5,39.9,10.6
			c2.8,0.6,4.5,3.4,3.9,6.2C2279.3,1614.1,2277.2,1615.8,2274.8,1615.8z M2644.2,1593.2c-2.1,0-4.1-1.3-4.9-3.4
			c-1-2.7,0.4-5.7,3.1-6.7c13-4.8,25.9-10,38.4-15.5c2.6-1.2,5.7,0,6.9,2.6c1.2,2.6,0,5.7-2.6,6.9c-12.7,5.6-25.8,10.9-39,15.7
			C2645.4,1593.1,2644.8,1593.2,2644.2,1593.2z M2195.1,1591.8c-0.6,0-1.2-0.1-1.8-0.3c-13.2-4.9-26.2-10.3-38.8-15.9
			c-2.6-1.2-3.8-4.3-2.6-6.9c1.2-2.6,4.3-3.8,6.9-2.6c12.4,5.6,25.3,10.9,38.2,15.7c2.7,1,4,4,3,6.7
			C2199.1,1590.5,2197.2,1591.8,2195.1,1591.8z M2720.6,1559.5c-1.9,0-3.7-1-4.6-2.8c-1.3-2.5-0.3-5.7,2.2-7
			c12-6.3,24.2-13.1,36-20.4c2.5-1.5,5.7-0.7,7.1,1.7c1.5,2.5,0.7,5.7-1.7,7.1c-12.1,7.3-24.4,14.3-36.6,20.7
			C2722.2,1559.3,2721.4,1559.5,2720.6,1559.5z M2119.1,1557.7c-0.8,0-1.7-0.2-2.4-0.6c-12.4-6.6-24.6-13.6-36.4-20.9
			c-2.4-1.5-3.2-4.7-1.7-7.2c1.5-2.4,4.7-3.2,7.2-1.7c11.6,7.2,23.6,14.1,35.8,20.5c2.5,1.3,3.5,4.5,2.2,7
			C2122.8,1556.7,2121,1557.7,2119.1,1557.7z M2791.8,1516.1c-1.6,0-3.2-0.8-4.2-2.2c-1.7-2.3-1.1-5.6,1.3-7.2
			c11.2-7.9,22.3-16.2,33-24.9c2.3-1.8,5.5-1.4,7.3,0.8c1.8,2.3,1.5,5.5-0.8,7.3c-11,8.8-22.3,17.3-33.6,25.3
			C2793.9,1515.8,2792.8,1516.1,2791.8,1516.1z M2048.3,1514c-1.1,0-2.1-0.3-3-1c-11.5-8.2-22.7-16.7-33.4-25.5
			c-2.2-1.8-2.6-5.1-0.7-7.3c1.8-2.2,5.1-2.6,7.3-0.7c10.5,8.6,21.6,17,32.9,25.1c2.3,1.7,2.9,4.9,1.2,7.2
			C2051.5,1513.2,2049.9,1514,2048.3,1514z M2856.7,1463.7c-1.4,0-2.8-0.6-3.8-1.7c-1.9-2.1-1.8-5.4,0.3-7.3
			c10.1-9.3,20-19.1,29.5-29c2-2.1,5.3-2.2,7.3-0.2c2.1,2,2.2,5.3,0.2,7.3c-9.6,10.1-19.7,20.1-29.9,29.5
			C2859.2,1463.3,2858,1463.7,2856.7,1463.7z M1983.7,1461.3c-1.3,0-2.5-0.5-3.5-1.4c-10.1-9.4-20.1-19.4-29.8-29.7
			c-1.9-2.1-1.8-5.4,0.2-7.3c2.1-1.9,5.4-1.9,7.3,0.2c9.5,10.1,19.3,19.9,29.3,29.2c2.1,1.9,2.2,5.2,0.3,7.3
			C1986.5,1460.8,1985.1,1461.3,1983.7,1461.3z M2914.1,1403.3c-1.2,0-2.4-0.4-3.3-1.2c-2.2-1.8-2.5-5.1-0.7-7.3
			c8.8-10.6,17.3-21.6,25.3-32.7c1.7-2.3,4.9-2.8,7.3-1.2c2.3,1.7,2.8,4.9,1.2,7.3c-8.2,11.3-16.8,22.5-25.8,33.2
			C2917.1,1402.7,2915.6,1403.3,2914.1,1403.3z M1926.7,1400.6c-1.5,0-3-0.6-4-1.9c-8.9-10.9-17.5-22.1-25.5-33.3
			c-1.7-2.3-1.1-5.6,1.2-7.2c2.3-1.7,5.6-1.2,7.2,1.2c7.9,11.1,16.4,22.2,25.1,32.8c1.8,2.2,1.5,5.5-0.7,7.3
			C1929.1,1400.2,1927.9,1400.6,1926.7,1400.6z M2962.9,1335.7c-1,0-1.9-0.3-2.8-0.8c-2.4-1.5-3.2-4.7-1.6-7.2
			c7.3-11.7,14.3-23.7,20.7-35.7c1.4-2.6,4.5-3.5,7-2.2c2.5,1.3,3.5,4.5,2.2,7c-6.5,12.2-13.6,24.5-21,36.4
			C2966.3,1334.9,2964.6,1335.7,2962.9,1335.7z M1878.3,1332.7c-1.7,0-3.4-0.9-4.4-2.5c-7.3-11.8-14.3-24.1-20.8-36.5
			c-1.3-2.5-0.3-5.7,2.2-7c2.6-1.3,5.7-0.3,7,2.2c6.4,12.3,13.3,24.3,20.4,35.9c1.5,2.4,0.8,5.6-1.7,7.1
			C1880.2,1332.5,1879.3,1332.7,1878.3,1332.7z M3002,1262.2c-0.7,0-1.4-0.1-2.1-0.4c-2.6-1.2-3.8-4.3-2.6-6.9
			c5.7-12.6,10.9-25.5,15.5-38.2c1-2.7,4-4,6.7-3.1c2.7,1,4.1,4,3.1,6.7c-4.7,13-10.1,26.1-15.8,38.9
			C3005.9,1261.1,3004,1262.2,3002,1262.2z M1839.6,1258.9c-2,0-3.9-1.2-4.7-3.1c-5.6-12.6-10.8-25.8-15.6-39.1
			c-1-2.7,0.4-5.7,3.1-6.7c2.7-1,5.7,0.4,6.7,3.1c4.7,13.1,9.9,26,15.3,38.4c1.2,2.6,0,5.7-2.7,6.8
			C1841,1258.8,1840.3,1258.9,1839.6,1258.9z M3030.6,1184.1c-0.5,0-1-0.1-1.4-0.2c-2.8-0.8-4.3-3.7-3.6-6.4
			c3.9-13.3,7.2-26.8,10.1-40.1c0.6-2.8,3.5-4.6,6.2-4c2.8,0.6,4.6,3.3,4,6.2c-2.9,13.5-6.3,27.2-10.3,40.8
			C3035,1182.6,3032.9,1184.1,3030.6,1184.1z M1811.4,1180.4c-2.3,0-4.3-1.5-5-3.8c-3.8-13.4-7.2-27.1-10-40.9
			c-0.6-2.8,1.2-5.6,4-6.1c2.8-0.5,5.6,1.2,6.1,4c2.8,13.5,6.1,27,9.8,40.1c0.8,2.8-0.8,5.6-3.6,6.4
			C1812.3,1180.4,1811.9,1180.4,1811.4,1180.4z M3048.1,1102.6c-0.2,0-0.5,0-0.7-0.1c-2.8-0.4-4.8-3-4.4-5.9
			c1.9-13.7,3.4-27.5,4.4-41.1c0.2-2.8,2.2-5.3,5.6-4.8c2.9,0.2,5,2.7,4.8,5.6c-1,13.8-2.5,27.9-4.5,41.8
			C3052.9,1100.8,3050.7,1102.6,3048.1,1102.6z M1794.4,1098.9c-2.6,0-4.8-1.9-5.2-4.5c-1.9-13.7-3.3-27.8-4.2-41.8
			c-0.2-2.9,2-5.3,4.8-5.5c0.1,0,0.2,0,0.3,0c2.7,0,5,2.1,5.2,4.8c0.9,13.8,2.3,27.6,4.2,41.1c0.4,2.8-1.6,5.5-4.4,5.9
			C1794.8,1098.8,1794.6,1098.9,1794.4,1098.9z M3054.2,1019.5c-2.9,0-5.2-2.3-5.2-5.2v-2.5c0-13.6-0.5-27.5-1.4-41.3
			c-0.2-2.9,2-5.3,4.8-5.5c3.2-0.4,5.3,2,5.5,4.8c1,14,1.4,28.1,1.4,42v2.5C3059.4,1017.2,3057.1,1019.5,3054.2,1019.5z
			 M1788.9,1015.7L1788.9,1015.7c-2.9,0-5.2-2.3-5.2-5.2c0-14,0.5-28.1,1.5-42c0.2-2.9,2.6-5.4,5.5-4.8c2.9,0.2,5,2.7,4.8,5.5
			c-1,13.7-1.5,27.6-1.5,41.3C1794.1,1013.4,1791.7,1015.7,1788.9,1015.7z M3048.5,933.9c-2.6,0-4.8-1.9-5.2-4.5
			c-1.9-13.6-4.3-27.3-7.1-40.7c-0.6-2.8,1.2-5.6,4-6.2c3-0.4,5.6,1.2,6.2,4c2.9,13.6,5.3,27.6,7.2,41.4c0.4,2.8-1.6,5.5-4.4,5.9
			C3049,933.9,3048.7,933.9,3048.5,933.9z M1794.7,932.7c-0.2,0-0.5,0-0.7-0.1c-2.8-0.4-4.8-3-4.4-5.9c2-14,4.4-27.9,7.3-41.4
			c0.6-2.8,3.2-4.7,6.1-4c2.8,0.6,4.6,3.3,4,6.1c-2.8,13.2-5.2,26.9-7.2,40.7C1799.5,930.8,1797.3,932.7,1794.7,932.7z
			 M3031.4,852.4c-2.3,0-4.3-1.5-5-3.8c-3.8-13.2-8.1-26.4-12.7-39.4c-1-2.7,0.4-5.7,3.1-6.7c2.7-0.9,5.7,0.4,6.7,3.1
			c4.7,13.2,9.1,26.6,12.9,40.1c0.8,2.8-0.8,5.6-3.6,6.4C3032.3,852.3,3031.8,852.4,3031.4,852.4z M1812.1,851.2
			c-0.5,0-1-0.1-1.4-0.2c-2.8-0.8-4.4-3.7-3.6-6.4c3.8-13.4,8.2-26.9,13-40c1-2.7,4-4,6.7-3.1c2.7,1,4.1,4,3.1,6.7
			c-4.7,12.9-9,26.1-12.8,39.3C1816.4,849.7,1814.4,851.2,1812.1,851.2z M3003,774c-2,0-3.9-1.2-4.7-3.1
			c-5.6-12.6-11.6-25.1-18-37.2c-1.3-2.5-0.4-5.7,2.2-7c2.5-1.3,5.7-0.4,7,2.2c6.5,12.3,12.7,25,18.4,37.9c1.2,2.6,0,5.7-2.6,6.9
			C3004.4,773.8,3003.7,774,3003,774z M1840.6,772.9c-0.7,0-1.4-0.1-2.1-0.4c-2.6-1.2-3.8-4.2-2.6-6.9c5.6-12.7,11.8-25.4,18.4-37.8
			c1.4-2.6,4.5-3.4,7-2.2c2.5,1.3,3.5,4.5,2.2,7c-6.5,12.2-12.5,24.7-18.1,37.1C1844.5,771.8,1842.6,772.9,1840.6,772.9z
			 M2964.1,700.2c-1.7,0-3.4-0.9-4.4-2.5c-7.2-11.7-14.9-23.2-22.9-34.4c-1.7-2.3-1.1-5.6,1.2-7.2c2.3-1.7,5.6-1.2,7.2,1.2
			c8.1,11.3,16,23.1,23.3,35c1.5,2.4,0.8,5.6-1.7,7.2C2966,700,2965,700.2,2964.1,700.2z M1879.5,699.4c-0.9,0-1.9-0.2-2.7-0.8
			c-2.4-1.5-3.2-4.7-1.7-7.2c7.3-11.7,15.2-23.5,23.4-35c1.7-2.3,4.9-2.8,7.3-1.2c2.3,1.7,2.8,4.9,1.2,7.3
			c-8.1,11.2-15.8,22.8-23,34.3C1883,698.5,1881.3,699.4,1879.5,699.4z M2915.5,632.5c-1.5,0-3-0.6-4-1.9c-8.7-10.6-17.9-21-27.3-31
			c-2-2.1-1.9-5.4,0.2-7.3c2.1-2,5.4-1.9,7.3,0.2c9.6,10.2,18.9,20.8,27.8,31.5c1.8,2.2,1.5,5.5-0.7,7.3
			C2917.9,632.1,2916.7,632.5,2915.5,632.5z M1928.2,631.7c-1.2,0-2.3-0.4-3.3-1.2c-2.2-1.8-2.5-5.1-0.7-7.3
			c8.8-10.7,18.2-21.3,27.8-31.5c2-2.1,5.2-2.2,7.3-0.2c2.1,2,2.2,5.3,0.2,7.3c-9.5,10-18.7,20.4-27.4,31
			C1931.2,631.1,1929.7,631.7,1928.2,631.7z M2858.4,571.9c-1.3,0-2.5-0.5-3.5-1.4c-10-9.3-20.5-18.4-31.2-27.1
			c-2.2-1.8-2.6-5.1-0.8-7.3c1.8-2.3,5.1-2.6,7.3-0.8c10.9,8.8,21.5,18.1,31.7,27.5c2.1,2,2.2,5.3,0.3,7.3
			C2861.2,571.3,2859.8,571.9,2858.4,571.9z M1985.5,571.2c-1.4,0-2.8-0.6-3.8-1.7c-1.9-2.1-1.8-5.4,0.3-7.3
			c10.3-9.5,21-18.8,31.8-27.5c2.2-1.8,5.5-1.5,7.3,0.8c1.8,2.2,1.5,5.5-0.8,7.3c-10.6,8.6-21.1,17.7-31.3,27.1
			C1988,570.7,1986.7,571.2,1985.5,571.2z M2793.8,519.4c-1,0-2.1-0.3-3-1c-11.2-7.9-22.7-15.6-34.5-22.8c-2.4-1.5-3.2-4.7-1.7-7.1
			c1.5-2.5,4.7-3.2,7.1-1.7c11.9,7.3,23.7,15.1,35,23.1c2.3,1.7,2.9,4.9,1.2,7.2C2797,518.6,2795.4,519.4,2793.8,519.4z
			 M2050.2,518.7c-1.6,0-3.2-0.8-4.2-2.2c-1.7-2.3-1.1-5.6,1.3-7.2c11.5-8.1,23.3-15.8,35.1-23.1c2.5-1.5,5.7-0.7,7.1,1.7
			c1.5,2.5,0.7,5.6-1.7,7.1c-11.7,7.2-23.3,14.8-34.6,22.7C2052.3,518.4,2051.3,518.7,2050.2,518.7z M2722.8,475.8
			c-0.8,0-1.6-0.2-2.4-0.6c-12.3-6.5-24.7-12.5-37.1-18.1c-2.6-1.2-3.8-4.2-2.6-6.9c1.2-2.6,4.2-3.8,6.9-2.6
			c12.6,5.6,25.3,11.8,37.7,18.4c2.5,1.3,3.5,4.5,2.2,7C2726.5,474.7,2724.7,475.8,2722.8,475.8z M2121.4,475.1
			c-1.9,0-3.7-1-4.6-2.8c-1.3-2.5-0.3-5.7,2.2-7c12.3-6.5,25.1-12.6,37.9-18.3c2.6-1.2,5.7,0,6.9,2.6c1.2,2.6,0,5.7-2.6,6.9
			c-12.6,5.6-25.1,11.6-37.3,18C2123,474.9,2122.2,475.1,2121.4,475.1z M2646.8,441.8c-0.6,0-1.2-0.1-1.8-0.3
			c-12.8-4.7-25.9-9.1-39.2-13.1c-2.8-0.8-4.3-3.7-3.5-6.5c0.8-2.7,3.7-4.4,6.5-3.5c13.5,4,26.9,8.5,39.8,13.3c2.7,1,4.1,4,3.1,6.7
			C2650.9,440.5,2648.9,441.8,2646.8,441.8z M2197.7,441.3c-2.1,0-4.1-1.3-4.9-3.4c-1-2.7,0.4-5.7,3.1-6.7
			c13.2-4.8,26.6-9.3,39.9-13.2c2.8-0.8,5.7,0.8,6.5,3.5c0.8,2.8-0.8,5.6-3.5,6.5c-13,3.8-26.2,8.2-39.3,13
			C2198.9,441.2,2198.2,441.3,2197.7,441.3z M2567,418c-0.4,0-0.8,0-1.2-0.1c-13.3-3-26.9-5.7-40.6-7.9c-2.8-0.5-4.7-3.1-4.3-6
			c0.5-2.8,3-4.7,6-4.3c13.9,2.3,27.8,4.9,41.2,8c2.8,0.6,4.5,3.4,3.9,6.2C2571.5,416.3,2569.3,418,2567,418z M2277.6,417.6
			c-2.4,0-4.5-1.6-5.1-4.1c-0.6-2.8,1.1-5.6,3.9-6.2c13.7-3.1,27.6-5.8,41.3-7.9c2.9-0.3,5.5,1.5,5.9,4.3s-1.5,5.5-4.3,5.9
			c-13.4,2.1-27.1,4.8-40.6,7.8C2278.3,417.6,2277.9,417.6,2277.6,417.6z M2484.7,404.7c-0.2,0-0.3,0-0.5,0
			c-13.6-1.3-27.4-2.2-41.3-2.7c-2.9-0.1-5.1-2.5-5-5.4c0.1-2.9,2.3-4.9,5.4-5c14,0.5,28.1,1.4,41.9,2.7c2.9,0.3,4.9,2.8,4.7,5.7
			C2489.6,402.7,2487.4,404.7,2484.7,404.7z M2359.9,404.5c-2.7,0-4.9-2-5.2-4.7c-0.3-2.9,1.8-5.4,4.7-5.7c14-1.3,28.1-2.2,41.9-2.6
			c0.1,0,0.1,0,0.2,0c2.8,0,5.1,2.2,5.2,5c0.1,2.9-2.2,5.3-5,5.4c-13.6,0.4-27.5,1.3-41.3,2.6C2360.2,404.5,2360,404.5,2359.9,404.5
			z"/>
	</g>
	<g>
		<g>
			<path class="st3" d="M780.6,759.7h-53.6c-1,0-1.9-0.8-1.9-1.9v-53.6c0-1,0.8-1.9,1.9-1.9h53.6c1,0,1.9,0.8,1.9,1.9v53.6
				C782.5,758.8,781.7,759.7,780.6,759.7z M728.9,755.9h49.9v-49.9h-49.9V755.9z"/>
		</g>
		<g>
			<path class="st3" d="M750,747.7c-0.5,0-1-0.2-1.4-0.6l-14.7-15.6c-0.7-0.8-0.7-1.9,0.1-2.6c0.8-0.7,1.9-0.7,2.6,0.1l13.1,14
				l23.9-31.7c0.6-0.8,1.8-1,2.6-0.4c0.8,0.6,1,1.8,0.4,2.6L751.4,747c-0.3,0.4-0.8,0.7-1.4,0.7L750,747.7z"/>
		</g>
	</g>
	<g>
		<path class="st3" d="M699.2,1291.4c-7.3,0-14.5-0.2-21.7-0.6c-2.9-0.2-5.1-2.6-4.9-5.5c0.2-2.9,2.7-5.1,5.5-4.9
			c13.3,0.8,26.8,0.9,40.2,0.1c0.1,0,0.2,0,0.3,0c2.7,0,5,2.2,5.2,4.9c0.1,2.9-2,5.3-4.9,5.5
			C712.2,1291.2,705.7,1291.4,699.2,1291.4z M758.9,1286.3c-2.5,0-4.7-1.8-5.1-4.3c-0.5-2.8,1.4-5.5,4.2-6
			c13.1-2.3,26.2-5.3,39.1-9.1c2.7-0.8,5.6,0.8,6.5,3.5c0.8,2.7-0.8,5.6-3.5,6.5c-13.2,3.9-26.8,7.1-40.3,9.4
			C759.5,1286.3,759.2,1286.3,758.9,1286.3z M637.2,1286c-0.3,0-0.6,0-0.9-0.1c-13.5-2.4-27-5.7-40.2-9.6c-2.7-0.8-4.3-3.7-3.5-6.5
			c0.8-2.7,3.7-4.4,6.5-3.5c12.8,3.9,25.9,7,39,9.4c2.8,0.5,4.7,3.2,4.2,6C641.9,1284.2,639.7,1286,637.2,1286z M837,1263.3
			c-2,0-3.9-1.2-4.8-3.1c-1.1-2.6,0.1-5.7,2.7-6.8c12.2-5.2,24.3-11.3,35.9-17.9c2.5-1.5,5.7-0.6,7.1,1.9c1.4,2.5,0.6,5.7-1.9,7.1
			c-11.9,6.9-24.4,13.1-37,18.5C838.4,1263.1,837.7,1263.3,837,1263.3z M559.4,1262.4c-0.7,0-1.4-0.1-2.1-0.4
			c-12.7-5.5-25.1-11.8-36.9-18.7c-2.5-1.4-3.3-4.6-1.9-7.1c1.4-2.5,4.6-3.3,7.1-1.9c11.5,6.7,23.5,12.8,35.8,18.1
			c2.6,1.2,3.8,4.2,2.7,6.8C563.3,1261.3,561.4,1262.4,559.4,1262.4z M907.5,1222.8c-1.6,0-3.2-0.7-4.2-2.1
			c-1.7-2.3-1.2-5.6,1.1-7.3c10.7-7.9,21-16.6,30.8-25.7c2-1.9,5.3-1.9,7.3,0.2c1.9,2.1,1.8,5.4-0.2,7.3
			c-10.1,9.4-20.7,18.3-31.7,26.5C909.7,1222.5,908.6,1222.8,907.5,1222.8z M489.1,1221.5c-1.1,0-2.2-0.3-3.1-1
			c-10.9-8.2-21.5-17.1-31.6-26.7c-2.1-2-2.2-5.3-0.2-7.3c2-2.1,5.3-2.2,7.3-0.2c9.8,9.3,20.1,18,30.7,25.9c2.3,1.7,2.8,5,1.1,7.3
			C492.2,1220.8,490.7,1221.5,489.1,1221.5z M966.9,1167.1c-1.2,0-2.4-0.4-3.3-1.2c-2.2-1.9-2.5-5.1-0.6-7.3
			c8.6-10.2,16.8-21,24.1-32.1c1.6-2.4,4.8-3,7.2-1.4c2.4,1.6,3,4.8,1.4,7.2c-7.6,11.4-15.9,22.5-24.8,33
			C969.8,1166.5,968.4,1167.1,966.9,1167.1z M430.1,1165.6c-1.5,0-3-0.6-4-1.9c-8.8-10.6-17.1-21.7-24.6-33.2
			c-1.6-2.4-0.9-5.6,1.5-7.2c2.4-1.5,5.6-0.9,7.2,1.5c7.3,11.1,15.4,22,23.9,32.2c1.8,2.2,1.5,5.5-0.7,7.3
			C432.4,1165.2,431.2,1165.6,430.1,1165.6z M1011.9,1099.4c-0.8,0-1.6-0.2-2.4-0.6c-2.6-1.3-3.6-4.4-2.3-7
			c6.1-12,11.5-24.3,16.1-36.8c1-2.7,3.9-4.1,6.7-3.1c2.7,1,4.1,4,3.1,6.7c-4.7,12.8-10.3,25.6-16.6,37.9
			C1015.6,1098.3,1013.8,1099.4,1011.9,1099.4z M385.5,1097.5c-1.9,0-3.7-1.1-4.6-2.9c-6.1-12.3-11.6-25.1-16.3-38
			c-1-2.7,0.4-5.7,3.1-6.7c2.7-0.9,5.7,0.4,6.7,3.1c4.5,12.5,9.9,25,15.8,36.9c1.3,2.6,0.2,5.7-2.3,7
			C387.1,1097.3,386.3,1097.5,385.5,1097.5z M1040,1023c-0.4,0-0.8,0-1.2-0.1c-2.8-0.7-4.5-3.5-3.8-6.3c3.1-13,5.5-26.3,7.1-39.5
			c0.3-2.8,3.1-4.8,5.8-4.5c2.9,0.3,4.9,2.9,4.5,5.8c-1.6,13.6-4.1,27.3-7.3,40.7C1044.5,1021.4,1042.3,1023,1040,1023z M357.8,1021
			c-2.4,0-4.5-1.6-5.1-4c-3.1-13.4-5.5-27.1-7.1-40.8c-0.3-2.9,1.7-5.4,4.6-5.7c3.1-0.3,5.4,1.7,5.7,4.6c1.5,13.3,3.8,26.6,6.9,39.5
			c0.7,2.8-1.1,5.6-3.9,6.2C358.6,1020.9,358.2,1021,357.8,1021z M1049.7,941.6c-2.9,0-5.2-1.6-5.2-4.5l0-1.6
			c0-13.2-0.8-26.7-2.3-39.9c-0.3-2.8,1.7-5.4,4.6-5.7c3.1-0.4,5.4,1.7,5.7,4.6c1.6,13.6,2.4,27.5,2.4,41.3
			C1054.9,938.5,1052.5,941.6,1049.7,941.6z M348.6,940.2C348.6,940.2,348.6,940.2,348.6,940.2c-2.9,0-5.2-2.3-5.2-5.2
			c0-13.8,0.9-27.7,2.5-41.3c0.3-2.8,3-4.8,5.8-4.5c2.8,0.3,4.9,2.9,4.5,5.8c-1.5,13.1-2.3,26.6-2.4,40.1
			C353.8,937.8,351.5,940.2,348.6,940.2z M1040.3,860.1c-2.4,0-4.5-1.6-5.1-4c-3.1-13-6.9-25.9-11.5-38.5c-1-2.7,0.4-5.7,3.1-6.7
			c2.7-0.9,5.7,0.4,6.7,3.1c4.7,13,8.7,26.3,11.8,39.7c0.7,2.8-1.1,5.6-3.9,6.2C1041.1,860,1040.7,860.1,1040.3,860.1z M358.1,859.4
			c-0.4,0-0.8,0-1.2-0.1c-2.8-0.7-4.5-3.5-3.9-6.2c3.2-13.3,7.2-26.7,11.9-39.6c1-2.7,4-4.1,6.7-3.1c2.7,1,4.1,4,3.1,6.7
			c-4.6,12.6-8.5,25.5-11.6,38.4C362.6,857.8,360.5,859.4,358.1,859.4z M1012.5,783.6c-1.9,0-3.7-1.1-4.6-2.9
			c-6-11.9-12.8-23.6-20.1-34.7c-1.6-2.4-0.9-5.6,1.5-7.2c2.4-1.5,5.6-0.9,7.2,1.5c7.5,11.5,14.5,23.5,20.7,35.8
			c1.3,2.6,0.2,5.7-2.3,7C1014.1,783.4,1013.3,783.6,1012.5,783.6z M386.1,783c-0.8,0-1.6-0.2-2.4-0.6c-2.6-1.3-3.6-4.4-2.3-7
			c6.2-12.3,13.2-24.3,20.7-35.7c1.6-2.4,4.8-3,7.2-1.5c2.4,1.6,3.1,4.8,1.5,7.2c-7.4,11.1-14.1,22.8-20.2,34.7
			C389.8,782,388,783,386.1,783z M967.8,715.6c-1.5,0-2.9-0.6-4-1.8c-8.6-10.2-17.9-20.1-27.5-29.2c-2.1-2-2.2-5.3-0.2-7.3
			c1.9-2.1,5.2-2.2,7.3-0.2c10,9.4,19.5,19.5,28.4,30.1c1.8,2.2,1.6,5.5-0.6,7.3C970.1,715.2,968.9,715.6,967.8,715.6z M431,715.1
			c-1.2,0-2.4-0.4-3.3-1.2c-2.2-1.8-2.5-5.1-0.6-7.3c8.8-10.5,18.4-20.6,28.4-30c2.1-2,5.4-1.9,7.3,0.2c2,2.1,1.9,5.4-0.2,7.3
			c-9.7,9.1-19,19-27.6,29.2C433.9,714.5,432.4,715.1,431,715.1z M908.6,659.8c-1.1,0-2.2-0.3-3.1-1c-10.6-8-21.9-15.4-33.5-22.1
			c-2.5-1.4-3.3-4.6-1.9-7.1c1.4-2.5,4.6-3.3,7.1-1.9c11.9,6.9,23.5,14.6,34.5,22.8c2.3,1.7,2.8,5,1.1,7.3
			C911.8,659,910.2,659.8,908.6,659.8z M490.2,659.4c-1.6,0-3.1-0.7-4.2-2.1c-1.7-2.3-1.2-5.5,1.1-7.3c11.1-8.3,22.8-15.9,34.5-22.7
			c2.4-1.4,5.6-0.6,7.1,1.9c1.4,2.5,0.6,5.7-1.9,7.1c-11.4,6.6-22.7,14-33.6,22.1C492.4,659.1,491.3,659.4,490.2,659.4z M838.3,619
			c-0.7,0-1.4-0.1-2.1-0.4c-12.2-5.3-24.8-9.9-37.7-13.8c-2.7-0.8-4.3-3.7-3.5-6.5c0.8-2.7,3.6-4.4,6.5-3.5
			c13.2,4,26.3,8.7,38.8,14.2c2.6,1.1,3.8,4.2,2.7,6.8C842.2,617.8,840.3,619,838.3,619z M560.7,618.8c-2,0-3.9-1.2-4.8-3.1
			c-1.1-2.6,0.1-5.7,2.7-6.8c12.6-5.5,25.7-10.2,38.9-14.1c2.7-0.9,5.6,0.8,6.5,3.5c0.8,2.8-0.8,5.6-3.5,6.5
			c-12.8,3.8-25.5,8.4-37.8,13.7C562,618.6,561.4,618.8,560.7,618.8z M760.4,595.6c-0.3,0-0.6,0-0.9-0.1c-13-2.3-26.5-3.9-39.9-4.6
			c-2.9-0.2-5.1-2.6-4.9-5.5c0.2-2.9,2.5-5,5.5-4.9c13.8,0.8,27.6,2.4,41.1,4.8c2.8,0.5,4.7,3.2,4.2,6
			C765,593.9,762.8,595.6,760.4,595.6z M638.7,595.5c-2.5,0-4.7-1.8-5.1-4.3c-0.5-2.8,1.4-5.5,4.2-6c13.5-2.4,27.3-3.9,41.1-4.7
			c2.6-0.1,5.3,2,5.5,4.9c0.2,2.9-2,5.3-4.9,5.5c-13.3,0.8-26.8,2.3-39.9,4.6C639.2,595.5,638.9,595.5,638.7,595.5z"/>
	</g>
	<g>
		<g>
			<path class="st3" d="M2902.6,1200.4h-43.4c-0.8,0-1.5-0.7-1.5-1.5v-43.4c0-0.8,0.7-1.5,1.5-1.5h43.4c0.8,0,1.5,0.7,1.5,1.5v43.4
				C2904.1,1199.7,2903.5,1200.4,2902.6,1200.4z M2860.7,1197.4h40.4V1157h-40.4V1197.4z"/>
		</g>
		<g>
			<path class="st3" d="M2877.8,1190.7c-0.4,0-0.8-0.2-1.1-0.5l-11.9-12.6c-0.6-0.6-0.5-1.6,0.1-2.1c0.6-0.6,1.6-0.5,2.1,0.1
				l10.7,11.3l19.3-25.7c0.5-0.7,1.5-0.8,2.1-0.3c0.7,0.5,0.8,1.4,0.3,2.1l-20.4,27.1C2878.7,1190.5,2878.3,1190.7,2877.8,1190.7
				L2877.8,1190.7z"/>
		</g>
	</g>
	<g>
		<g>
			<path class="st3" d="M1749.8,760.7c-0.4,0-0.8-0.2-1.1-0.5c-4.7-5-9.2-9.7-13.4-14c-17.6-18.1-29.1-30.1-29.4-40.5
				c-0.1-6.3,2.2-12.3,6.6-16.8c4.4-4.6,10.2-7.1,16.6-7.3l0.5,0c7.5,0,14.4,3.5,18.8,9.5c4.3-6.2,11.3-10.1,18.9-10.3l0.5,0
				c12.8,0,23.4,10.4,23.6,23.1c0.2,11.3-14.2,27.2-32.6,47.4c-2.6,2.8-5.2,5.8-7.9,8.8C1750.6,760.5,1750.2,760.7,1749.8,760.7
				L1749.8,760.7z M1729.6,684.6l-0.4,0c-5.5,0.1-10.6,2.4-14.5,6.3c-3.8,4-5.9,9.2-5.7,14.7c0.2,9.2,12.1,21.5,28.5,38.5
				c3.9,4,8,8.2,12.3,12.8c2.3-2.6,4.6-5.1,6.9-7.6c17.9-19.7,32-35.3,31.8-45.4c-0.2-11.1-9.5-20.2-20.6-20.2l-0.4,0
				c-7.3,0.1-14,4.3-17.6,10.8c-0.3,0.5-0.7,0.8-1.3,0.8h0c-0.5,0-1-0.3-1.3-0.7C1743.4,688.4,1736.8,684.6,1729.6,684.6z"/>
		</g>
	</g>
	<g>
		<path class="st0" d="M376.6,1295.7c5,56.4,29.3,101.6,60.9,114.3c-31.5,12.7-55.8,57.8-60.9,114.3c-5-56.4-29.3-101.6-60.9-114.3
			C347.3,1397.3,371.6,1352.1,376.6,1295.7z"/>
	</g>
	<g>
		<g>
			<path class="st3" d="M3125.9,879.1c-1.2,0-2.2-0.9-2.3-2.1c-2.4-22.8-14.3-41.5-29.6-46.6c-0.9-0.3-1.6-1.2-1.6-2.2
				s0.6-1.9,1.6-2.2c15.3-5.1,27.1-23.8,29.6-46.6c0.1-1.2,1.1-2.1,2.3-2.1s2.2,0.9,2.3,2.1c2.4,22.8,14.3,41.5,29.6,46.6
				c1,0.3,1.6,1.2,1.6,2.2s-0.6,1.9-1.6,2.2c-15.3,5.1-27.1,23.8-29.6,46.6C3128.1,878.2,3127.1,879.1,3125.9,879.1z M3100.6,828.2
				c11.7,6.2,20.9,19.2,25.3,35.7c4.4-16.5,13.5-29.6,25.3-35.7c-11.7-6.2-20.9-19.2-25.3-35.7C3121.5,809,3112.3,822,3100.6,828.2z
				"/>
		</g>
	</g>
	<g>
		<g>
			<path class="st3" d="M337.2,1278.9c-1.2,0-2.2-0.9-2.3-2.1c-2.4-22.8-14.3-41.5-29.6-46.6c-0.9-0.3-1.6-1.2-1.6-2.2
				s0.6-1.9,1.6-2.2c15.3-5.1,27.1-23.8,29.6-46.6c0.1-1.2,1.1-2.1,2.3-2.1c1.2,0,2.2,0.9,2.3,2.1c2.4,22.8,14.3,41.5,29.6,46.6
				c1,0.3,1.6,1.2,1.6,2.2s-0.6,1.9-1.6,2.2c-15.3,5.1-27.1,23.8-29.6,46.6C339.3,1278.1,338.3,1278.9,337.2,1278.9z M311.9,1228.1
				c11.7,6.2,20.9,19.2,25.3,35.7c4.4-16.5,13.5-29.6,25.3-35.7c-11.7-6.2-20.9-19.2-25.3-35.7
				C332.8,1208.8,323.6,1221.9,311.9,1228.1z"/>
		</g>
	</g>
	<g>
		<g>
			
				<ellipse transform="matrix(0.9239 -0.3827 0.3827 0.9239 -155.8985 643.4715)" class="st4" cx="1539.5" cy="713.6" rx="23.8" ry="23.8"/>
		</g>
		<g>
			<path class="st4" d="M1599.6,678.6c-1.5,0-3.1-0.4-4.5-1.1c-58.2-29.6-107.4-0.6-107.9-0.4c-4.8,2.8-10.9,1.3-13.7-3.4
				c-2.9-4.7-1.3-10.9,3.4-13.7c2.4-1.4,59.4-35,127.4-0.4c4.9,2.5,6.9,8.5,4.4,13.5C1606.8,676.6,1603.2,678.6,1599.6,678.6z"/>
		</g>
		<g>
			<path class="st4" d="M1628.4,639.6c-1.5,0-3.1-0.4-4.5-1.1c-88.7-45.2-162.4-2.2-165.5-0.3c-4.8,2.8-10.9,1.3-13.7-3.4
				c-2.9-4.7-1.3-10.9,3.4-13.7c3.5-2.1,86-50.8,185-0.4c4.9,2.5,6.9,8.5,4.4,13.5C1635.5,637.6,1632,639.6,1628.4,639.6z"/>
		</g>
		<g>
			<path class="st4" d="M1657.2,595.5c-1.5,0-3.1-0.4-4.5-1.1c-120-61.2-222.1-1-223.1-0.4c-4.8,2.8-10.9,1.3-13.7-3.4
				c-2.9-4.7-1.3-10.9,3.4-13.7c4.5-2.8,112.7-66.5,242.5-0.4c4.9,2.5,6.9,8.5,4.4,13.5C1664.3,593.5,1660.8,595.5,1657.2,595.5z"/>
		</g>
	</g>
	<g>
		<g>
			<path class="st5" d="M2532.4,801.6H862.2c-15.1,0-27.3,12.2-27.3,27.3v1120.1c0,15.1,12.2,27.3,27.3,27.3h1670.2
				c15.1,0,27.3-12.2,27.3-27.3V828.9C2559.7,813.8,2547.5,801.6,2532.4,801.6z"/>
		</g>
		<g>
			<rect x="859.8" y="821.4" class="st0" width="1667.7" height="1102.7"/>
		</g>
		<g>
			<rect x="859.8" y="821" class="st4" width="1667.7" height="56"/>
		</g>
		<g>
			
				<ellipse transform="matrix(0.9872 -0.1595 0.1595 0.9872 -123.8021 154.2083)" class="st6" cx="898.6" cy="848.2" rx="13.4" ry="13.4"/>
		</g>
		<g>
			
				<ellipse transform="matrix(0.9872 -0.1595 0.1595 0.9872 -123.1862 161.88)" class="st7" cx="946.7" cy="848.2" rx="13.4" ry="13.4"/>
		</g>
		<g>
			
				<ellipse transform="matrix(0.9872 -0.1595 0.1595 0.9872 -122.5514 169.7889)" class="st8" cx="996.3" cy="848.2" rx="13.4" ry="13.4"/>
		</g>
		<g>
			<g>
				<rect x="2450.6" y="1905.6" class="st3" width="105.3" height="29.7"/>
			</g>
			<g>
				<rect x="2131" y="1905.6" class="st3" width="105.3" height="29.7"/>
			</g>
			<g>
				<rect x="2002.1" y="1905.6" class="st3" width="105.3" height="29.7"/>
			</g>
			<g>
				<rect x="1873.3" y="1905.6" class="st3" width="105.3" height="29.7"/>
			</g>
			<g>
				<rect x="1157.7" y="1905.6" class="st3" width="105.3" height="29.7"/>
			</g>
			<g>
				<rect x="1023" y="1905.6" class="st3" width="105.3" height="29.7"/>
			</g>
			<g>
				<rect x="889.2" y="1905.6" class="st3" width="105.3" height="29.7"/>
			</g>
			<g>
				<rect x="1296.5" y="1903.7" class="st3" width="553.8" height="31.6"/>
			</g>
			<g>
				<rect x="2263.5" y="1905.6" class="st3" width="152.4" height="29.7"/>
			</g>
			<g>
				<path class="st3" d="M2631.5,1921.7H763.1v86.8c0,1.3,1.1,2.4,2.4,2.4h1863.2c1.5,0,2.8-1.2,2.8-2.8V1921.7z"/>
			</g>
		</g>
	</g>
	<g>
		<rect x="942.4" y="1354.6" class="st9" width="784.2" height="485.6"/>
	</g>
	<g>
		<g>
			<rect x="1773.3" y="926.1" class="st9" width="685.5" height="924.4"/>
		</g>
		<g>
			<rect x="1825.2" y="960.8" class="st4" width="238.3" height="242.3"/>
		</g>
		<g>
			<g>
				<path class="st0" d="M2046.3,1145.9h-8.8c-0.1-0.5,0.1-1-0.1-1.4l-63.5-126.1c-0.9-1.7-2.6-2.8-4.5-2.8s-3.6,1.1-4.5,2.8
					l-38.2,75.6l-23.6-18.1c-1.1-0.9-2.6-1.2-4-0.9c-1.4,0.3-2.6,1.1-3.4,2.3l-42.5,68.6h-11.7c-2.8,0-5,2.2-5,5c0,2.8,2.3,5,5,5
					h204.6c2.8,0,5-2.2,5-5C2051.3,1148.2,2049.1,1145.9,2046.3,1145.9z M1901.5,1087.3l24,18.4c1.2,0.9,2.7,1.2,4.2,0.9
					c1.4-0.3,2.7-1.3,3.4-2.6l36.4-72.1l57.4,114.2h-161.7L1901.5,1087.3z"/>
			</g>
			<g>
				<path class="st0" d="M1908.9,1061.6c16.6,0,30.1-13.5,30.1-30.1c0-16.6-13.5-30.1-30.1-30.1s-30.1,13.5-30.1,30.1
					C1878.8,1048.1,1892.3,1061.6,1908.9,1061.6z M1908.9,1011.5c11.1,0,20,9,20,20c0,11.1-9,20-20,20c-11.1,0-20-9-20-20
					C1888.9,1020.5,1897.8,1011.5,1908.9,1011.5z"/>
			</g>
		</g>
		<g>
			<path class="st6" d="M2363.6,993.7H2097c-5.7,0-10.4-4.6-10.4-10.4c0-5.7,4.6-10.4,10.4-10.4h266.6c5.7,0,10.4,4.6,10.4,10.4
				C2373.9,989,2369.3,993.7,2363.6,993.7z"/>
		</g>
		<g>
			<rect x="2090" y="1461" class="st4" width="323.7" height="341"/>
		</g>
		<g>
			<path class="st4" d="M2405.1,1048.2h-306.4c-4.3,0-7.8-3.5-7.8-7.8c0-4.3,3.5-7.8,7.8-7.8h306.4c4.3,0,7.8,3.5,7.8,7.8
				C2412.9,1044.7,2409.4,1048.2,2405.1,1048.2z"/>
		</g>
		<g>
			<path class="st4" d="M2230.3,1112.2h-131.6c-4.3,0-7.8-3.5-7.8-7.8s3.5-7.8,7.8-7.8h131.6c4.3,0,7.8,3.5,7.8,7.8
				S2234.6,1112.2,2230.3,1112.2z"/>
		</g>
		<g>
			<path class="st4" d="M2399.9,1112.2h-121.2c-4.3,0-7.8-3.5-7.8-7.8s3.5-7.8,7.8-7.8h121.2c4.3,0,7.8,3.5,7.8,7.8
				S2404.2,1112.2,2399.9,1112.2z"/>
		</g>
		<g>
			<path class="st4" d="M2325.5,1164.2h-230.2c-4.3,0-7.8-3.5-7.8-7.8c0-4.3,3.5-7.8,7.8-7.8h230.2c4.3,0,7.8,3.5,7.8,7.8
				C2333.2,1160.7,2329.8,1164.2,2325.5,1164.2z"/>
		</g>
		<g>
			<path class="st4" d="M2154.1,1264.6h-318.5c-4.3,0-7.8-3.5-7.8-7.8c0-4.3,3.5-7.8,7.8-7.8h318.5c4.3,0,7.8,3.5,7.8,7.8
				C2161.9,1261.1,2158.4,1264.6,2154.1,1264.6z"/>
		</g>
		<g>
			<path class="st4" d="M2396.4,1262.8H2206c-4.3,0-7.8-3.5-7.8-7.8c0-4.3,3.5-7.8,7.8-7.8h190.4c4.3,0,7.8,3.5,7.8,7.8
				C2404.2,1259.3,2400.7,1262.8,2396.4,1262.8z"/>
		</g>
		<g>
			<path class="st4" d="M2349.7,1314.8h-515.8c-4.3,0-7.8-3.5-7.8-7.8s3.5-7.8,7.8-7.8h515.8c4.3,0,7.8,3.5,7.8,7.8
				S2354,1314.8,2349.7,1314.8z"/>
		</g>
		<g>
			<path class="st4" d="M1982.7,1366.7h-150.6c-4.3,0-7.8-3.5-7.8-7.8s3.5-7.8,7.8-7.8h150.6c4.3,0,7.8,3.5,7.8,7.8
				S1987,1366.7,1982.7,1366.7z"/>
		</g>
		<g>
			<path class="st4" d="M2391.2,1365h-351.4c-4.3,0-7.8-3.5-7.8-7.8c0-4.3,3.5-7.8,7.8-7.8h351.4c4.3,0,7.8,3.5,7.8,7.8
				C2399,1361.5,2395.5,1365,2391.2,1365z"/>
		</g>
		<g>
			<path class="st4" d="M2306.4,1423.8h-477.8c-4.3,0-7.8-3.5-7.8-7.8c0-4.3,3.5-7.8,7.8-7.8h477.8c4.3,0,7.8,3.5,7.8,7.8
				C2314.2,1420.3,2310.7,1423.8,2306.4,1423.8z"/>
		</g>
		<g>
			<path class="st4" d="M2055,1514.3h-219.4c-4.3,0-7.8-3.5-7.8-7.8c0-4.3,3.5-7.8,7.8-7.8H2055c4.3,0,7.8,3.5,7.8,7.8
				C2062.8,1510.8,2059.3,1514.3,2055,1514.3z"/>
		</g>
		<g>
			<path class="st4" d="M1927.8,1571.4H1833c-4.3,0-7.8-3.5-7.8-7.8s3.5-7.8,7.8-7.8h94.8c4.3,0,7.8,3.5,7.8,7.8
				S1932.1,1571.4,1927.8,1571.4z"/>
		</g>
		<g>
			<path class="st4" d="M2048.5,1570.1h-74c-4.3,0-7.8-3.5-7.8-7.8c0-4.3,3.5-7.8,7.8-7.8h74c4.3,0,7.8,3.5,7.8,7.8
				C2056.3,1566.6,2052.8,1570.1,2048.5,1570.1z"/>
		</g>
		<g>
			<path class="st4" d="M2040.7,1624.6H1833c-4.3,0-7.8-3.5-7.8-7.8c0-4.3,3.5-7.8,7.8-7.8h207.7c4.3,0,7.8,3.5,7.8,7.8
				C2048.5,1621.1,2045,1624.6,2040.7,1624.6z"/>
		</g>
		<g>
			<path class="st4" d="M2051.1,1679.1h-219.4c-4.3,0-7.8-3.5-7.8-7.8s3.5-7.8,7.8-7.8h219.4c4.3,0,7.8,3.5,7.8,7.8
				S2055.4,1679.1,2051.1,1679.1z"/>
		</g>
		<g>
			<path class="st4" d="M1921.3,1735H1833c-4.3,0-7.8-3.5-7.8-7.8c0-4.3,3.5-7.8,7.8-7.8h88.3c4.3,0,7.8,3.5,7.8,7.8
				C1929.1,1731.5,1925.6,1735,1921.3,1735z"/>
		</g>
		<g>
			<path class="st4" d="M2038.1,1731.1H1981c-4.3,0-7.8-3.5-7.8-7.8c0-4.3,3.5-7.8,7.8-7.8h57.1c4.3,0,7.8,3.5,7.8,7.8
				C2045.9,1727.6,2042.4,1731.1,2038.1,1731.1z"/>
		</g>
	</g>
	<g>
		<g>
			<rect x="1067" y="1405.2" class="st4" width="172" height="153.5"/>
		</g>
		<g>
			<path class="st4" d="M1572.3,1438.3h-285.7c-6.6,0-11.9-5.3-11.9-11.9c0-6.6,5.3-11.9,11.9-11.9h285.7c6.6,0,11.9,5.3,11.9,11.9
				C1584.2,1433,1578.9,1438.3,1572.3,1438.3z"/>
		</g>
		<g>
			<path class="st4" d="M1390.4,1503.1h-111.1c-6.6,0-11.9-5.3-11.9-11.9s5.3-11.9,11.9-11.9h111.1c6.6,0,11.9,5.3,11.9,11.9
				S1397,1503.1,1390.4,1503.1z"/>
		</g>
		<g>
			<path class="st4" d="M1614.7,1503.1h-160.7c-6.6,0-11.9-5.3-11.9-11.9s5.3-11.9,11.9-11.9h160.7c6.6,0,11.9,5.3,11.9,11.9
				S1621.2,1503.1,1614.7,1503.1z"/>
		</g>
		<g>
			<path class="st6" d="M1483.7,1576.5h-131c-13.1,0-23.8-10.7-23.8-23.8c0-13.1,10.7-23.8,23.8-23.8h131
				c13.1,0,23.8,10.7,23.8,23.8C1507.5,1565.9,1496.9,1576.5,1483.7,1576.5z"/>
		</g>
	</g>
	<g>
		<g>
			<rect x="1067" y="1625.1" class="st4" width="172" height="153.5"/>
		</g>
		<g>
			<path class="st4" d="M1572.3,1658.1h-285.7c-6.6,0-11.9-5.3-11.9-11.9c0-6.6,5.3-11.9,11.9-11.9h285.7c6.6,0,11.9,5.3,11.9,11.9
				C1584.2,1652.8,1578.9,1658.1,1572.3,1658.1z"/>
		</g>
		<g>
			<path class="st4" d="M1390.4,1723h-111.1c-6.6,0-11.9-5.3-11.9-11.9c0-6.6,5.3-11.9,11.9-11.9h111.1c6.6,0,11.9,5.3,11.9,11.9
				C1402.3,1717.6,1397,1723,1390.4,1723z"/>
		</g>
		<g>
			<path class="st4" d="M1614.7,1723h-160.7c-6.6,0-11.9-5.3-11.9-11.9c0-6.6,5.3-11.9,11.9-11.9h160.7c6.6,0,11.9,5.3,11.9,11.9
				C1626.6,1717.6,1621.2,1723,1614.7,1723z"/>
		</g>
		<g>
			<path class="st6" d="M1483.7,1796.4h-131c-13.1,0-23.8-10.7-23.8-23.8c0-13.1,10.7-23.8,23.8-23.8h131
				c13.1,0,23.8,10.7,23.8,23.8C1507.5,1785.7,1496.9,1796.4,1483.7,1796.4z"/>
		</g>
	</g>
	<g>
		<g class="st10">
			<path class="st11" d="M1566.1,977h-477.3c-10.6,0-19.3,8.6-19.3,19.3v285.9c0,10.6,8.6,19.3,19.3,19.3h477.3
				c10.6,0,19.3-8.6,19.3-19.3V996.2C1585.3,985.6,1576.7,977,1566.1,977z"/>
		</g>
		<g>
			<path class="st6" d="M1547.9,957h-405.1c-30.6,0-55.4,24.8-55.4,55.4V1226c0,30.6,24.8,55.4,55.4,55.4h405.1
				c30.6,0,55.4-24.8,55.4-55.4v-213.6C1603.3,981.8,1578.5,957,1547.9,957z"/>
		</g>
		<g>
			<polygon class="st0" points="1280.2,1230.9 1280.2,999.6 1450.4,1119.2 			"/>
		</g>
	</g>
	<g>
		<path class="st8" d="M3227.3,2047.9h-2877c-11.5,0-20.8-9.3-20.8-20.8s9.3-20.8,20.8-20.8h2877c11.5,0,20.8,9.3,20.8,20.8
			S3238.8,2047.9,3227.3,2047.9z"/>
	</g>
	<g>
		<path class="st3" d="M2255.4,574.1l-1.7-1.5l29-32.2c0.8-0.9,0.8-2.3-0.2-3.2l-1.7-1.5l34.1-37.9c0.5-0.6,0.7-1.4,0.5-2.2
			c-0.3-0.8-0.9-1.3-1.7-1.5l-43.5-8.9c-0.8-0.2-1.6,0.1-2.1,0.7l-19.1,21.2l-1.7-1.5c-0.9-0.8-2.3-0.8-3.2,0.2l-29,32.2l-1.7-1.5
			c-0.9-0.8-2.3-0.8-3.2,0.2l-13.5,15c-0.1,0.1-0.2,0.1-0.2,0.2c-0.1,0.1-0.1,0.2-0.2,0.3l-51.2,56.8c-0.8,0.9-0.8,2.3,0.2,3.2
			l41.8,37.6c0.9,0.8,2.3,0.8,3.2-0.2l65.1-72.3C2256.4,576.3,2256.3,574.9,2255.4,574.1z M2270.7,489.9l38.4,7.8l-31.5,35
			l-25.1-22.6L2270.7,489.9z M2246.1,510.4l31.8,28.6l-27.5,30.5l-31.8-28.6L2246.1,510.4z M2250.7,575.9l-10.7,11.9l-38.4-34.6
			l10.7-11.9L2250.7,575.9z M2150.2,610.2l48.4-53.7l38.4,34.6l-48.4,53.7L2150.2,610.2z"/>
	</g>
	<g>
		<g>
			<path class="st0" d="M2370.2,1723.4h-213.5c-1.8,0-3.2-1.4-3.2-3.2v-143.4c0-1.8,1.4-3.2,3.2-3.2h213.5c1.8,0,3.2,1.4,3.2,3.2
				v143.4C2373.3,1721.9,2371.9,1723.4,2370.2,1723.4z M2159.9,1717H2367v-137h-207.1V1717z"/>
		</g>
		<g>
			<path class="st0" d="M2289.6,1708.4c-33.4,0-60.5-27.2-60.5-60.5s27.2-60.5,60.5-60.5c33.4,0,60.5,27.2,60.5,60.5
				S2322.9,1708.4,2289.6,1708.4z M2289.6,1593.7c-29.9,0-54.2,24.3-54.2,54.2s24.3,54.2,54.2,54.2s54.2-24.3,54.2-54.2
				S2319.4,1593.7,2289.6,1593.7z"/>
		</g>
		<g>
			<path class="st0" d="M2289.6,1687.8c-22,0-40-17.9-40-40c0-22,17.9-40,40-40c22,0,40,17.9,40,40
				C2329.5,1669.8,2311.6,1687.8,2289.6,1687.8z M2289.6,1614.2c-18.5,0-33.6,15.1-33.6,33.6s15.1,33.6,33.6,33.6
				s33.6-15.1,33.6-33.6S2308.1,1614.2,2289.6,1614.2z"/>
		</g>
		<g>
			<path class="st0" d="M2289.6,1662.8c-8.3,0-15-6.7-15-15c0-8.3,6.7-15,15-15c8.3,0,15,6.7,15,15
				C2304.6,1656.1,2297.8,1662.8,2289.6,1662.8z M2289.6,1639.2c-4.8,0-8.6,3.9-8.6,8.6c0,4.8,3.9,8.6,8.6,8.6
				c4.8,0,8.6-3.9,8.6-8.6C2298.2,1643.1,2294.3,1639.2,2289.6,1639.2z"/>
		</g>
		<g>
			<path class="st0" d="M2179,1577.6c-0.6,0-1.3-0.2-1.9-0.6c-1.4-1-1.7-3-0.7-4.5l20.7-28.7c0.6-0.8,1.6-1.3,2.6-1.3h64.5
				c0.9,0,1.8,0.4,2.4,1.1l24.7,27.9c1.2,1.3,1,3.3-0.3,4.5c-1.3,1.2-3.3,1-4.5-0.3l-23.7-26.8h-61.5l-19.8,27.4
				C2180.9,1577.1,2180,1577.6,2179,1577.6z"/>
		</g>
	</g>
	<g>
		<g>
			<path class="st3" d="M2983.3,1920.7L2983.3,1920.7c3.7,0,6.8-3,6.8-6.8v-790.8h-13.6v790.8
				C2976.5,1917.6,2979.5,1920.7,2983.3,1920.7z"/>
		</g>
		<g>
			<g>
				<ellipse class="st3" cx="2782.7" cy="1985.9" rx="23.9" ry="25.3"/>
			</g>
			<g>
				<ellipse class="st12" cx="2782.7" cy="1985.9" rx="13.3" ry="14.1"/>
			</g>
		</g>
		<g>
			
				<rect x="2777.8" y="1947" transform="matrix(-1 -1.224647e-16 1.224647e-16 -1 5565.3628 3921.0779)" class="st12" width="9.8" height="27.1"/>
		</g>
		<g>
			<g>
				<ellipse class="st3" cx="2870.2" cy="1985.9" rx="23.9" ry="25.3"/>
			</g>
			<g>
				<ellipse class="st12" cx="2870.2" cy="1985.9" rx="13.3" ry="14.1"/>
			</g>
		</g>
		<g>
			
				<rect x="2865.3" y="1947" transform="matrix(-1 -1.224647e-16 1.224647e-16 -1 5740.3169 3921.0779)" class="st12" width="9.8" height="27.1"/>
		</g>
		<g>
			<path class="st3" d="M2906.4,806.3C2906.4,806.3,2906.4,806.3,2906.4,806.3c2.7-0.4,11.2,4.6,16.1,32.8
				c3.7,21.1-4.7,33.8-7.4,34.2c0,0,0,0-0.1,0l0,0.1l-78.4,11.4l-8.7-67.1L2906.4,806.3L2906.4,806.3z"/>
		</g>
		<g>
			<polygon class="st11" points="2737,627.5 2830.5,812.5 2843.3,908.3 2786.7,1140.4 			"/>
		</g>
		<g>
			<g>
				<polygon class="st0" points="2616.8,1064.8 2564.5,694.8 2735.4,624.6 2783.7,1141.4 				"/>
			</g>
			<g>
				<path class="st1" d="M2602.3,912.7c5.6,13.5,11.9,26.8,20.4,38.5c20.1,27.5,52.8,44.2,85.7,43.6c22.1-0.4,43.8-8.6,61.5-22.5
					l15.8,169.1l-166.9-76.6l-24.3-172.1C2597,899.5,2599.6,906.1,2602.3,912.7z"/>
			</g>
			<g>
				<g>
					<path class="st3" d="M2781.9,1145.8l-166.9-76.6c-1.4-0.7-2.4-2-2.7-3.7L2560,695.5c-0.3-2.2,0.9-4.4,2.8-5.2l170.9-70.2
						c1.3-0.5,2.8-0.4,4,0.4c1.2,0.8,2,2.1,2.1,3.6l48.3,516.8c0.2,1.7-0.5,3.3-1.8,4.3c-0.8,0.6-1.7,0.9-2.7,0.9
						C2783.1,1146.2,2782.5,1146.1,2781.9,1145.8z M2569.5,697.8l51.4,363.7l157.5,72.3l-46.9-502.5L2569.5,697.8z"/>
				</g>
			</g>
		</g>
		<g>
			<path class="st3" d="M2849.7,880.7l2.7,19.7c0.4,2.6,2.6,4.3,5,4l28.9-4.6c2.4-0.4,4.1-2.8,3.7-5.3L2887,872L2849.7,880.7z"/>
		</g>
		<g>
			<path class="st3" d="M3140.7,1586c1.9,1,4.3,1.1,6.5,0.1c3.9-1.8,5.8-6.5,4.2-10.5l-278.2-697.3c-1.6-4-6-5.7-9.9-3.9
				c-3.9,1.8-5.8,6.5-4.2,10.5l278.2,697.3C3137.9,1583.9,3139.1,1585.2,3140.7,1586z"/>
		</g>
		<g>
			<path class="st3" d="M2778.2,1957.3c1.5,0,2.9-0.6,4.1-1.7l205.1-198.6c2.5-2.4,2.6-6.4,0.4-9c-2.2-2.6-6.1-2.8-8.5-0.4
				l-205.1,198.6c-2.5,2.4-2.6,6.4-0.4,9C2774.9,1956.7,2776.5,1957.3,2778.2,1957.3z"/>
		</g>
		<g>
			<path class="st3" d="M2869.4,1957.4c2,0,4-1.1,5.1-3l113.1-190.6c1.8-3,0.9-6.9-1.9-8.8c-2.8-1.9-6.5-1-8.3,2l-113.1,190.6
				c-1.8,3-0.9,6.9,1.9,8.8C2867.2,1957,2868.3,1957.4,2869.4,1957.4z"/>
		</g>
		<g>
			<g>
				<ellipse class="st3" cx="3097.3" cy="1985.9" rx="23.9" ry="25.3"/>
			</g>
			<g>
				<ellipse class="st12" cx="3097.3" cy="1985.9" rx="13.3" ry="14.1"/>
			</g>
		</g>
		<g>
			<rect x="3092.5" y="1947" class="st12" width="9.8" height="27.1"/>
		</g>
		<g>
			<path class="st3" d="M3098.1,1957.4c1.1,0,2.2-0.3,3.2-1c2.8-1.9,3.7-5.8,1.9-8.8L2990.1,1757c-1.8-3-5.5-3.9-8.3-2
				c-2.8,1.9-3.7,5.8-1.9,8.8l113.1,190.6C3094.2,1956.3,3096.1,1957.4,3098.1,1957.4z"/>
		</g>
		<g>
			<g>
				<ellipse class="st3" cx="3184.6" cy="1985.9" rx="23.9" ry="25.3"/>
			</g>
			<g>
				<ellipse class="st12" cx="3184.6" cy="1985.9" rx="13.3" ry="14.1"/>
			</g>
		</g>
		<g>
			<rect x="3179.7" y="1947" class="st12" width="9.8" height="27.1"/>
		</g>
		<g>
			<path class="st3" d="M3189.1,1957.3c1.6,0,3.3-0.7,4.5-2.1c2.3-2.6,2.1-6.6-0.4-9l-205.1-198.6c-2.5-2.4-6.3-2.2-8.5,0.4
				c-2.3,2.6-2.1,6.6,0.4,9l205.1,198.6C3186.2,1956.8,3187.7,1957.3,3189.1,1957.3z"/>
		</g>
		<g>
			<path class="st3" d="M2983,1926.1l95-81.2c1.3-1.1,1.5-3.1,0.5-4.5c-1.1-1.4-3-1.6-4.2-0.5l-91.1,77.8l-86.8-78.3
				c-1.3-1.1-3.2-1-4.3,0.4c-1.1,1.3-0.9,3.4,0.3,4.5L2983,1926.1z"/>
		</g>
		<g>
			<g>
				<g>
					<path class="st3" d="M2930.8,928.4l0.5,1.4c0.5,1.4-0.1,3-1.5,3.6l-18.9,8.4l-2.6-6.7l18.6-8.3
						C2928.4,926.2,2930.2,926.9,2930.8,928.4z"/>
				</g>
				<g>
					<g>
						
							<ellipse transform="matrix(0.4506 -0.8927 0.8927 0.4506 743.8249 3100.9834)" class="st3" cx="2891.3" cy="946.2" rx="23.9" ry="22.6"/>
					</g>
					<g>
						<path class="st3" d="M2878.6,939.8c3.7-7.4,12.5-10.6,19.5-7c7,3.5,9.7,12.4,5.9,19.9c-3.7,7.4-12.5,10.6-19.5,7
							C2877.5,956.1,2874.8,947.2,2878.6,939.8z"/>
					</g>
				</g>
			</g>
			<g>
				<g>
					<path class="st12" d="M2889.5,940.1c2.8-1.7,6.3-0.7,7.8,2.1c1.5,2.9,0.4,6.5-2.4,8.2c-2.8,1.7-6.3,0.7-7.8-2.1
						C2885.6,945.4,2886.7,941.7,2889.5,940.1z"/>
				</g>
				<g>
					<path class="st12" d="M2893.3,939.3c-0.4,0.1-0.9,0.3-1.3,0.6c-2.8,1.7-3.9,5.4-2.4,8.2c0.9,1.6,2.4,2.6,4,2.9
						c-2.5,0.8-5.3-0.3-6.5-2.7c-1.5-2.9-0.4-6.5,2.4-8.2C2890.7,939.3,2892,939.1,2893.3,939.3z"/>
				</g>
				<g>
					<path class="st3" d="M2887.5,948.9c-0.2-0.2-0.4-0.5-0.5-0.7c-0.1-0.3-0.2-0.6-0.3-0.8l10.1-6c0.2,0.2,0.4,0.5,0.5,0.7
						c0.1,0.3,0.2,0.6,0.3,0.8L2887.5,948.9z"/>
				</g>
			</g>
		</g>
		<g>
			<g>
				<path class="st12" d="M2853.3,882.7c0.9-1.5,2.8-1.8,4.2-0.9s1.7,3,0.8,4.4c-0.9,1.5-2.8,1.8-4.2,0.9
					C2852.7,886.1,2852.3,884.2,2853.3,882.7z"/>
			</g>
			<g>
				<path class="st12" d="M2854.9,881.4c-0.2,0.2-0.3,0.4-0.5,0.6c-0.9,1.5-0.6,3.4,0.8,4.4c0.8,0.6,1.7,0.7,2.6,0.4
					c-1,1-2.5,1.1-3.7,0.3c-1.4-1-1.7-3-0.8-4.4C2853.6,882.1,2854.2,881.6,2854.9,881.4z"/>
			</g>
			<g>
				<path class="st3" d="M2854.4,887.3c-0.1-0.1-0.3-0.1-0.4-0.2s-0.2-0.2-0.4-0.3l3.3-5.2c0.1,0.1,0.3,0.1,0.4,0.2s0.2,0.2,0.4,0.3
					L2854.4,887.3z"/>
			</g>
		</g>
		<g>
			<g>
				<path class="st12" d="M2880.2,879.1c0.9-1.5,2.8-1.8,4.2-0.9c1.4,1,1.7,3,0.8,4.4c-0.9,1.5-2.8,1.8-4.2,0.9
					C2879.6,882.5,2879.3,880.6,2880.2,879.1z"/>
			</g>
			<g>
				<path class="st12" d="M2881.8,877.9c-0.2,0.2-0.3,0.4-0.5,0.6c-0.9,1.5-0.6,3.4,0.8,4.4c0.8,0.6,1.7,0.7,2.6,0.4
					c-1,1-2.5,1.1-3.7,0.3c-1.4-1-1.7-3-0.8-4.4C2880.6,878.5,2881.2,878.1,2881.8,877.9z"/>
			</g>
			<g>
				<path class="st3" d="M2881.4,883.7c-0.1-0.1-0.3-0.1-0.4-0.2c-0.1-0.1-0.2-0.2-0.4-0.3l3.3-5.2c0.1,0.1,0.3,0.1,0.4,0.2
					c0.1,0.1,0.2,0.2,0.4,0.3L2881.4,883.7z"/>
			</g>
		</g>
		<g>
			<g>
				<path class="st12" d="M2855.3,897.3c0.9-1.5,2.8-1.8,4.2-0.9c1.4,1,1.7,3,0.8,4.4c-0.9,1.5-2.8,1.8-4.2,0.9
					C2854.8,900.7,2854.4,898.7,2855.3,897.3z"/>
			</g>
			<g>
				<path class="st12" d="M2856.9,896c-0.2,0.2-0.3,0.4-0.5,0.6c-0.9,1.5-0.6,3.4,0.8,4.4c0.8,0.6,1.7,0.7,2.6,0.4
					c-1,1-2.5,1.1-3.7,0.3c-1.4-1-1.7-3-0.8-4.4C2855.7,896.6,2856.3,896.2,2856.9,896z"/>
			</g>
			<g>
				<path class="st3" d="M2856.5,901.9c-0.1-0.1-0.3-0.1-0.4-0.2c-0.1-0.1-0.2-0.2-0.4-0.3l3.3-5.2c0.1,0.1,0.3,0.1,0.4,0.2
					s0.2,0.2,0.4,0.3L2856.5,901.9z"/>
			</g>
		</g>
		<g>
			<g>
				<polygon class="st3" points="3071.6,1406.4 3110.5,1502.8 3071.9,1520.9 3033,1424.5 				"/>
			</g>
			<g>
				<g>
					<path class="st12" d="M3065.5,1416c1.5-0.9,3.3-0.4,4.1,1.1c0.8,1.5,0.2,3.4-1.3,4.3c-1.5,0.9-3.3,0.4-4.1-1.1
						C3063.4,1418.8,3064,1416.9,3065.5,1416z"/>
				</g>
				<g>
					<path class="st12" d="M3067.5,1415.6c-0.2,0.1-0.5,0.2-0.7,0.3c-1.5,0.9-2.1,2.8-1.3,4.3c0.4,0.9,1.2,1.4,2.1,1.5
						c-1.3,0.4-2.8-0.1-3.4-1.4c-0.8-1.5-0.2-3.4,1.3-4.3C3066.1,1415.6,3066.8,1415.5,3067.5,1415.6z"/>
				</g>
				<g>
					<path class="st3" d="M3064.5,1420.7c-0.1-0.1-0.2-0.2-0.3-0.4c-0.1-0.1-0.1-0.3-0.2-0.4l5.3-3.1c0.1,0.1,0.2,0.2,0.3,0.4
						c0.1,0.1,0.1,0.3,0.2,0.4L3064.5,1420.7z"/>
				</g>
			</g>
			<g>
				<g>
					<path class="st12" d="M3041.4,1425.9c1.5-0.9,3.3-0.4,4.1,1.1c0.8,1.5,0.2,3.4-1.3,4.3c-1.5,0.9-3.3,0.4-4.1-1.1
						C3039.3,1428.7,3039.9,1426.7,3041.4,1425.9z"/>
				</g>
				<g>
					<path class="st12" d="M3043.4,1425.5c-0.2,0.1-0.5,0.2-0.7,0.3c-1.5,0.9-2.1,2.8-1.3,4.3c0.4,0.9,1.2,1.4,2.1,1.5
						c-1.3,0.4-2.8-0.1-3.4-1.4c-0.8-1.5-0.2-3.4,1.3-4.3C3042,1425.5,3042.7,1425.4,3043.4,1425.5z"/>
				</g>
				<g>
					<path class="st3" d="M3040.3,1430.5c-0.1-0.1-0.2-0.2-0.3-0.4c-0.1-0.1-0.1-0.3-0.2-0.4l5.3-3.1c0.1,0.1,0.2,0.2,0.3,0.4
						c0.1,0.1,0.1,0.3,0.2,0.4L3040.3,1430.5z"/>
				</g>
			</g>
			<g>
				<g>
					<path class="st12" d="M3100.3,1495.5c1.5-0.9,3.3-0.4,4.1,1.1c0.8,1.5,0.2,3.4-1.3,4.3c-1.5,0.9-3.3,0.4-4.1-1.1
						C3098.2,1498.3,3098.8,1496.4,3100.3,1495.5z"/>
				</g>
				<g>
					<path class="st12" d="M3102.3,1495.1c-0.2,0.1-0.5,0.2-0.7,0.3c-1.5,0.9-2.1,2.8-1.3,4.3c0.4,0.9,1.2,1.4,2.1,1.5
						c-1.3,0.4-2.8-0.1-3.4-1.4c-0.8-1.5-0.2-3.4,1.3-4.3C3100.9,1495.1,3101.6,1495,3102.3,1495.1z"/>
				</g>
				<g>
					<path class="st3" d="M3099.2,1500.2c-0.1-0.1-0.2-0.2-0.3-0.4s-0.1-0.3-0.2-0.4l5.3-3.1c0.1,0.1,0.2,0.2,0.3,0.4
						c0.1,0.1,0.1,0.3,0.2,0.4L3099.2,1500.2z"/>
				</g>
			</g>
			<g>
				<g>
					<path class="st12" d="M3076.1,1505.4c1.5-0.9,3.3-0.4,4.1,1.1c0.8,1.5,0.2,3.4-1.3,4.3c-1.5,0.9-3.3,0.4-4.1-1.1
						C3074.1,1508.2,3074.6,1506.2,3076.1,1505.4z"/>
				</g>
				<g>
					<path class="st12" d="M3078.1,1505c-0.2,0.1-0.5,0.2-0.7,0.3c-1.5,0.9-2.1,2.8-1.3,4.3c0.4,0.9,1.2,1.4,2.1,1.5
						c-1.3,0.4-2.8-0.1-3.4-1.4c-0.8-1.5-0.2-3.4,1.3-4.3C3076.8,1505,3077.5,1504.9,3078.1,1505z"/>
				</g>
				<g>
					<path class="st3" d="M3075.1,1510c-0.1-0.1-0.2-0.2-0.3-0.4c-0.1-0.1-0.1-0.3-0.2-0.4l5.3-3.1c0.1,0.1,0.2,0.2,0.3,0.4
						c0.1,0.1,0.1,0.3,0.2,0.4L3075.1,1510z"/>
				</g>
			</g>
		</g>
		<g>
			<g>
				<path class="st12" d="M2882.3,893.3c0.9-1.5,2.8-1.8,4.2-0.9c1.4,1,1.7,3,0.8,4.4c-0.9,1.5-2.8,1.8-4.2,0.9
					C2881.7,896.7,2881.4,894.7,2882.3,893.3z"/>
			</g>
			<g>
				<path class="st12" d="M2883.9,892c-0.2,0.2-0.3,0.4-0.5,0.6c-0.9,1.5-0.6,3.4,0.8,4.4c0.8,0.6,1.7,0.7,2.6,0.4
					c-1,1-2.5,1.1-3.7,0.3c-1.4-1-1.7-3-0.8-4.4C2882.7,892.6,2883.3,892.2,2883.9,892z"/>
			</g>
			<g>
				<path class="st3" d="M2883.5,897.9c-0.1-0.1-0.3-0.1-0.4-0.2c-0.1-0.1-0.2-0.2-0.4-0.3l3.3-5.2c0.1,0.1,0.3,0.1,0.4,0.2
					c0.1,0.1,0.2,0.2,0.4,0.3L2883.5,897.9z"/>
			</g>
		</g>
		<g>
			<g>
				<g>
					<path class="st3" d="M3035.3,1184.3l0.5,1.4c0.5,1.4-0.1,3-1.5,3.6l-18.9,8.4l-2.6-6.7l18.6-8.3
						C3033,1182,3034.8,1182.8,3035.3,1184.3z"/>
				</g>
				<g>
					<g>
						
							<ellipse transform="matrix(0.4506 -0.8927 0.8927 0.4506 572.8327 3334.9028)" class="st3" cx="2995.8" cy="1202.1" rx="23.9" ry="22.6"/>
					</g>
					<g>
						<path class="st3" d="M2983.1,1195.6c3.7-7.4,12.5-10.6,19.5-7c7,3.5,9.7,12.4,5.9,19.9c-3.7,7.4-12.5,10.6-19.5,7
							C2982,1212,2979.4,1203.1,2983.1,1195.6z"/>
					</g>
				</g>
			</g>
			<g>
				<g>
					<path class="st12" d="M2992.9,1196c2.8-1.7,6.3-0.7,7.8,2.1c1.5,2.9,0.4,6.5-2.4,8.2c-2.8,1.7-6.3,0.7-7.8-2.1
						C2989,1201.3,2990.1,1197.6,2992.9,1196z"/>
				</g>
				<g>
					<path class="st12" d="M2996.7,1195.2c-0.4,0.1-0.9,0.3-1.3,0.6c-2.8,1.7-3.9,5.4-2.4,8.2c0.9,1.6,2.4,2.6,4,2.9
						c-2.5,0.8-5.3-0.3-6.5-2.7c-1.5-2.9-0.4-6.5,2.4-8.2C2994.1,1195.2,2995.5,1195,2996.7,1195.2z"/>
				</g>
				<g>
					<path class="st3" d="M2991,1204.8c-0.2-0.2-0.4-0.5-0.5-0.7c-0.1-0.3-0.2-0.6-0.3-0.8l10.1-6c0.2,0.2,0.4,0.5,0.5,0.7
						c0.1,0.3,0.2,0.6,0.3,0.8L2991,1204.8z"/>
				</g>
			</g>
		</g>
	</g>
	<g>
		<g>
			<path class="st3" d="M694.8,857.6c-6.8-6.6-10-15.9-13-24.9c-5.9-17.5-13.3-36.4-29.6-45c-15.7-8.4-34.9-4.6-52.2-0.5
				c-5.9,1.4-12,2.9-16.3,7.1c-4.2,4.1-6,10.1-9.5,14.8c-6.6,8.8-19.1,12.3-24.1,22.1c-7.8,15,6.6,33.2,2.5,49.6
				c-1.4,5.4-4.6,10.1-7.1,15.1c-9.7,19.8-5.8,44,4.6,63.4c10.4,19.4,26.6,34.9,42.5,50.1c6.2,5.9,12.7,12,20.8,14.8
				c7.8,2.7,16.3,2.1,24.6,1.5c25.7-1.9,51.4-3.8,77.1-5.8c5.3-0.4,10.9-0.8,15.8,1.3c5,2.1,8.6,6.4,12,10.5c5,6,10,12,15,18
				c1.9,2.3,4,4.7,6.6,6.2c5.8,3.2,13.3,1.3,18.3-3.1c5-4.3,7.9-10.5,10.2-16.7c7.3-19.3,10-42.7-2.6-59
				c-11-14.3-30.2-18.7-47.2-24.6c-5.9-2-11.8-4.4-16.2-8.8c-18.1-18,1.8-53.4-15.1-72.6C707,865.6,700,862.6,694.8,857.6z"/>
		</g>
		<g>
			<path class="st13" d="M502.3,1922.3c-2.9,22.2-1.1,40,0.8,66.3c1.9,26.3,18.8,28.1,59.1,38.5c0,0,11.3-24.4,3.8-40.3
				c-7.5-15.9-31.9-76-31.9-76L502.3,1922.3z"/>
		</g>
		<g>
			<path class="st14" d="M476.6,1319c0,0-1.6,133.5,1.6,209.1c3.2,75.6-11.3,149.6-11.3,191.4s35.4,185,35.4,202.7s9.7,74,33.8,70.8
				c24.1-3.2,4.8-53.1,0-88.5c-4.8-35.4,16.1-164.1,1.6-268.7l30.6-225.2L476.6,1319z"/>
		</g>
		<g>
			<path class="st14" d="M590.6,942.4l7-49l43.7-13.4l2.3,57.9c0.4,9.5,6.3,17.9,15.2,21.4l52.7,13.2
				c-51.1,170.4-45.9,224.2-45.9,224.2l-124.3-8l-16-224.7l54.1-7.5C585.3,954.2,589.6,948.8,590.6,942.4z"/>
		</g>
		<g>
			<path class="st15" d="M642,912.3L643,934c0,0-49.5,7.7-49.2-52.6C594,831.9,642,912.3,642,912.3z"/>
		</g>
		<g>
			<g>
				<path class="st14" d="M860.2,1299.3c0,0,2.5,12.2,10.6,28.2c3.1,6.1,5.2,22.8,9.1,20.6c3.9-2.2-1.9-22.4-0.7-23.3
					c1.1-0.9,11.5,4.2,11.5,4.2l-9.9-15.8L860.2,1299.3z"/>
			</g>
			<g>
				<path class="st14" d="M839.1,1270.6l21.2,29c0,0,29.5,31.6,33,29.6c3.5-1.9,19-27.6,19-27.6s-4.2-1.1-23.4-10.6
					c-1.6-0.8-30.6-33.5-30.6-33.5L839.1,1270.6z"/>
			</g>
			<g>
				<path class="st14" d="M877.8,1323.9c0,0,13.2,4.9,16,8.3c11.9,14.5,23,22.8,25.2,21.3c3-2.1-21.2-28.1-21.2-28.1
					s31.1,23.1,33.6,20.6c2.5-2.5-28.6-28.9-28.6-28.9s34,16.3,35.6,13.5c1.6-2.8-30.8-21.9-30.8-21.9s29.1,8,30.5,5.5
					c1.3-2.6-25.6-12.4-25.6-12.4l-17.8-6.7L877.8,1323.9z"/>
			</g>
		</g>
		<g>
			<g>
				<g>
					<path class="st14" d="M660.7,868.3c0,0,2.5-14.9,15.8-6.3c5.3,3.4,2.2,20.3-14.2,19.2C662.2,881.2,656.9,878.6,660.7,868.3z"/>
				</g>
				<g>
					<path class="st16" d="M664.7,876c2.2,0.6,6.8,0.9,9.2-1.4c0.2-0.2,0.2-0.5,0-0.7c-0.2-0.2-0.5-0.2-0.7,0
						c-2.5,2.3-7.6,1.6-8.9,1c0.1-0.1,0.2-0.2,0.2-0.3c0.7-0.9,2.1-2.5,1.2-4.4c-0.4-0.8-0.9-1.3-1.6-1.5c-0.5-0.2-1-0.1-1.4-0.1
						c0.5-1.9,2.1-6.2,5-6.5c2.8-0.2,4.9,0.3,6.4,1.6c1.8,1.6,2,3.7,2,3.7c0,0.3,0.2,0.5,0.5,0.4c0.3,0,0.4-0.2,0.4-0.5
						c0-0.1-0.2-2.6-2.3-4.4c-1.7-1.4-4.1-2-7.1-1.8c-4.3,0.4-6,7.7-6,8c0,0.2,0,0.4,0.2,0.5c0.1,0.1,0.3,0.1,0.5,0
						c0,0,0.8-0.4,1.6-0.2c0.4,0.1,0.8,0.5,1,1.1c0.6,1.4-0.4,2.6-1,3.5c-0.3,0.4-0.5,0.6-0.6,0.9c0,0.2,0,0.5,0.4,0.7
						C664,875.8,664.3,875.9,664.7,876z"/>
				</g>
			</g>
			<g>
				<path class="st7" d="M668.6,875.6c-0.4,1-0.7,2.2-0.7,3.6c5,0.6,8.6,5.1,8.1,10.1c-0.6,5.1-5.1,8.7-10.2,8.2
					c-5.1-0.6-8.7-5.1-8.2-10.2c0.2-1.7,0.9-3.1,1.9-4.4l-3-2.2c-1.3,1.8-2.4,3.8-2.6,6.2c-0.8,7.1,4.4,13.5,11.5,14.3
					c7.1,0.8,13.5-4.4,14.3-11.5C680.5,882.9,675.5,876.6,668.6,875.6z"/>
			</g>
			
				<image style="overflow:visible;" width="392" height="545" xlink:href="A29ECE2F.png"  transform="matrix(0.24 0 0 0.24 574.0994 791.8279)">
			</image>
			<g>
				<path class="st3" d="M646.4,862.9c0-4.5,1.5-8.2,3.3-8.2c1.8,0,3.3,3.7,3.3,8.2s-1.5,8.2-3.3,8.2
					C647.9,871.1,646.4,867.4,646.4,862.9z"/>
			</g>
			<g>
				<path class="st3" d="M605.6,862.4c0-4.5,1.5-8.2,3.3-8.2c1.8,0,3.3,3.7,3.3,8.2c0,4.5-1.5,8.2-3.3,8.2S605.6,866.9,605.6,862.4z
					"/>
			</g>
			<g>
				<path class="st16" d="M629.3,886.2c-0.1,0-0.3-0.1-0.4-0.2c-0.5-0.7-0.6-1.7-0.2-2.5c0.1-0.2,0.2-0.3,0.4-0.3
					c1.1-0.1,2.2-0.1,3.1-0.6c0.8-0.3,1.7-1.1,1.8-2.1c0.1-0.8-0.3-1.5-0.6-2.3l-0.2-0.4c-2.2-5-1.7-10.9-1.3-15.6
					c0-0.3,0.3-0.5,0.5-0.4c0,0,0.4,0.3,0.4,0.5c-0.4,4.9-1,10.4,1.2,15.1l0.2,0.3c0.4,0.8,0.8,1.8,0.7,2.8c-0.1,1.2-1,2.3-2.3,2.8
					c-1,0.4-2.1,0.5-3.1,0.6c-0.1,0.4,0,0.9,0.2,1.3c0.1,0.2,0.1,0.5-0.1,0.7C629.5,886.2,629.4,886.2,629.3,886.2z"/>
			</g>
			<g>
				<path class="st3" d="M662.5,851.6c-5.2-4.6-18.1-8-22-0.1c-0.2,0.5,0,1.3,0.7,1.2c3.1-0.4,5.7-2,8.8-2.2c4.1-0.3,8,1,11.8,2.4
					C662.5,853.3,663.1,852.2,662.5,851.6L662.5,851.6z"/>
			</g>
			<g>
				<g>
					<path class="st17" d="M616.8,895.8c0,0,5.2,11.8,13.6,10.6c8.1-1.2,10.1-12.3,10.1-12.3s-4.1-3.8-6.3-4
						c-2.5-0.2-5.2,2.2-5.2,2.2s-2-1.7-4.5-1.8C621.9,890.5,618.4,894.7,616.8,895.8z"/>
				</g>
				<g>
					<path class="st0" d="M640.3,894l-23.5,1.8C616.8,895.8,632.3,911.1,640.3,894z"/>
				</g>
			</g>
			<g>
				<path class="st3" d="M598.4,851.5c5.1-4.7,17.9-8.4,22-0.5c0.3,0.5,0,1.3-0.7,1.3c-3.1-0.3-5.7-1.8-8.8-2
					c-4.1-0.2-8,1.2-11.7,2.6C598.5,853.1,597.8,852,598.4,851.5L598.4,851.5z"/>
			</g>
			
				<image style="overflow:visible;" width="124" height="82" xlink:href="A29ECE2D.png"  transform="matrix(0.24 0 0 0.24 591.3794 871.9879)">
			</image>
			
				<image style="overflow:visible;" width="104" height="69" xlink:href="A29ECE33.png"  transform="matrix(0.24 0 0 0.24 636.9794 872.7079)">
			</image>
			<g>
				<path class="st3" d="M680.5,850.8c-2.1-2-4.9-3.5-6.3-6.1c-1.4-2.5-1.2-5.6-1.2-8.5c0.1-10.1-2.6-20.2-7.6-28.9
					c-1.4-2.4-3-4.7-5.5-5.9c-1.8-0.8-3.8-1-5.6-1.4c-3.4-0.8-6.5-2.6-9.6-4.1c-12.3-5.9-26.4-7.8-39.8-5.5
					c-7.3,1.3-14.9,4.2-19,10.4c-1.6,2.5-2.5,5.3-4,7.8c-2.7,4.6-7.2,7.8-10.1,12.3c-2.8,4.4-3.7,9.7-4.5,14.9
					c-0.9,6.3-1.7,12.8,0.3,18.8c2,6,7.4,11.4,13.7,11.2c-2.1-6.8,2.8-14.3,9.2-17.4c4-1.9,8.7-2.5,11.8-5.6
					c5.1-5,3.6-13.5,6.5-19.9c0.4-1,1-2,1.9-2.5c1.1-0.7,2.5-0.8,3.8-0.8c7.2-0.1,14.5-0.2,21.7-0.2c1.4,0,2.8,0,4,0.7
					c1,0.7,1.7,1.8,2.1,2.9c2.8,7,0.4,16.5,6.2,21.2c6.1,5,17.1,0.8,22,7c2.4,3.1,2,7.4,2.1,11.3c0.2,7.2,3.5,15.3,10.4,17
					c1.4-4.9,2.7-9.9,2.7-15C685.7,859.7,684.2,854.4,680.5,850.8z"/>
			</g>
			<g>
				<g>
					<path class="st14" d="M584.4,866.8c0,0-2.9-14.8-15.9-5.9c-5.2,3.6-1.7,20.3,14.7,18.9C583.2,879.8,588.4,877,584.4,866.8z"/>
				</g>
				<g>
					<path class="st16" d="M580.6,874.6c-2.1,0.7-6.8,1.1-9.3-1.1c-0.2-0.2-0.2-0.5,0-0.7c0.2-0.2,0.5-0.2,0.7,0
						c2.5,2.2,7.7,1.4,8.9,0.8c-0.1-0.1-0.2-0.2-0.3-0.3c-0.7-0.8-2.1-2.4-1.3-4.4c0.3-0.8,0.9-1.3,1.5-1.6c0.5-0.2,1-0.2,1.4-0.1
						c-0.6-1.8-2.3-6.1-5.1-6.3c-2.8-0.2-4.9,0.4-6.4,1.7c-1.8,1.6-1.9,3.8-1.9,3.8c0,0.3-0.2,0.5-0.5,0.5c-0.3,0-0.5-0.2-0.4-0.5
						c0-0.1,0.2-2.6,2.2-4.5c1.7-1.5,4-2.1,7-2c4.3,0.3,6.1,7.5,6.2,7.8c0,0.2,0,0.4-0.2,0.5c-0.1,0.1-0.3,0.1-0.5,0
						c0,0-0.8-0.4-1.6-0.1c-0.4,0.2-0.8,0.5-1,1.1c-0.6,1.4,0.4,2.6,1.1,3.4c0.3,0.4,0.5,0.6,0.6,0.9c0,0.2,0,0.5-0.4,0.7
						C581.3,874.4,581,874.5,580.6,874.6z"/>
				</g>
			</g>
			<g>
				<path class="st7" d="M578.6,874c-0.4,1-0.7,2.2-0.7,3.6c5,0.6,8.6,5.1,8.1,10.1c-0.6,5.1-5.1,8.7-10.2,8.2
					c-5.1-0.6-8.7-5.1-8.2-10.2c0.2-1.7,0.9-3.1,1.9-4.4l-3-2.2c-1.3,1.8-2.4,3.8-2.6,6.2c-0.8,7.1,4.4,13.5,11.5,14.3
					c7.1,0.8,13.5-4.4,14.3-11.5C590.5,881.2,585.5,875,578.6,874z"/>
			</g>
		</g>
		<g>
			<path class="st14" d="M526.6,964.5c-24.9,2.8-118.4,122-123.7,134s23.7,77.6,95.1,139.3l10.9-12c0,0-37.6-99-51.9-113.3
				c0,0,71.4-72.4,75.9-70.9C537.4,1043.1,526.6,964.5,526.6,964.5z"/>
		</g>
		<g>
			<path class="st14" d="M711.2,972.8c23.1,14,42.5,87.6,56.6,125.7c14,38.1,110.3,183.4,110.3,183.4l-20,13
				c0,0-97.2-102.2-114.3-131.3c-17-29.1-62.1-117.3-62.1-117.3L711.2,972.8z"/>
		</g>
		<g>
			<path class="st7" d="M1390.7,1974.8c18.7-22.1,11.3-57.7-8.4-79s-48.1-31.7-75.3-41.4c-46.2-16.5-92.5-33-140.5-43.2
				c-73.3-15.7-149-16.4-223.9-14c-48.5,1.6-98.7,4.2-143.6-13.9c-37.6-15.2-68.3-43.7-95.3-74c-35.2-39.4-66-82.9-91.6-129.2
				c-38.9-70.5-65.7-147.9-112.5-213.4c-6.5,56.6-13,113.2-19.5,169.8c-1.9,16.3-3.4,34.2,5.6,47.8c19.2,29,71.4,19.8,88.5,50.1
				c7.3,12.8,5.4,28.6,3.4,43.2c-6.1,43.2-12.2,86.5-18.3,129.7c-4,28.7-4.6,65,20.9,78.8c12.7,6.9,28.1,5.5,42.5,3.5
				c14.3-2.1,29.3-4.5,42.9,0.5s24.2,20.9,18.2,34.1c-6.2,13.6-24.5,15.6-36.7,24.2c-24.4,17.3-16.5,59.2,8.2,76.1
				c24.8,16.8,57.7,14.7,86.9,7.9c19.5-4.5,39-10.9,59-9.8c20,1.1,41.1,12.1,46.9,31.3c2.3,7.6,2.1,16.3,7.2,22.4
				c3.4,4.2,8.5,6.4,13.6,8.2c37.3,13.2,80.2,9.9,115-8.9c19.9-10.7,37.6-26.3,59.4-32.2c35-9.5,71,7.9,104.3,22.2
				c33.4,14.3,74,25.2,104.2,5.1c37.5-25,34.9-79.6,49.1-122.4C1332.1,1951.6,1362.7,1960.6,1390.7,1974.8z"/>
		</g>
		<g>
			<path class="st18" d="M540.2,1176.9c0,17.3-58.1,79.9-64.1,138.2c-6,58.3,24.1,220.2,34.1,241.8c10,21.6,50.1,34.5,66.2,77.7
				c16,43.2-36.1,151.1,20,185.6c56.1,34.5,92.2-25.9,114.3,32.4c22.1,58.3-42.1,112.2,36.1,133.8c78.2,21.6,122.3-30.2,170.4-4.3
				s100.2,58.3,190.4,13c90.2-45.3,116.3-116.6,154.4-97.1s54.1-64.8,42.1-88.5c-12-23.7-136.3-79.9-210.5-71.2
				c-74.2,8.6-76.2-73.4-120.3-88.5s-120.3-28.1-164.4-54c-44.1-25.9-124.1-393.7-142.3-411.9
				C665.5,1182.7,540.2,1176.9,540.2,1176.9z"/>
		</g>
		<g>
			<path class="st13" d="M727.3,991.5c0,0-24.6,50.7-119.6,50.7S498,983.7,498,983.7s-31.7-12-49.3-0.7
				c-17.6,11.3-4.2,38.7-8.4,45.7c-4.2,7-14.1,16.2-1.4,27.4c12.7,11.3,38,29.6,54.2,26.7c16.2-2.8,6.3,21.1,32.4,38
				c26,16.9,67.6,23.9,86.5,14.8c19-9.1,48.6,9.1,58.4,9.1c9.9,0,31.7-23.9,32.4-30.3c0.7-6.3,9.9,16.9,36.6,9.1
				s21.8-20.4,31.7-35.9c9.9-15.5,28.8-35.9,7-51.4C756.2,1021,785,986.6,727.3,991.5z"/>
		</g>
		<g>
			<g>
				<path class="st7" d="M610.3,1047.8c0.1-1.9,0.2-3.9,0.2-5.7c3.9,0,7.6-0.2,11.3-0.4c0,2.2-0.1,4.4-0.2,6.6l-0.1,3
					c-0.3,11.9,1,23.7,4,35.1c4.6,1.5,9.3,2.7,13.8,2.5c4.1-0.3,8.9-2.6,10-6.4c1.5-4.7-2.2-10.1-6.2-15.9c-1-1.5-2-2.9-2.9-4.4
					c-3.8-6-6.4-13.7-6.9-21.5c3.9-0.4,7.7-0.9,11.2-1.5c0.2,6.1,2.2,12.2,5.2,17c0.8,1.3,1.7,2.7,2.7,4c4.7,7,10.7,15.7,7.6,25.6
					c-2.8,9.1-12.1,13.7-20,14.2c-7.6,0.7-14.8-1.9-21.1-4l-2.8-0.9l-0.8-2.8c-3.8-13.4-5.6-27.3-5.2-41.3L610.3,1047.8z"/>
			</g>
			<g>
				<path class="st7" d="M467.5,1045.5c7.9-5.7,16-11.6,24.6-16.2c6-3.3,15.2-7.4,25.2-6.6c9.2,0.8,17.7,6.5,22.9,15.2
					c5.2,8.8,6,19,2.3,27.4c-3.4,7.7-9.5,13-15.3,18.1c-2.9,2.6-5.9,5.1-8.4,8c-3.7,4.2-6.1,9.3-7.6,14.7c-3.1-5.1-4.8-10-6.3-14
					c1.6-2.9,3.2-5.7,5.4-8.1c2.9-3.3,6.2-6.2,9.5-9.1c5.1-4.5,10-8.8,12.4-14.2c2.3-5.1,1.6-11.5-1.7-17.1
					c-3.3-5.6-8.6-9.3-14.2-9.7c-5.5-0.5-11.4,1.3-18.9,5.3c-8,4.3-15.8,10-23.4,15.5c-6.5,4.7-13.1,9.2-20,13.3
					c-3.5-2.4-6.8-4.9-9.7-7.2C452.2,1056.5,459.7,1051.1,467.5,1045.5z"/>
			</g>
			<g>
				<path class="st7" d="M692,1024.8c-0.1-0.3-0.3-0.5-0.4-0.8c3.5-1.9,6.7-3.8,9.7-5.7c0.3,0.6,0.7,1.1,1,1.8
					c2,4.3,4.4,10,5.3,16.3c0.8,6.3-0.1,12.4-0.9,18.3l-0.6,4.2c-2.4,19.4,1.6,46,21.1,57c6,3.4,12.9,4.9,20,5.3
					c-2.2,1-4.6,1.9-7.5,2.7c-8.9,2.6-15.8,1.6-21.1-0.5c-21.5-14.6-26.3-44.2-23.6-66l0.6-4.4c0.8-5.4,1.5-10.4,0.9-15.2
					C695.7,1033,693.8,1028.6,692,1024.8z"/>
			</g>
			<g>
				<path class="st7" d="M761.1,1081.7l-4.8-2.1c-8-3.5-16.4-7.1-23.4-13.1c-8.7-7.6-15.5-20.8-11-33.3c3.2-8.8,10.9-14.1,16.8-17
					c8.8-4.4,18.8-6,28.6-5.1c0.7,3.9,1.1,8,2.1,11.9c-8.7-1.4-17.8-0.6-25.7,3.3c-3.3,1.6-9.1,5.2-11.2,10.8
					c-2.7,7.5,2.1,16.1,7.7,21c5.7,4.9,12.9,8,20.5,11.3l4.9,2.2c3.9,1.7,8.1,3.9,12.2,6.6c-2.2,3.2-4.3,6.4-6.2,9.3
					C768.2,1085.1,764.6,1083.2,761.1,1081.7z"/>
			</g>
			<g>
				<path class="st7" d="M498.4,984.5c0.5,1.6,2,5.8,5.2,11.2c-10,10.8-22.2,18.8-33.3,25.2c-5.5,3.1-11.3,6.2-18.1,7.1
					c-3.7,0.5-7.5,0-11.3-0.9c0.7-2.7,0.3-6.8-0.4-11.7c3.6,1.3,7,1.7,10.3,1.4c4.6-0.6,9.2-3,13.9-5.7
					C476.2,1004.5,489,996.1,498.4,984.5z"/>
			</g>
			<g>
				<path class="st7" d="M562.7,1136.2c4-0.4,8.1-0.8,12-1.5c4.9-0.9,10.4-2.3,13.4-5.8c1.8-2.1,3-5.2,3.5-9.3
					c1.5-11.9-3.5-24.5-12.7-32.2c-0.9-0.8-1.8-1.5-2.8-2.2c-3.7-2.9-8-6.2-10.2-11.4c-2-4.7-1.8-9.5-1.6-13.7l0.1-3
					c0.1-7.7-2.2-15.3-6.3-21.8c4.3,1.3,8.9,2.5,13.9,3.4c2.3,5.9,3.8,12.1,3.7,18.5l-0.1,3.3c-0.2,3.3-0.3,6.4,0.7,8.7
					c1.1,2.6,3.9,4.7,6.8,7c1.1,0.8,2.2,1.6,3.2,2.5c12.2,10.2,18.6,26.4,16.6,42.2c-0.8,6.4-2.9,11.5-6.1,15.3
					c-1.1,1.3-2.5,2.4-3.8,3.4C583.7,1140,573.3,1138.7,562.7,1136.2z"/>
			</g>
		</g>
		<g>
			<g>
				<path class="st14" d="M505.8,1217.6c0,0,11.1,7.8,23.5,22.9c4.7,5.8,20.6,15.2,16.6,18.1c-3.9,2.9-21.5-11.7-22.9-10.9
					c-1.4,0.8-0.8,13.4-0.8,13.4l-11.4-16.8L505.8,1217.6z"/>
			</g>
			<g>
				<path class="st14" d="M486.3,1183.9l19.7,33.9c0,0,18.6,43.4,15.1,46c-3.4,2.6-35.9,6.9-35.9,6.9s3.9-14.5,2.8-37.9
					c-0.1-1.9-23.1-35.3-23.1-35.3L486.3,1183.9z"/>
			</g>
			<g>
				<path class="st14" d="M522.6,1245.9c0,0-0.9,15.3,1.3,19.6c9.2,18.2,12.7,33,10.3,34.5c-3.4,2.1-18.8-33.4-18.8-33.4
					s9.4,41.2,5.8,42.6c-3.6,1.4-16.3-41.3-16.3-41.3s1.4,41.1-2.2,41.4c-3.5,0.3-8.4-40.4-8.4-40.4s-4.8,32.6-7.9,32.8
					c-3.1,0.2-1.2-31-1.2-31l3.5-26.3L522.6,1245.9z"/>
			</g>
		</g>
		<g>
			<g>
				<path class="st18" d="M932.2,1890.2c-13.8,0-26-5.4-32.8-14.6c-7.5-10.2-7.6-23-7.6-35.3c0-7.3,0-14.9-1.7-21.8
					c-3.1-13.1-12.1-25.2-28.3-38.2c-36.9-29.7-83.3-45.9-130.6-45.9c-3.2,0-6.4,0.1-9.6,0.1c-15.6,0.3-31.4,0.8-45.1-6.9
					c-19.5-10.9-27-34.4-27.5-52.7c-0.4-16.2,3.3-32.3,6.9-47.8c0.9-3.8,1.8-7.7,2.6-11.5c7.3-33.8,10.2-80.2-17.4-109.7
					c-13.1-14-30.6-21.7-49.1-29.8c-11.5-5.1-23.5-10.3-34.2-17.2c-27.7-17.9-47.4-48-52.6-80.6c-0.2-1.4,0.7-2.7,2.2-3
					c1.3-0.2,2.7,0.7,3,2.2c5,31.1,23.8,59.9,50.2,77c10.4,6.7,22.1,11.8,33.5,16.8c18.2,8,36.9,16.2,50.8,31
					c29.2,31.1,26.2,79.3,18.7,114.3c-0.8,3.9-1.7,7.7-2.6,11.6c-3.5,15.2-7.2,30.9-6.8,46.5c0.4,16.9,7.2,38.5,24.8,48.3
					c12.5,7,27.9,6.6,42.5,6.2c3.3-0.1,6.7-0.1,9.7-0.1c48.5,0,96,16.7,133.9,47.1c17.2,13.8,26.8,26.8,30.1,41.1
					c1.7,7.4,1.8,15.3,1.8,22.9c0,12,0.1,23.4,6.6,32.2c5.8,7.9,16.4,12.5,28.6,12.5c0.2,0,0.5,0,0.7,0c11.6-0.2,22.8-4.1,33.7-7.8
					c1.4-0.5,2.8,0.2,3.3,1.6c0.5,1.4-0.2,2.8-1.6,3.3c-11.3,3.9-22.9,7.9-35.3,8.1C932.7,1890.2,932.5,1890.2,932.2,1890.2z"/>
			</g>
		</g>
		<g>
			<g>
				<path class="st18" d="M1167.5,1834.2c-0.3,0-0.6,0-1,0c-18.1,0-36.4-0.6-54.5-1.6c-20.2-1.2-41.4-3.2-60-13.1
					c-11.3-6-20.6-14.3-30.7-23.7c-4.4-4.1-8.9-8.3-13.3-12.5c-24.4-22.9-49.6-46.5-77.8-65c-26.3-17.2-66.7-37.2-111.4-33.7
					c-15,1.1-29.9,4.8-44.3,8.5c-9.3,2.3-18.9,4.7-28.4,6.5c-30.7,5.5-56.1,1.5-73.8-11.4c-1.2-0.8-1.4-2.5-0.5-3.6
					c0.9-1.2,2.5-1.4,3.6-0.5c20.8,15.2,49.4,14.1,69.7,10.4c9.4-1.7,18.9-4.1,28.1-6.4c14.6-3.7,29.8-7.5,45.2-8.6
					c45.9-3.6,87.7,16.9,114.6,34.5c28.6,18.7,54,42.6,78.5,65.6c4.4,4.2,8.8,8.3,13.3,12.4c9.9,9.2,18.9,17.2,29.6,22.9
					c17.6,9.4,38.3,11.3,57.9,12.5c18.3,1.1,37.1,1.5,55.1,1.6c12.2,0,24.1-0.4,34.8-4.7c11.9-4.7,20.4-14.4,21.8-24.7
					c0.2-1.4,1.5-2.5,2.9-2.3c1.4,0.2,2.4,1.5,2.3,2.9c-1.9,14.7-14.2,24.5-25,28.9C1192.7,1833.8,1180.3,1834.2,1167.5,1834.2z"/>
			</g>
		</g>
		<g>
			<path class="st18" d="M620.8,1650.5c-0.1,0-0.2,0-0.3,0c-1.4-0.2-2.4-1.5-2.3-2.9c3.1-25,2.9-44.7-0.9-62.2
				c-4.7-21.9-15.3-40.6-29.9-52.6c-5.7-4.7-12.3-8.6-18.7-12.4c-6.9-4.1-14.1-8.4-20.4-13.8c-17-14.6-26.3-35.9-34.5-54.7
				c-0.6-1.3,0-2.8,1.3-3.4c1.2-0.6,2.8,0,3.4,1.3c8,18.3,17.1,39,33.1,52.8c6,5.1,12.9,9.3,19.7,13.3c6.5,3.9,13.3,7.9,19.3,12.9
				c15.5,12.8,26.7,32.5,31.6,55.5c3.9,18.1,4.1,38.4,0.9,64C623.2,1649.6,622.1,1650.5,620.8,1650.5z"/>
		</g>
	</g>
	<g>
		<g>
			<path class="st12" d="M2724.5,2009.4l4.4-586.4h-59.7l4.8,588.9C2690.8,2010.8,2707.6,2009.9,2724.5,2009.4z"/>
		</g>
		<g>
			<ellipse class="st19" cx="2785.9" cy="1508.4" rx="8.6" ry="9.2"/>
		</g>
		<g>
			<rect x="2637.3" y="1532.9" class="st3" width="126.2" height="47"/>
		</g>
		<g>
			<rect x="2655.2" y="1680.6" class="st3" width="89.6" height="25.4"/>
		</g>
		<g>
			<rect x="2655.2" y="1889.7" class="st3" width="89.6" height="25.4"/>
		</g>
		<g>
			<g>
				<path class="st11" d="M2501,1329h-87.5v0.4c-21.3,2.1-38.4,40.5-38.4,87.9c0,47.4,17,85.8,38.4,87.9v0.1h0.6
					c0.4,0,0.8,0.3,1.2,0.3c0.4,0,0.8-0.2,1.2-0.3h84.6V1329z"/>
			</g>
			<g>
				<polygon class="st20" points="2647.7,1206.9 2647.7,1216 2619.8,1216 2619.8,1206.9 2609.1,1206.9 2609.1,1228.9 2619.8,1228.9 
					2619.8,1228.1 2647.7,1228.1 2647.7,1228.9 2658.4,1228.9 2658.4,1206.9 				"/>
			</g>
			<g>
				<path class="st3" d="M2653.4,1222.8h-64.5c-34.6,0-46,56.6-57.5,56.6h-48.7c-16.8,0-30.5,13.4-30.5,30v208.2
					c0,8.2,6.7,14.8,15.1,14.8h368.7c8.3,0,15.1-6.6,15.1-14.8v-208.2c0-16.6-13.6-30-30.5-30h-109.6
					C2699.3,1279.4,2685.9,1222.8,2653.4,1222.8z"/>
			</g>
			<g>
				<path class="st21" d="M2874.4,1281.4h-18.9V1269h18.4c0.3,0,0.5,0.2,0.5,0.5V1281.4z"/>
			</g>
			<g>
				<path class="st22" d="M2860.9,1276.8l-4-11.3c-0.4-1.1-1.4-1.9-2.5-1.9H2809c-1.1,0-2.1,0.7-2.5,1.9l-4,11.3v10.3h53.8h4.6
					V1276.8z"/>
			</g>
			<g>
				<polygon class="st23" points="2705.9,1206.9 2705.9,1216 2677.9,1216 2677.9,1206.9 2667.2,1206.9 2667.2,1228.9 2677.9,1228.9 
					2677.9,1228.1 2705.9,1228.1 2705.9,1228.9 2716.6,1228.9 2716.6,1206.9 				"/>
			</g>
			<g>
				<path class="st11" d="M2723.4,1222.8h-59.9c-32.1,0-42.6,56.6-53.3,56.6h-45.2c-15.6,0-28.3,13.4-28.3,30v208.2
					c0,8.2,6.3,14.8,14,14.8h342.1c7.7,0,14-6.6,14-14.8v-208.2c0-16.6-12.7-30-28.3-30h-101.7
					C2766,1279.4,2753.5,1222.8,2723.4,1222.8z"/>
			</g>
			<g>
				<g>
					<path class="st3" d="M2819.2,1399.9c1.4,1.5,3.5,1.8,5.2,0.9c5.3-3.1,11.4-4.8,17.9-4.8s12.6,1.7,17.9,4.8
						c1.7,1,3.9,0.6,5.2-0.9l4-4.3c2-2.2,1.5-5.7-0.9-7.3c-7.7-4.8-16.6-7.5-26.1-7.5s-18.4,2.7-26.1,7.5c-2.5,1.5-2.9,5.1-0.9,7.3
						L2819.2,1399.9z"/>
				</g>
				<g>
					<path class="st3" d="M2879.6,1406.1l-4,4.3c-1.4,1.5-1.6,3.8-0.6,5.6c3.2,5.9,5.1,12.8,5.1,20.1c0,7.3-1.9,14.2-5.1,20.1
						c-1,1.8-0.7,4.1,0.6,5.6l4,4.3c2,2.2,5.3,1.8,6.8-0.7c5-8.5,7.9-18.5,7.9-29.3c0-10.7-2.9-20.8-7.9-29.3
						C2884.9,1404.3,2881.6,1404,2879.6,1406.1z"/>
				</g>
				<g>
					<path class="st3" d="M2809,1461.7c1.4-1.5,1.6-3.8,0.6-5.6c-3.2-5.9-5.1-12.8-5.1-20.1c0-7.3,1.9-14.2,5.1-20.1
						c1-1.8,0.7-4.1-0.6-5.6l-4-4.3c-2-2.2-5.3-1.8-6.8,0.7c-5,8.5-7.9,18.5-7.9,29.3c0,10.7,2.9,20.8,7.9,29.3
						c1.5,2.5,4.9,2.9,6.8,0.7L2809,1461.7z"/>
				</g>
				<g>
					<path class="st3" d="M2865.4,1472.3c-1.4-1.5-3.5-1.8-5.2-0.9c-5.3,3.1-11.4,4.8-17.9,4.8s-12.6-1.7-17.9-4.8
						c-1.7-1-3.9-0.6-5.2,0.9l-4,4.3c-2,2.2-1.5,5.7,0.9,7.3c7.7,4.8,16.6,7.5,26.1,7.5s18.4-2.7,26.1-7.5c2.5-1.5,2.9-5.1,0.9-7.3
						L2865.4,1472.3z"/>
				</g>
			</g>
			<g>
				<path class="st3" d="M2764.7,1314.3h-203c-6.5,0-11.9,5.3-11.9,11.9v176.2c0,6.5,5.3,11.9,11.9,11.9h203
					c6.5,0,11.9-5.3,11.9-11.9v-176.2C2776.6,1319.6,2771.3,1314.3,2764.7,1314.3z"/>
			</g>
			<g>
				<rect x="2562.2" y="1327.2" class="st0" width="202" height="174.1"/>
			</g>
			<g class="st24">
				<path class="st25" d="M2719.6,1237h-54.1c-2.8,0-5.4,1.2-7.3,3.4l-18,20.9c-1.7,1.9-2.6,4.5-2.6,7.1v15.8
					c0,5.8,4.4,10.5,9.9,10.5h90.1c5.4,0,9.9-4.7,9.9-10.5v-15.8c0-2.6-0.9-5.1-2.6-7.1l-18-20.9
					C2725,1238.2,2722.4,1237,2719.6,1237z"/>
			</g>
			<g>
				<ellipse class="st3" cx="2857.2" cy="1310.8" rx="11.6" ry="12.4"/>
			</g>
			<g>
				<ellipse class="st19" cx="2883.2" cy="1310.4" rx="7.6" ry="8.1"/>
			</g>
			<g>
				<g>
					<path class="st1" d="M2704,1249.7h-23.4c-7.5,0-13.6,6.1-13.6,13.6v6.8c0,7.5,6.1,13.6,13.6,13.6h23.4
						c7.5,0,13.6-6.1,13.6-13.6v-6.8C2717.7,1255.8,2711.6,1249.7,2704,1249.7z"/>
				</g>
				<g>
					<g>
						<path class="st3" d="M2707.9,1288.3h-31c-7.8,0-14.1-6.7-14.1-15v-13.3c0-8.2,6.3-15,14.1-15h31c7.8,0,14.1,6.7,14.1,15v13.3
							C2721.9,1281.6,2715.6,1288.3,2707.9,1288.3z M2676.8,1254.3c-3,0-5.5,2.6-5.5,5.9v13.3c0,3.2,2.5,5.9,5.5,5.9h31
							c3,0,5.5-2.6,5.5-5.9v-13.3c0-3.2-2.5-5.9-5.5-5.9H2676.8z"/>
					</g>
				</g>
			</g>
			<g>
				<g class="st24">
					<ellipse class="st25" cx="2558.3" cy="1297.7" rx="7" ry="7.4"/>
				</g>
				<g class="st24">
					<path class="st25" d="M2558.3,1303.9c-3.7,0-6.7-3-7-6.8c0,0.2,0,0.4,0,0.6c0,4.1,3.1,7.4,7,7.4s7-3.3,7-7.4c0-0.2,0-0.4,0-0.6
						C2565,1300.9,2562,1303.9,2558.3,1303.9z"/>
				</g>
				<g class="st26">
					<path class="st0" d="M2559.4,1295.2c0-2-1.5-3.6-3.4-3.6c-1.9,0-3.4,1.6-3.4,3.6s1.5,3.6,3.4,3.6
						C2557.9,1298.8,2559.4,1297.2,2559.4,1295.2z"/>
				</g>
			</g>
			<g>
				<g class="st24">
					<ellipse class="st25" cx="2576.7" cy="1297.7" rx="7" ry="7.4"/>
				</g>
				<g class="st24">
					<path class="st25" d="M2576.7,1303.9c-3.7,0-6.7-3-7-6.8c0,0.2,0,0.4,0,0.6c0,4.1,3.1,7.4,7,7.4c3.9,0,7-3.3,7-7.4
						c0-0.2,0-0.4,0-0.6C2583.4,1300.9,2580.3,1303.9,2576.7,1303.9z"/>
				</g>
				<g class="st26">
					<path class="st0" d="M2577.8,1295.2c0-2-1.5-3.6-3.4-3.6s-3.4,1.6-3.4,3.6s1.5,3.6,3.4,3.6S2577.8,1297.2,2577.8,1295.2z"/>
				</g>
			</g>
			<g>
				<g>
					<ellipse class="st3" cx="2798.4" cy="1333.8" rx="13.4" ry="14.3"/>
				</g>
				<g class="st24">
					<path class="st25" d="M2798.4,1345.7c-7,0-12.8-5.8-13.4-13.1c0,0.4-0.1,0.8-0.1,1.2c0,7.9,6,14.3,13.4,14.3
						c7.4,0,13.4-6.4,13.4-14.3c0-0.4,0-0.8-0.1-1.2C2811.2,1339.9,2805.4,1345.7,2798.4,1345.7z"/>
				</g>
			</g>
			<g>
				<g>
					<ellipse class="st3" cx="2798.4" cy="1368.3" rx="13.4" ry="14.3"/>
				</g>
				<g class="st24">
					<path class="st25" d="M2798.4,1380.2c-7,0-12.8-5.8-13.4-13.1c0,0.4-0.1,0.8-0.1,1.2c0,7.9,6,14.3,13.4,14.3
						c7.4,0,13.4-6.4,13.4-14.3c0-0.4,0-0.8-0.1-1.2C2811.2,1374.5,2805.4,1380.2,2798.4,1380.2z"/>
				</g>
			</g>
			<g>
				<path class="st0" d="M2858.5,1312.4c-1.8,1.9-4.7,1.8-6.5-0.2c-1.7-1.9-1.7-5,0.1-6.9c1.8-1.9,4.7-1.8,6.5,0.2
					C2860.4,1307.4,2860.4,1310.5,2858.5,1312.4z M2853,1306.2c-1.4,1.4-1.4,3.7-0.1,5.1c1.3,1.4,3.5,1.5,4.8,0.1
					c1.4-1.4,1.4-3.7,0.1-5.1C2856.5,1304.9,2854.4,1304.8,2853,1306.2z"/>
			</g>
			<g>
				<path class="st0" d="M2858.6,1311.3l-1.1,1.1l5.1,5.7c0.2,0.3,0.7,0.3,0.9,0l0.2-0.2c0.2-0.2,0.2-0.6,0-0.9L2858.6,1311.3z"/>
			</g>
			<g>
				<ellipse class="st27" cx="2883.2" cy="1310.4" rx="3.5" ry="3.7"/>
			</g>
			<g>
				<g>
					<rect x="2793.8" y="1364.9" class="st28" width="13.5" height="9.3"/>
				</g>
				<g>
					<path class="st0" d="M2807.6,1374.5h-14.2v-10h14.2V1374.5z M2794.1,1373.7h12.8v-8.5h-12.8V1373.7z"/>
				</g>
			</g>
			<g>
				<path class="st0" d="M2791.5,1325.9v14.1h13.3v-14.1H2791.5z M2792.2,1326.6h11.8l-11.8,12.6V1326.6z"/>
			</g>
			<g>
				<g>
					<rect x="2791.8" y="1362.7" class="st28" width="13.5" height="9.3"/>
				</g>
				<g>
					<path class="st0" d="M2805.6,1372.4h-14.2v-10h14.2V1372.4z M2792.1,1371.6h12.8v-8.5h-12.8V1371.6z"/>
				</g>
			</g>
			<g>
				<g>
					<rect x="2789.7" y="1360.6" class="st28" width="13.5" height="9.3"/>
				</g>
				<g>
					<path class="st0" d="M2803.5,1370.2h-14.2v-10h14.2V1370.2z M2790,1369.5h12.8v-8.5H2790V1369.5z"/>
				</g>
			</g>
			<g>
				<defs>
					<rect id="SVGID_1_" x="2561.5" y="1327.3" width="202.5" height="174.1"/>
				</defs>
				<clipPath id="SVGID_00000168118044653476281540000010049088246194463679_">
					<use xlink:href="#SVGID_1_"  style="overflow:visible;"/>
				</clipPath>
				<g style="clip-path:url(#SVGID_00000168118044653476281540000010049088246194463679_);">
					<rect x="2524.9" y="1291" class="st0" width="273.4" height="254.2"/>
				</g>
			</g>
			<g>
				<g>
					<polygon class="st25" points="2760.8,1351.2 2756.5,1351.2 2756.5,1336.4 2742.6,1336.4 2742.6,1331.9 2760.8,1331.9 					"/>
				</g>
				<g>
					<polygon class="st25" points="2566.5,1351.2 2570.8,1351.2 2570.8,1336.4 2584.7,1336.4 2584.7,1331.9 2566.5,1331.9 					"/>
				</g>
				<g>
					<polygon class="st25" points="2760.8,1478.4 2756.5,1478.4 2756.5,1493.1 2742.6,1493.1 2742.6,1497.7 2760.8,1497.7 					"/>
				</g>
				<g>
					<polygon class="st25" points="2566.5,1478.4 2570.8,1478.4 2570.8,1493.1 2584.7,1493.1 2584.7,1497.7 2566.5,1497.7 					"/>
				</g>
				<g>
					<polygon class="st25" points="2669,1418.9 2664,1418.9 2664,1413.6 2661.7,1413.6 2661.7,1418.9 2656.7,1418.9 2656.7,1421.4 
						2661.7,1421.4 2661.7,1426.7 2664,1426.7 2664,1421.4 2669,1421.4 					"/>
				</g>
			</g>
			<g>
				<path class="st27" d="M2736.2,1336c0-2.1-1.6-3.8-3.5-3.8s-3.5,1.7-3.5,3.8c0,2.1,1.6,3.8,3.5,3.8S2736.2,1338.1,2736.2,1336z"
					/>
			</g>
			<g>
				<rect x="2629.3" y="1216" class="st20" width="37.8" height="6.9"/>
			</g>
		</g>
		<g>
			<circle class="st3" cx="2842.8" cy="1435.7" r="22.7"/>
		</g>
		<g>
			<circle class="st3" cx="2838.7" cy="1348.8" r="12.1"/>
		</g>
		<g>
			<circle class="st3" cx="2869.5" cy="1348.8" r="12.1"/>
		</g>
	</g>
</g>
</svg>
